<svg width="374" height="262" viewBox="0 0 374 262" fill="none" xmlns="http://www.w3.org/2000/svg">
    <path d="M204.531 61.6719C204.221 61.6719 203.943 61.4547 203.878 61.1392L202.696 55.3908C202.622 55.0299 202.854 54.6775 203.215 54.6031C203.575 54.5284 203.928 54.761 204.002 55.1219L205.185 60.8703C205.259 61.2312 205.027 61.5836 204.666 61.658C204.621 61.6674 204.575 61.6719 204.531 61.6719Z" fill="#DEE5DC" />
    <path d="M211.077 58.9641C210.767 58.9641 210.489 58.747 210.424 58.4314L209.242 52.683C209.168 52.3223 209.4 51.9697 209.761 51.8955C210.121 51.8208 210.474 52.0537 210.548 52.4144L211.731 58.1628C211.805 58.5234 211.573 58.8761 211.212 58.9502C211.167 58.9596 211.121 58.9641 211.077 58.9641Z" fill="#DEE5DC" />
    <path d="M217.086 57.7278C216.777 57.7278 216.499 57.5107 216.434 57.1951L215.252 51.4468C215.177 51.0858 215.41 50.7334 215.77 50.659C216.131 50.5846 216.483 50.8169 216.558 51.1779L217.74 56.9262C217.814 57.2872 217.582 57.6395 217.222 57.714C217.176 57.7236 217.131 57.7278 217.086 57.7278Z" fill="#DEE5DC" />
    <path d="M223.83 56.0687C223.52 56.0687 223.243 55.8516 223.177 55.536L221.995 49.7876C221.921 49.427 222.153 49.0743 222.514 49.0002C222.875 48.9255 223.227 49.1583 223.302 49.519L224.484 55.2674C224.558 55.628 224.326 55.9807 223.965 56.0548C223.92 56.0642 223.874 56.0687 223.83 56.0687Z" fill="#DEE5DC" />
    <path d="M230.002 54.2545C229.693 54.2545 229.415 54.0374 229.35 53.7218L228.167 47.9737C228.093 47.6128 228.325 47.2604 228.686 47.186C229.047 47.1113 229.399 47.3439 229.474 47.7048L230.656 53.4529C230.73 53.8138 230.498 54.1662 230.137 54.2406C230.092 54.25 230.047 54.2545 230.002 54.2545Z" fill="#DEE5DC" />
    <path d="M236.795 52.8572C236.486 52.8572 236.208 52.64 236.143 52.3244L234.961 46.5761C234.887 46.2152 235.119 45.8628 235.48 45.7886C235.841 45.7139 236.193 45.9468 236.268 46.3074L237.45 52.0558C237.523 52.4167 237.291 52.7691 236.931 52.8433C236.885 52.8529 236.84 52.8572 236.795 52.8572Z" fill="#DEE5DC" />
    <path d="M242.805 51.6214C242.495 51.6214 242.217 51.4043 242.152 51.0887L240.97 45.3403C240.896 44.9797 241.128 44.627 241.489 44.5528C241.849 44.4779 242.202 44.711 242.277 45.0717L243.459 50.8201C243.533 51.1807 243.301 51.5334 242.94 51.6075C242.895 51.6171 242.849 51.6214 242.805 51.6214Z" fill="#DEE5DC" />
    <path d="M249.648 50.4863C249.338 50.4863 249.06 50.2691 248.995 49.9535L247.813 44.2052C247.739 43.8445 247.971 43.4919 248.332 43.4177C248.692 43.3427 249.045 43.5759 249.12 43.9366L250.302 49.6849C250.376 50.0456 250.144 50.3982 249.783 50.4724C249.738 50.4817 249.692 50.4863 249.648 50.4863Z" fill="#DEE5DC" />
    <path d="M255.757 49.7743C255.447 49.7743 255.17 49.5571 255.104 49.2416L253.922 43.4932C253.848 43.1325 254.08 42.7799 254.441 42.7057C254.802 42.631 255.154 42.8639 255.229 43.2246L256.411 48.9729C256.485 49.3336 256.253 49.6862 255.892 49.7604C255.847 49.77 255.801 49.7743 255.757 49.7743Z" fill="#DEE5DC" />
    <path d="M262.551 48.377C262.241 48.377 261.963 48.1599 261.898 47.8443L260.716 42.0959C260.642 41.7353 260.874 41.3826 261.235 41.3085C261.596 41.2335 261.948 41.4666 262.023 41.8273L263.205 47.5757C263.279 47.9363 263.047 48.289 262.686 48.3631C262.64 48.3725 262.595 48.377 262.551 48.377Z" fill="#DEE5DC" />
    <path d="M268.808 48.4517C268.498 48.4517 268.22 48.2346 268.155 47.919L266.973 42.1706C266.899 41.8097 267.132 41.4573 267.492 41.3832C267.853 41.3082 268.206 41.5414 268.28 41.902L269.462 47.6504C269.536 48.0113 269.303 48.3637 268.943 48.4378C268.897 48.4472 268.852 48.4517 268.808 48.4517Z" fill="#DEE5DC" />
    <path d="M201.789 58.7738C201.508 58.7738 201.247 58.5956 201.155 58.3147C201.04 57.9647 201.231 57.5878 201.581 57.4731C202.019 57.3293 245.482 43.1669 270.361 43.1669C270.472 43.1669 270.581 43.1671 270.692 43.1677C271.06 43.1695 271.357 43.4934 271.355 43.8615C271.353 44.2286 271.055 44.5487 270.688 44.5487C270.687 44.5487 270.686 44.5487 270.685 44.5487C270.577 44.5487 270.467 44.5244 270.358 44.5244C245.693 44.5244 202.432 58.6092 201.996 58.7522C201.928 58.7749 201.858 58.7738 201.789 58.7738Z" fill="#DEE5DC" />
    <path d="M200.925 60.5117C200.925 60.5117 285.389 36.0123 339.583 46.1491V90.1642L200.925 60.5117Z" fill="#DEE5DC" />
    <path d="M38.4131 161.883V52.9446C38.4131 52.9446 245.24 49.8726 339.583 90.0453V153.376L38.4131 161.883Z" fill="#EAEFE8" />
    <path d="M347.319 93.8003C347.232 93.8003 347.143 93.7832 347.057 93.7467C315.123 80.1233 259.425 67.5022 205.158 61.5933C204.792 61.5535 204.528 61.2243 204.567 60.8581C204.607 60.4921 204.934 60.2277 205.303 60.2672C259.689 66.1892 315.536 78.8493 347.581 92.5199C347.92 92.6644 348.077 93.056 347.933 93.3948C347.825 93.6485 347.578 93.8003 347.319 93.8003Z" fill="#161616" />
    <path d="M38.4131 161.794C38.4131 161.794 180.062 113.869 339.583 130.757V223.69L38.4131 221.029V161.794Z" fill="#EAEFE8" />
    <path d="M347.32 131.378C347.289 131.378 347.259 131.376 347.227 131.372C339.482 130.296 331.533 129.364 323.603 128.602C323.236 128.567 322.968 128.241 323.003 127.874C323.038 127.508 323.362 127.237 323.73 127.274C331.68 128.038 339.647 128.972 347.411 130.051C347.776 130.102 348.03 130.439 347.98 130.803C347.933 131.137 347.647 131.378 347.32 131.378Z" fill="#161616" />
    <path d="M313.677 127.732C313.66 127.732 313.642 127.731 313.624 127.73C304.045 126.975 294.21 126.44 284.39 126.138C284.022 126.127 283.733 125.838 283.744 125.47C283.755 125.109 284.051 124.843 284.41 124.843C284.417 124.843 284.424 124.843 284.431 124.843C294.272 125.11 304.129 125.663 313.729 126.419C314.096 126.448 314.37 126.76 314.341 127.127C314.313 127.476 314.022 127.732 313.677 127.732Z" fill="#161616" />
    <path d="M114.26 141.607C113.95 141.607 113.673 141.389 113.608 141.074C113.534 140.713 113.767 140.36 114.128 140.287C158.415 131.228 202.498 126.013 245.151 124.784C245.518 124.778 245.826 125.063 245.836 125.431C245.847 125.8 245.557 126.107 245.189 126.117C202.613 127.344 158.607 132.551 114.395 141.593C114.35 141.602 114.305 141.607 114.26 141.607Z" fill="#161616" />
    <path d="M26.1423 165.329C25.8712 165.329 25.6165 165.162 25.5167 164.893C25.3889 164.548 25.5653 164.165 25.9104 164.036C25.9819 164.01 33.1777 161.353 45.8562 157.487C57.5517 153.921 76.4451 148.565 100.037 143.299C100.398 143.22 100.753 143.445 100.833 143.805C100.913 144.164 100.687 144.521 100.327 144.601C76.7836 149.855 57.93 155.2 46.2596 158.758C33.6142 162.614 26.4448 165.261 26.3735 165.287C26.2975 165.316 26.2194 165.329 26.1423 165.329Z" fill="#161616" />
    <path d="M172.266 126.855L152.887 205.767L169.682 208.857L184.217 153.911C184.217 153.911 190.569 155.344 197.028 153.481L213.501 204.905L229.394 197.908L205.211 124.917" fill="#946D42" />
    <path d="M172.266 127.522C172.078 127.522 171.897 127.442 171.77 127.301C171.635 127.151 171.575 126.946 171.609 126.746L175.377 104.08C175.408 103.889 175.522 103.721 175.687 103.62C175.868 103.509 180.208 100.896 187.072 100.355C193.938 99.8133 199.842 102.287 200.09 102.392C200.283 102.474 200.426 102.643 200.476 102.847L205.277 122.39C205.365 122.748 205.146 123.109 204.788 123.197C204.43 123.285 204.069 123.066 203.982 122.708L199.263 103.499C197.984 103.013 192.855 101.237 187.177 101.685C181.564 102.127 177.652 104.063 176.641 104.613L173.061 126.14L205.172 124.252C205.539 124.228 205.855 124.511 205.877 124.878C205.899 125.246 205.618 125.562 205.25 125.583L172.306 127.521C172.292 127.522 172.279 127.522 172.266 127.522Z" fill="#161616" />
    <path d="M157.311 187.753L172.561 197.975L164.893 225.867L150.943 212.323L157.311 187.753Z" fill="#FAFCFA" />
    <path d="M164.893 226.534C164.721 226.534 164.554 226.468 164.428 226.345L150.479 212.802C150.307 212.635 150.238 212.388 150.298 212.156L156.666 187.586C156.72 187.376 156.872 187.206 157.074 187.129C157.276 187.052 157.503 187.078 157.682 187.199L172.932 197.421C173.17 197.581 173.28 197.875 173.204 198.152L165.536 226.044C165.473 226.271 165.295 226.448 165.068 226.51C165.01 226.526 164.951 226.534 164.893 226.534ZM151.686 212.115L164.549 224.603L171.79 198.261L157.721 188.83L151.686 212.115Z" fill="#161616" />
    <path d="M143.627 206.129C143.627 206.129 148.662 202.917 152.881 205.575C157.1 208.232 162.932 214.321 162.932 214.321" fill="#FAFCFA" />
    <path d="M162.932 214.988C162.757 214.988 162.582 214.919 162.45 214.782C162.393 214.721 156.626 208.721 152.526 206.139C150.948 205.145 149.047 204.928 146.878 205.491C145.205 205.926 143.997 206.685 143.985 206.692C143.673 206.89 143.262 206.798 143.064 206.487C142.867 206.176 142.958 205.765 143.268 205.567C143.323 205.532 144.636 204.702 146.502 204.211C149.022 203.546 151.351 203.823 153.236 205.01C157.476 207.681 163.173 213.608 163.414 213.859C163.668 214.125 163.659 214.547 163.393 214.802C163.264 214.926 163.098 214.988 162.932 214.988Z" fill="#161616" />
    <path d="M165.542 225.001C166.614 227.353 155.844 230.651 150.392 225.162C144.914 219.645 138.439 209.356 142.442 206.37C146.445 203.385 161.261 215.597 165.542 225.001Z" fill="#161616" />
    <path d="M143.627 211.914C143.416 211.914 143.209 211.814 143.079 211.627C142.869 211.325 142.943 210.91 143.246 210.699L146.687 208.31C146.989 208.1 147.404 208.175 147.615 208.477C147.825 208.78 147.75 209.195 147.447 209.405L144.007 211.795C143.891 211.876 143.758 211.914 143.627 211.914Z" fill="#EAEFE8" />
    <path d="M144.919 214.283C144.712 214.283 144.508 214.186 144.378 214.005C144.162 213.707 144.23 213.29 144.529 213.075L149.477 209.511C149.776 209.296 150.193 209.363 150.408 209.663C150.623 209.961 150.555 210.378 150.257 210.593L145.308 214.157C145.19 214.242 145.054 214.283 144.919 214.283Z" fill="#EAEFE8" />
    <path d="M146.211 216.651C146.001 216.651 145.794 216.552 145.664 216.367C145.453 216.065 145.526 215.65 145.828 215.438L151.055 211.777C151.357 211.566 151.773 211.639 151.984 211.941C152.195 212.243 152.122 212.658 151.82 212.87L146.593 216.531C146.477 216.612 146.343 216.651 146.211 216.651Z" fill="#EAEFE8" />
    <path d="M152.307 224.254C152.106 224.254 151.908 224.164 151.777 223.992C151.553 223.7 151.609 223.281 151.902 223.058L157.147 219.049C157.44 218.825 157.858 218.882 158.082 219.175C158.306 219.467 158.25 219.886 157.957 220.109L152.712 224.117C152.591 224.21 152.448 224.254 152.307 224.254Z" fill="#EAEFE8" />
    <path d="M154.245 225.977C154.044 225.977 153.846 225.887 153.715 225.715C153.491 225.422 153.547 225.004 153.84 224.78L159.085 220.772C159.379 220.548 159.797 220.604 160.02 220.897C160.244 221.19 160.188 221.608 159.895 221.832L154.65 225.84C154.529 225.932 154.386 225.977 154.245 225.977Z" fill="#EAEFE8" />
    <path d="M225.159 185.248L210.559 196.379L219.911 223.753L233.01 209.386L225.159 185.248Z" fill="#FAFCFA" />
    <path d="M219.911 224.419C219.866 224.419 219.82 224.415 219.775 224.405C219.544 224.357 219.356 224.191 219.28 223.968L209.928 196.595C209.835 196.323 209.927 196.023 210.155 195.849L224.755 184.717C224.927 184.586 225.152 184.546 225.358 184.611C225.564 184.675 225.726 184.836 225.793 185.041L233.644 209.179C233.718 209.407 233.665 209.657 233.503 209.835L220.404 224.202C220.276 224.342 220.096 224.419 219.911 224.419ZM211.346 196.618L220.177 222.47L232.256 209.223L224.815 186.348L211.346 196.618Z" fill="#161616" />
    <path d="M239.936 202.757C239.936 202.757 234.715 199.858 230.665 202.767C226.615 205.676 221.165 212.108 221.165 212.108" fill="#FAFCFA" />
    <path d="M221.164 212.775C221.012 212.775 220.859 212.724 220.734 212.617C220.452 212.379 220.418 211.958 220.656 211.677C220.881 211.412 226.207 205.149 230.276 202.226C232.086 200.926 234.394 200.508 236.95 201.017C238.842 201.395 240.203 202.143 240.26 202.174C240.582 202.353 240.698 202.759 240.519 203.081C240.34 203.403 239.934 203.518 239.613 203.341C239.601 203.334 238.349 202.65 236.652 202.318C234.452 201.888 232.569 202.221 231.055 203.309C227.119 206.136 221.728 212.476 221.674 212.54C221.542 212.695 221.354 212.775 221.164 212.775Z" fill="#161616" />
    <path d="M219.21 222.928C218.284 225.341 229.234 227.978 234.341 222.166C239.474 216.326 245.31 205.662 241.134 202.926C236.956 200.19 222.911 213.281 219.21 222.928Z" fill="#161616" />
    <path d="M240.247 208.532C240.129 208.532 240.009 208.501 239.901 208.436L236.321 206.26C236.007 206.068 235.907 205.658 236.098 205.343C236.289 205.028 236.7 204.929 237.015 205.12L240.594 207.296C240.909 207.487 241.009 207.897 240.818 208.212C240.692 208.418 240.472 208.532 240.247 208.532Z" fill="#EAEFE8" />
    <path d="M239.102 210.975C238.98 210.975 238.857 210.942 238.746 210.872L233.59 207.617C233.279 207.42 233.186 207.008 233.382 206.697C233.579 206.385 233.991 206.292 234.302 206.489L239.458 209.745C239.77 209.941 239.863 210.353 239.666 210.665C239.539 210.866 239.323 210.975 239.102 210.975Z" fill="#EAEFE8" />
    <path d="M237.956 213.418C237.837 213.418 237.717 213.387 237.608 213.32L232.168 209.984C231.854 209.791 231.755 209.381 231.948 209.067C232.141 208.753 232.552 208.655 232.865 208.847L238.305 212.183C238.62 212.376 238.718 212.786 238.525 213.1C238.399 213.305 238.18 213.418 237.956 213.418Z" fill="#EAEFE8" />
    <path d="M232.334 221.378C232.206 221.378 232.077 221.341 231.963 221.265L226.483 217.583C226.177 217.378 226.096 216.964 226.302 216.658C226.507 216.352 226.922 216.271 227.227 216.476L232.707 220.158C233.012 220.363 233.093 220.777 232.888 221.083C232.76 221.275 232.549 221.378 232.334 221.378Z" fill="#EAEFE8" />
    <path d="M230.505 223.215C230.377 223.215 230.247 223.179 230.133 223.102L224.654 219.42C224.348 219.215 224.267 218.801 224.472 218.495C224.678 218.189 225.092 218.109 225.398 218.313L230.877 221.995C231.183 222.2 231.264 222.614 231.059 222.92C230.93 223.112 230.719 223.215 230.505 223.215Z" fill="#EAEFE8" />
    <path d="M184.217 154.793C180.343 154.793 178.663 152.285 178.593 152.178C178.392 151.87 178.48 151.457 178.788 151.255C179.095 151.055 179.507 151.141 179.709 151.447C179.769 151.536 181.099 153.46 184.216 153.46C184.585 153.46 184.883 153.758 184.883 154.127C184.883 154.495 184.585 154.793 184.217 154.793Z" fill="#161616" />
    <path d="M197.429 154.383C197.141 154.383 196.967 154.361 196.937 154.356C196.572 154.306 196.317 153.97 196.368 153.605C196.418 153.241 196.752 152.988 197.116 153.035C197.242 153.052 199.975 153.352 202.795 150.485C203.053 150.223 203.475 150.219 203.738 150.477C204 150.736 204.004 151.158 203.745 151.42C201.132 154.078 198.498 154.383 197.429 154.383Z" fill="#161616" />
    <path d="M161.752 169.669L167.74 171.195L169.893 162.581L163.975 160.618L161.752 169.669Z" fill="#B2BCAF" />
    <path d="M170.725 164.856H168.858C168.49 164.856 168.191 164.558 168.191 164.19C168.191 163.821 168.49 163.523 168.858 163.523H170.725C171.094 163.523 171.392 163.821 171.392 164.19C171.392 164.558 171.094 164.856 170.725 164.856Z" fill="#161616" />
    <path d="M169.031 171.431C168.904 171.431 168.775 171.395 168.662 171.319L167.046 170.242C166.74 170.038 166.657 169.624 166.861 169.317C167.066 169.011 167.479 168.928 167.786 169.133L169.402 170.209C169.708 170.414 169.791 170.828 169.586 171.134C169.458 171.327 169.247 171.431 169.031 171.431Z" fill="#161616" />
    <path d="M169.786 167.986C169.732 167.986 169.678 167.979 169.624 167.965L167.901 167.534C167.544 167.445 167.326 167.083 167.416 166.726C167.505 166.368 167.869 166.15 168.225 166.241L169.947 166.672C170.305 166.761 170.522 167.123 170.433 167.48C170.357 167.783 170.085 167.986 169.786 167.986Z" fill="#161616" />
    <path d="M179.149 103.195L178.602 126.914C178.602 126.914 178.883 129.635 181.241 129.492C183.598 129.348 183.53 126.623 183.53 126.623V102.072C183.53 102.072 180.099 102.829 179.149 103.195Z" fill="#946D42" />
    <path d="M180.945 130.164C178.736 130.164 177.982 128.096 177.893 126.967C177.864 126.6 178.138 126.279 178.506 126.25C178.871 126.219 179.193 126.494 179.222 126.86C179.241 127.074 179.461 128.932 181.089 128.826C182.724 128.727 182.694 126.866 182.686 126.654C182.67 126.287 182.954 125.976 183.321 125.959C183.675 125.944 184 126.224 184.018 126.591C184.076 127.761 183.556 130.012 181.17 130.158C181.093 130.162 181.018 130.164 180.945 130.164Z" fill="#161616" />
    <path d="M180.989 127.239C181.331 127.239 181.608 126.962 181.608 126.62C181.608 126.278 181.331 126.001 180.989 126.001C180.647 126.001 180.37 126.278 180.37 126.62C180.37 126.962 180.647 127.239 180.989 127.239Z" fill="#161616" />
    <path d="M196.932 102.479L198.556 126.15C198.556 126.15 198.407 128.88 196.045 128.844C193.683 128.809 193.634 126.083 193.634 126.083L192.514 101.557C192.514 101.557 195.966 102.157 196.932 102.479Z" fill="#946D42" />
    <path d="M196.192 129.507C196.173 129.507 196.154 129.507 196.134 129.506C193.745 129.47 193.122 127.228 193.127 126.056C193.128 125.689 193.427 125.376 193.794 125.376C193.795 125.376 193.796 125.376 193.796 125.376C194.165 125.376 194.462 125.693 194.461 126.062C194.461 126.271 194.517 128.139 196.155 128.164C197.83 128.188 197.927 126.206 197.929 126.121C197.942 125.753 198.248 125.468 198.618 125.479C198.986 125.491 199.275 125.8 199.263 126.168C199.224 127.329 198.532 129.507 196.192 129.507Z" fill="#161616" />
    <path d="M196.154 126.584C196.496 126.584 196.773 126.306 196.773 125.964C196.773 125.622 196.496 125.345 196.154 125.345C195.812 125.345 195.534 125.622 195.534 125.964C195.534 126.306 195.812 126.584 196.154 126.584Z" fill="#161616" />
    <path d="M181.245 102.204L183.172 107.958L185.829 101.207C185.828 101.207 182.982 101.618 181.245 102.204Z" fill="#F9FCF7" />
    <path d="M183.172 108.57C183.166 108.57 183.16 108.57 183.155 108.57C182.874 108.57 182.628 108.408 182.539 108.143L180.612 102.402C180.496 102.053 180.683 101.682 181.031 101.565C182.806 100.967 185.615 100.561 185.733 100.544C185.969 100.509 186.204 100.605 186.351 100.791C186.498 100.978 186.536 101.229 186.449 101.451L183.792 108.175C183.692 108.43 183.445 108.57 183.172 108.57ZM182.095 102.642L183.222 106.008L184.778 102.056C184.009 102.193 182.978 102.397 182.095 102.642Z" fill="#161616" />
    <path d="M194.561 101.684L192.864 107.51L189.941 100.87C189.941 100.87 192.802 101.168 194.561 101.684Z" fill="#F9FCF7" />
    <path d="M192.864 108.177C192.601 108.177 192.361 108.022 192.254 107.779L189.331 101.139C189.235 100.921 189.262 100.669 189.402 100.477C189.542 100.285 189.771 100.182 190.01 100.207C190.129 100.219 192.952 100.517 194.749 101.044C195.102 101.148 195.304 101.517 195.201 101.87L193.504 107.696C193.426 107.965 193.187 108.157 192.908 108.175C192.893 108.176 192.878 108.177 192.864 108.177ZM191.025 101.676L192.736 105.564L193.729 102.156C192.836 101.946 191.799 101.783 191.025 101.676Z" fill="#161616" />
    <path d="M189.182 143.955C183.692 143.955 180.918 141.525 179.557 139.487C178.083 137.279 177.925 135.082 177.919 134.99C177.907 134.812 177.967 134.637 178.085 134.504C178.203 134.371 178.37 134.29 178.547 134.281L199.357 133.132C199.695 133.108 200.003 133.359 200.053 133.7C200.076 133.858 200.597 137.604 198.146 140.56C196.41 142.655 193.658 143.792 189.967 143.939C189.7 143.95 189.438 143.955 189.182 143.955ZM179.346 135.572C179.724 137.516 181.534 142.935 189.914 142.606C193.211 142.475 195.635 141.5 197.119 139.709C198.659 137.852 198.805 135.568 198.777 134.5L179.346 135.572Z" fill="#161616" />
    <path d="M187.703 99.6164C184.868 99.6164 182.511 98.8116 180.687 97.2177C177.393 94.3391 177.064 89.9558 177.052 89.7706C177.027 89.4033 177.305 89.0853 177.672 89.0608C178.038 89.04 178.357 89.3137 178.382 89.6807C178.409 90.0574 179.138 98.8954 188.693 98.2485C196.445 97.7224 196.534 91.6409 196.534 91.3821C196.534 91.0137 196.833 90.7152 197.201 90.7152C197.57 90.7152 197.868 91.0137 197.868 91.3821C197.868 94.0041 195.97 99.0914 188.783 99.5791C188.416 99.6039 188.056 99.6164 187.703 99.6164Z" fill="#161616" />
    <path d="M183.354 102.226C183.344 102.226 183.335 102.226 183.326 102.225C182.958 102.21 182.671 101.9 182.687 101.532L182.793 98.9221C182.808 98.5543 183.119 98.267 183.487 98.283C183.855 98.2982 184.141 98.6087 184.126 98.9766L184.019 101.586C184.005 101.945 183.709 102.226 183.354 102.226Z" fill="#161616" />
    <path d="M191.82 101.137C191.489 101.137 191.202 100.891 191.159 100.555L190.91 98.6196C190.863 98.2541 191.121 97.9198 191.486 97.8732C191.848 97.8251 192.186 98.0842 192.233 98.4496L192.482 100.385C192.529 100.75 192.271 101.084 191.905 101.131C191.877 101.135 191.848 101.137 191.82 101.137Z" fill="#161616" />
    <path d="M188.198 124.176C187.829 124.176 187.531 123.877 187.531 123.509V100.834C187.531 100.466 187.829 100.168 188.198 100.168C188.566 100.168 188.865 100.466 188.865 100.834V123.509C188.865 123.877 188.566 124.176 188.198 124.176Z" fill="#161616" />
    <path d="M176.034 104.856C175.917 104.856 175.8 104.826 175.693 104.762L165.172 98.4818C164.967 98.3593 164.843 98.1366 164.847 97.8978C164.851 97.6588 164.983 97.4406 165.192 97.3254L176.39 91.1523C176.712 90.9747 177.118 91.0915 177.296 91.4143C177.473 91.7368 177.356 92.1425 177.034 92.3202L166.854 97.9323L176.376 103.617C176.693 103.805 176.796 104.215 176.607 104.531C176.482 104.74 176.261 104.856 176.034 104.856Z" fill="#161616" />
    <path d="M174.106 116.451C173.973 116.451 173.838 116.412 173.721 116.329L154.362 102.616C154.333 102.595 154.306 102.573 154.28 102.547C154.126 102.396 150.528 98.7984 152.285 95.1097C153.919 91.6808 170.156 84.5983 172.002 83.8021C172.339 83.6564 172.732 83.8119 172.879 84.1502C173.025 84.4884 172.869 84.8808 172.53 85.0268C172.486 85.046 168.039 86.968 163.461 89.2658C155.259 93.3824 153.755 95.1252 153.489 95.6835C152.213 98.3604 154.849 101.218 155.181 101.562L174.492 115.24C174.793 115.453 174.864 115.869 174.651 116.17C174.521 116.353 174.315 116.451 174.106 116.451Z" fill="#161616" />
    <path d="M155.497 103.27C155.246 103.27 155.006 103.128 154.893 102.885C154.736 102.552 154.88 102.155 155.213 101.999L165.231 97.3053C165.566 97.1493 165.962 97.2931 166.118 97.6262C166.274 97.9597 166.131 98.3569 165.797 98.5129L155.779 103.206C155.688 103.249 155.592 103.27 155.497 103.27Z" fill="#161616" />
    <path d="M161.352 107.417C161.163 107.417 160.975 107.337 160.843 107.182C160.605 106.901 160.639 106.48 160.92 106.241L168.752 99.5912C169.033 99.353 169.454 99.3868 169.692 99.668C169.931 99.9489 169.896 100.37 169.615 100.608L161.783 107.258C161.658 107.365 161.505 107.417 161.352 107.417Z" fill="#161616" />
    <path d="M201.602 104.21C201.375 104.21 201.154 104.094 201.029 103.885C200.841 103.568 200.944 103.159 201.26 102.97L210.783 97.286L200.603 91.6739C200.28 91.496 200.163 91.0905 200.341 90.768C200.519 90.4455 200.925 90.3281 201.247 90.506L212.444 96.6791C212.654 96.7946 212.785 97.0128 212.789 97.2515C212.793 97.4906 212.67 97.713 212.464 97.8355L201.944 104.115C201.837 104.18 201.719 104.21 201.602 104.21Z" fill="#161616" />
    <path d="M203.531 115.805C203.322 115.805 203.116 115.707 202.986 115.524C202.773 115.224 202.844 114.807 203.145 114.594L222.455 100.916C222.784 100.573 225.418 97.7037 224.148 95.0372C223.882 94.4791 222.378 92.7364 214.176 88.6198C209.598 86.322 205.151 84.4 205.106 84.3808C204.768 84.2348 204.612 83.8424 204.758 83.5042C204.904 83.1659 205.297 83.0102 205.634 83.1561C207.48 83.9523 223.718 91.0348 225.352 94.4634C227.11 98.1521 223.511 101.75 223.357 101.901C223.331 101.927 223.304 101.949 223.275 101.97L203.916 115.683C203.798 115.766 203.664 115.805 203.531 115.805Z" fill="#161616" />
    <path d="M222.14 102.624C222.045 102.624 221.949 102.603 221.857 102.56L211.839 97.8667C211.506 97.7107 211.362 97.3135 211.518 96.98C211.674 96.6466 212.071 96.5025 212.405 96.6591L222.423 101.353C222.756 101.509 222.9 101.906 222.744 102.239C222.631 102.481 222.391 102.624 222.14 102.624Z" fill="#161616" />
    <path d="M216.285 106.771C216.132 106.771 215.979 106.719 215.853 106.612L208.021 99.9619C207.74 99.7234 207.706 99.3027 207.945 99.0218C208.183 98.7412 208.604 98.7071 208.884 98.945L216.717 105.595C216.998 105.834 217.032 106.254 216.793 106.535C216.661 106.691 216.474 106.771 216.285 106.771Z" fill="#161616" />
    <path d="M189.517 92.5425C180.483 92.5425 173.134 86.3735 173.134 78.7906C173.134 71.2075 180.483 65.0385 189.517 65.0385C198.551 65.0385 205.901 71.2075 205.901 78.7906C205.901 86.3735 198.551 92.5425 189.517 92.5425ZM189.517 66.3722C181.219 66.3722 174.467 71.9432 174.467 78.7906C174.467 85.6381 181.219 91.2088 189.517 91.2088C197.816 91.2088 204.567 85.6381 204.567 78.7906C204.567 71.943 197.816 66.3722 189.517 66.3722Z" fill="#161616" />
    <path d="M189.928 86.7427C187.749 86.7427 185.605 86.0497 183.89 84.7914C181.911 83.3394 180.664 81.236 180.467 79.0203C180.286 76.9844 180.986 75.0238 182.436 73.4995C184.056 71.7979 186.468 70.8215 189.055 70.8215C191.234 70.8215 193.378 71.5146 195.093 72.7729C197.071 74.2248 198.319 76.3282 198.516 78.5436C198.696 80.5795 197.997 82.5402 196.546 84.0645C194.927 85.7667 192.514 86.7427 189.928 86.7427ZM189.055 72.1556C186.832 72.1556 184.771 72.9807 183.403 74.419C182.22 75.6616 181.65 77.2536 181.796 78.9024C181.959 80.7364 183.01 82.4909 184.68 83.7158C186.167 84.8074 188.031 85.4087 189.928 85.4087C192.151 85.4087 194.211 84.5836 195.58 83.145C196.763 81.9024 197.334 80.3101 197.187 78.6613C197.024 76.8276 195.973 75.0731 194.304 73.8482C192.816 72.7569 190.952 72.1556 189.055 72.1556Z" fill="#161616" />
    <path d="M192.016 85.2513C189.75 85.2513 187.447 84.4763 185.529 83.0689C183.344 81.4652 181.977 79.2604 181.778 77.0194C181.63 75.3513 182.164 73.7857 183.283 72.6107C184.556 71.2723 186.466 70.5353 188.659 70.5353C190.924 70.5353 193.228 71.3102 195.146 72.7176C197.33 74.3211 198.698 76.5256 198.897 78.7664C199.045 80.4344 198.511 82.0003 197.393 83.1756C196.119 84.5142 194.209 85.2513 192.016 85.2513ZM188.659 71.8693C186.834 71.8693 185.268 72.4591 184.249 73.5304C183.386 74.4369 182.991 75.6026 183.107 76.9017C183.271 78.761 184.442 80.6169 186.319 81.9939C188.009 83.2343 190.032 83.9177 192.016 83.9177C193.84 83.9177 195.407 83.3277 196.426 82.2564C197.289 81.3499 197.684 80.1839 197.568 78.8845C197.403 77.0255 196.232 75.1699 194.356 73.7932C192.666 72.5525 190.642 71.8693 188.659 71.8693Z" fill="#161616" />
    <path d="M188.064 95.7661H186.581C186.375 95.7661 186.18 95.6706 186.054 95.5076C185.927 95.3446 185.884 95.1323 185.935 94.9325L186.408 93.1023C186.5 92.7456 186.863 92.5314 187.22 92.6232C187.577 92.7152 187.791 93.0788 187.699 93.4354L187.442 94.4323H188.064C188.433 94.4323 188.731 94.7308 188.731 95.0992C188.731 95.4676 188.433 95.7661 188.064 95.7661Z" fill="#161616" />
    <path d="M190.368 96.8049C190.476 97.3942 193.259 96.7155 193.641 95.6512C194.022 94.5868 192.156 93.7281 191.355 94.0511C190.552 94.3737 190.103 95.3593 190.368 96.8049Z" fill="#161616" />
    <path d="M85.2983 163.713C85.6256 164.612 85.162 165.605 84.2636 165.932C83.3646 166.259 82.3709 165.795 82.0439 164.897L54.1159 88.1438C53.788 87.2457 54.2517 86.2517 55.1501 85.9249C56.0488 85.5979 57.043 86.0613 57.3695 86.96L85.2983 163.713Z" fill="#DEE5DC" />
    <path d="M83.6716 166.704C82.667 166.704 81.7608 166.07 81.4172 165.125L53.4892 88.372C53.27 87.771 53.2977 87.1199 53.5685 86.5391C53.8392 85.9581 54.3199 85.5174 54.9223 85.2982C55.1866 85.2019 55.4627 85.1533 55.7423 85.1533C56.7474 85.1533 57.6531 85.7879 57.9964 86.7323L85.9249 163.485C86.1439 164.087 86.1156 164.738 85.8449 165.319C85.5738 165.899 85.0934 166.34 84.4913 166.559C84.2267 166.655 83.9511 166.704 83.6716 166.704ZM55.7423 86.4871C55.6185 86.4871 55.4961 86.509 55.3781 86.5517C55.1109 86.649 54.8974 86.8446 54.7774 87.1023C54.6576 87.3597 54.6451 87.6483 54.7425 87.9151L82.6704 164.669C82.823 165.088 83.2256 165.37 83.6716 165.37C83.7954 165.37 83.9178 165.348 84.0357 165.306C84.3025 165.208 84.5159 165.013 84.6359 164.756C84.7562 164.498 84.7688 164.209 84.6714 163.941L56.7429 87.1881C56.5906 86.7685 56.1886 86.4871 55.7423 86.4871Z" fill="#161616" />
    <path d="M57.99 101.11L62.6183 99.2662C62.6183 99.2662 58.5859 76.664 52.0106 77.2685C45.4345 77.873 57.99 101.11 57.99 101.11Z" fill="#946D42" />
    <path d="M82.9916 157.795C82.9916 157.795 87.2563 165.818 92.8195 164.969C97.9108 164.19 105.238 187.281 105.238 187.281C105.238 187.281 104.055 190.783 102.932 188.12C101.81 185.457 95.7176 171.98 93.8302 172.279C91.9429 172.577 98.6887 189.539 98.6887 189.539C98.6887 189.539 98.5169 194.132 96.4226 191.331C94.3283 188.529 89.5912 173.822 87.5073 174.426C85.4242 175.031 92.1043 193.024 92.1043 193.024C92.1043 193.024 91.658 196.383 90.0593 194.522C88.4612 192.66 83.09 175.369 80.5918 176.943C78.7315 178.114 84.4902 194.831 84.4902 194.831C84.4902 194.831 84.832 200.835 82.1823 195.662C80.952 193.261 73.7828 178.666 75.1292 172.482C75.8187 169.313 82.242 168.818 79.8732 158.931L82.9916 157.795Z" fill="white" />
    <path d="M83.8531 198.43C83.1414 198.43 82.4855 197.716 81.5889 195.966C80.7083 194.248 73.03 178.989 74.4777 172.339C74.7377 171.144 75.6247 170.312 76.5637 169.432C78.4337 167.679 80.7606 165.498 79.2246 159.086C79.1457 158.757 79.3268 158.42 79.645 158.304L82.7634 157.169C83.0755 157.056 83.4242 157.189 83.5802 157.482C83.6171 157.551 87.3026 164.365 91.9903 164.365C92.2331 164.365 92.478 164.347 92.7186 164.31C92.8351 164.292 92.9549 164.283 93.0742 164.283C96.6863 164.283 100.439 172.991 101.672 175.852C104.064 181.401 105.856 187.023 105.873 187.08C105.916 187.215 105.915 187.36 105.869 187.495C105.637 188.184 104.974 189.786 103.847 189.786H103.847C102.91 189.787 102.464 188.728 102.317 188.38C98.8866 180.238 95.3942 174.284 94.1455 173.132C94.1519 175.127 96.7045 182.746 99.308 189.293C99.3422 189.379 99.3582 189.471 99.3547 189.564C99.3256 190.348 99.1122 192.904 97.5978 192.904C97.0296 192.904 96.4865 192.531 95.8882 191.731C95.034 190.588 93.8691 187.824 92.5201 184.623C91.2269 181.555 88.8781 175.982 87.7755 175.163C87.4341 176.902 90.0024 185.447 92.7292 192.792C92.7671 192.894 92.7794 193.004 92.7653 193.112C92.6828 193.731 92.3086 195.751 90.9444 195.751C90.9441 195.751 90.9441 195.751 90.9441 195.751C90.4671 195.751 90.0123 195.491 89.5532 194.956C88.9645 194.271 88.1447 192.283 86.7464 188.827C85.7108 186.269 84.5374 183.37 83.4186 181.11C81.8618 177.967 81.1282 177.567 80.9665 177.516C80.4773 178.545 81.9002 185.265 85.1205 194.614C85.1405 194.672 85.1525 194.732 85.156 194.794C85.1997 195.562 85.2317 197.423 84.5878 198.105C84.3893 198.315 84.1282 198.43 83.8531 198.43ZM80.6534 159.356C82.0875 166.082 79.4303 168.573 77.4757 170.405C76.6251 171.202 75.9528 171.833 75.7808 172.623C74.4088 178.926 82.4334 194.69 82.776 195.358C83.2209 196.226 83.5306 196.67 83.72 196.894C83.8147 196.462 83.863 195.687 83.8294 194.958C83.6133 194.325 82.303 190.453 81.2013 186.505C78.6532 177.375 79.6834 176.727 80.2367 176.379C80.4512 176.244 80.6856 176.175 80.9332 176.175C82.7568 176.175 84.5819 179.924 87.9831 188.327C89.0192 190.887 90.0905 193.534 90.5656 194.087C90.7566 194.309 90.8774 194.383 90.9278 194.407C91.0967 194.265 91.3186 193.667 91.4189 193.093C89.9277 189.064 85.5001 176.652 86.6504 174.367C86.8387 173.993 87.1193 173.844 87.3215 173.786C87.4237 173.756 87.5293 173.741 87.6363 173.741C89.2094 173.741 90.7806 177.06 93.7499 184.105C95.0103 187.095 96.2006 189.919 96.9571 190.931C97.2801 191.364 97.4823 191.506 97.5669 191.551C97.7638 191.321 97.9665 190.464 98.0159 189.65C97.7326 188.932 96.3782 185.471 95.1394 181.875C92.2488 173.487 92.7775 172.559 93.0317 172.113C93.1862 171.841 93.4329 171.666 93.7264 171.62C93.7811 171.611 93.8366 171.607 93.8942 171.607C94.7563 171.607 96.0114 172.49 99.3238 178.903C101.313 182.754 103.084 186.761 103.547 187.861C103.688 188.194 103.801 188.35 103.864 188.418C104.05 188.261 104.339 187.764 104.534 187.267C101.827 178.802 96.3894 165.617 93.0752 165.617C93.0232 165.617 92.9712 165.621 92.921 165.629C92.614 165.676 92.3014 165.699 91.9914 165.699C87.2748 165.699 83.7075 160.325 82.6917 158.615L80.6534 159.356Z" fill="#161616" />
    <path d="M56.9326 193.544L59.8712 192.234C59.8712 192.234 62.1325 197.067 63.0363 198.08C63.9406 199.093 72.825 207.908 64.8727 209.725C64.8727 209.725 62.3107 210.307 60.4533 204.774C58.5959 199.242 56.9326 193.544 56.9326 193.544Z" fill="#161616" />
    <path d="M60.0781 192.671L59.8366 192.195L57.3979 187.395C57.3979 187.395 48.126 182.912 50.0965 176.874C52.0671 170.836 60.7732 165.631 68.2267 169.762C68.2267 169.762 58.3833 158.692 47.6245 171.036C36.9776 183.25 54.7832 191.52 54.7832 191.52C54.7832 191.52 56.3661 191.64 56.933 193.544L60.0781 192.671Z" fill="#DEE5DC" />
    <path d="M56.9324 194.211C56.6445 194.211 56.3797 194.023 56.2932 193.734C55.8624 192.287 54.7434 192.185 54.7319 192.184C54.6521 192.178 54.5742 192.158 54.5019 192.124C54.1253 191.949 45.2604 187.76 43.7719 180.761C43.0548 177.389 44.1816 173.969 47.1213 170.597C50.6294 166.572 54.4294 164.531 58.4164 164.531C64.1154 164.531 68.153 168.697 68.6735 169.262C68.8117 169.384 68.8986 169.562 68.8986 169.761C68.8986 170.129 68.6014 170.427 68.2341 170.428C68.1207 170.432 68.0074 170.402 67.9033 170.345C66.2305 169.418 64.4245 168.948 62.5351 168.948C56.807 168.948 52.035 173.083 50.7305 177.08C48.9643 182.493 57.6011 186.751 57.6884 186.794C57.8194 186.857 57.9266 186.962 57.9925 187.092L60.6729 192.368C60.7633 192.546 60.7689 192.756 60.6886 192.939C60.6078 193.122 60.4496 193.259 60.2567 193.313L57.1114 194.186C57.0514 194.203 56.9916 194.211 56.9324 194.211ZM54.98 190.874C55.4079 190.948 56.6515 191.284 57.3387 192.739L59.1147 192.246L56.9028 187.892C55.4665 187.153 47.483 182.733 49.4624 176.667C51.1189 171.59 56.8609 167.614 62.5351 167.614C63.285 167.614 64.0228 167.68 64.7463 167.811C63.122 166.806 60.9303 165.865 58.4164 165.865C54.8322 165.865 51.3705 167.752 48.127 171.473C45.4789 174.511 44.4526 177.541 45.0758 180.48C46.3506 186.486 54.0826 190.435 54.98 190.874Z" fill="#161616" />
    <path d="M235.748 154.328C235.748 154.328 234.902 155.713 236.825 155.996L234.784 169.384C234.784 169.384 233.701 173.817 237.439 173.844C241.178 173.871 259.324 174.265 259.324 174.265L261.878 147.178L237.211 147.541L235.748 154.328Z" fill="#F7F9F7" />
    <path d="M268.043 171.188L263.565 147.27L261.878 147.178L260.113 165.906L259.855 175.1L268.043 171.188Z" fill="#F7F9F7" />
    <path d="M259.325 174.993C259.32 174.993 259.315 174.993 259.31 174.993C259.128 174.993 241.125 174.568 237.434 174.542C236.243 174.533 235.334 174.121 234.73 173.347C233.587 171.88 234.058 169.578 234.129 169.266L236.074 156.502C235.571 156.323 235.223 156.03 235.036 155.63C234.736 154.989 234.992 154.343 235.12 154.088L236.563 148.184C236.651 147.826 237.013 147.607 237.369 147.694C237.727 147.782 237.946 148.143 237.859 148.5L236.396 154.487C236.379 154.553 236.353 154.617 236.317 154.676C236.262 154.772 236.2 154.972 236.244 155.063C236.286 155.149 236.488 155.272 236.922 155.336C237.098 155.362 237.256 155.456 237.361 155.599C237.467 155.742 237.511 155.921 237.485 156.096L235.443 169.485C235.44 169.504 235.437 169.524 235.432 169.543C235.303 170.078 235.115 171.658 235.784 172.514C236.129 172.954 236.672 173.172 237.444 173.177C240.752 173.201 255.5 173.515 258.719 173.584L261.214 147.115C261.248 146.758 261.554 146.486 261.915 146.511L263.602 146.604C263.908 146.62 264.164 146.845 264.221 147.147L268.698 171.065C268.757 171.375 268.589 171.684 268.297 171.804L261.799 174.485C261.46 174.626 261.069 174.464 260.929 174.123C260.788 173.783 260.95 173.393 261.291 173.253L267.287 170.778L263.005 147.907L262.482 147.879L259.988 174.358C259.956 174.701 259.668 174.993 259.325 174.993Z" fill="#161616" />
    <path d="M268.043 171.856C267.978 171.856 267.911 171.846 267.845 171.825L259.657 169.272C259.305 169.163 259.109 168.789 259.218 168.437C259.328 168.086 259.702 167.89 260.053 167.999L268.242 170.552C268.593 170.661 268.79 171.035 268.68 171.387C268.591 171.673 268.328 171.856 268.043 171.856Z" fill="#161616" />
    <path d="M233.204 147.784C232.979 147.784 232.769 147.698 232.645 147.509C232.522 147.32 232.503 147.095 232.594 146.889L235.972 139.239C236.079 138.995 236.333 138.844 236.588 138.844L262.471 139.047C262.669 139.048 262.856 139.139 262.982 139.292C263.107 139.446 263.158 139.647 263.121 139.841L261.688 147.258C261.628 147.571 261.354 147.771 261.035 147.771L233.205 147.784C233.204 147.784 233.204 147.784 233.204 147.784ZM237.015 140.185L234.228 146.503L260.483 146.466L261.659 140.376L237.015 140.185Z" fill="#161616" />
    <path d="M261.967 147.183L263.565 147.27L262.465 139.716L261.967 147.183Z" fill="#161616" />
    <path d="M263.565 147.937C263.553 147.937 263.541 147.937 263.529 147.936L261.931 147.848C261.753 147.839 261.586 147.758 261.468 147.625C261.35 147.491 261.29 147.316 261.302 147.138L261.8 139.671C261.823 139.331 262.099 139.063 262.439 139.049C262.786 139.038 263.076 139.282 263.125 139.62L264.225 147.174C264.254 147.372 264.192 147.572 264.058 147.72C263.931 147.859 263.752 147.937 263.565 147.937ZM262.678 146.554L262.788 146.56L262.712 146.039L262.678 146.554Z" fill="#161616" />
    <path d="M246.657 168.147C246.625 168.147 246.594 168.145 246.562 168.141C246.205 168.09 245.953 167.765 245.993 167.407C246.001 167.333 246.785 159.984 244.201 156.763C243.971 156.475 244.017 156.056 244.304 155.825C244.592 155.595 245.011 155.641 245.242 155.928C246.716 157.767 247.242 160.616 247.396 163.036C248.235 161.278 249.516 159.534 251.399 158.989C251.753 158.886 252.122 159.09 252.225 159.444C252.327 159.798 252.123 160.168 251.77 160.27C250.09 160.757 248.976 162.675 248.337 164.198C247.608 165.937 247.316 167.579 247.313 167.596C247.256 167.918 246.975 168.147 246.657 168.147Z" fill="#946D42" />
    <path d="M240.465 150.691C240.465 150.691 240.548 162.768 245.952 158.945C249.831 156.201 242.986 151.174 240.465 150.691Z" fill="#946D42" />
    <path d="M249.831 160.502C249.806 160.605 254.25 163.132 255.821 157.335C255.821 157.335 251.209 154.73 249.831 160.502Z" fill="#946D42" />
    <path d="M235.281 145.116H234.48C234.112 145.116 233.814 144.818 233.814 144.449C233.814 144.081 234.112 143.782 234.48 143.782H235.281C235.649 143.782 235.948 144.081 235.948 144.449C235.948 144.818 235.649 145.116 235.281 145.116Z" fill="#161616" />
    <path d="M257.955 145.116H256.088C255.719 145.116 255.421 144.818 255.421 144.449C255.421 144.081 255.719 143.782 256.088 143.782H257.955C258.324 143.782 258.622 144.081 258.622 144.449C258.622 144.818 258.324 145.116 257.955 145.116ZM253.42 145.116H251.553C251.185 145.116 250.886 144.818 250.886 144.449C250.886 144.081 251.185 143.782 251.553 143.782H253.42C253.789 143.782 254.087 144.081 254.087 144.449C254.087 144.818 253.789 145.116 253.42 145.116ZM248.885 145.116H247.018C246.65 145.116 246.351 144.818 246.351 144.449C246.351 144.081 246.65 143.782 247.018 143.782H248.885C249.254 143.782 249.552 144.081 249.552 144.449C249.552 144.818 249.254 145.116 248.885 145.116ZM244.35 145.116H242.483C242.115 145.116 241.816 144.818 241.816 144.449C241.816 144.081 242.115 143.782 242.483 143.782H244.35C244.719 143.782 245.017 144.081 245.017 144.449C245.017 144.818 244.719 145.116 244.35 145.116ZM239.816 145.116H237.948C237.58 145.116 237.281 144.818 237.281 144.449C237.281 144.081 237.58 143.782 237.948 143.782H239.816C240.184 143.782 240.482 144.081 240.482 144.449C240.482 144.818 240.184 145.116 239.816 145.116Z" fill="#161616" />
    <path d="M261.69 145.116H260.623C260.254 145.116 259.956 144.818 259.956 144.449C259.956 144.081 260.254 143.782 260.623 143.782H261.69C262.058 143.782 262.357 144.081 262.357 144.449C262.357 144.818 262.058 145.116 261.69 145.116Z" fill="#161616" />
    <path d="M256.396 100.001L250.111 120.84C250.111 120.84 247.606 127.719 253.785 128.93C259.965 130.141 271.341 131.205 278.866 128.534C278.866 128.534 282.974 127.473 281.531 120.68C280.088 113.886 277.919 100.501 277.919 100.501C277.919 100.501 275.295 94.5769 266.671 94.2808C258.048 93.985 256.396 100.001 256.396 100.001Z" fill="#946D42" />
    <path d="M268.518 102.662C262.06 102.662 256.719 100.618 256.4 100.494C256.057 100.36 255.887 99.9732 256.021 99.6301C256.155 99.2868 256.542 99.1179 256.884 99.251C256.992 99.2932 267.802 103.421 276.955 99.8627C277.3 99.7291 277.685 99.8995 277.819 100.243C277.952 100.586 277.782 100.972 277.439 101.106C274.473 102.259 271.385 102.662 268.518 102.662Z" fill="#161616" />
    <path d="M271.357 96.1977C271.295 96.1977 271.231 96.1889 271.168 96.1702C270.815 96.0659 270.613 95.6949 270.718 95.3417C270.722 95.3275 271.178 93.6968 270.364 92.5063C269.841 91.7396 268.876 91.2864 267.496 91.1589C266.005 91.0223 264.916 91.2899 264.259 91.9571C263.408 92.8203 263.523 94.1311 263.525 94.1442C263.564 94.5105 263.299 94.8391 262.933 94.8786C262.568 94.9213 262.238 94.6532 262.199 94.2872C262.19 94.2085 262.006 92.3436 263.308 91.021C264.259 90.0548 265.712 89.6541 267.618 89.8307C269.419 89.9969 270.716 90.6475 271.473 91.7647C272.638 93.4832 272.023 95.6287 271.996 95.7194C271.911 96.0099 271.645 96.1977 271.357 96.1977Z" fill="#161616" />
    <path d="M281.532 121.347C281.347 121.347 281.164 121.271 281.032 121.121C280.788 120.846 280.814 120.424 281.09 120.18L289.626 112.633C289.656 112.605 289.69 112.581 289.725 112.56C289.816 112.504 292.012 111.134 291.48 108.621C290.979 106.252 288.158 106.742 288.038 106.764C287.993 106.772 287.945 106.775 287.902 106.775L278.835 106.564C278.467 106.556 278.175 106.25 278.184 105.882C278.192 105.514 278.494 105.221 278.866 105.231L287.868 105.44C289.345 105.193 292.181 105.491 292.785 108.345C293.36 111.063 291.551 112.994 290.466 113.671L281.974 121.18C281.846 121.292 281.689 121.347 281.532 121.347Z" fill="#161616" />
    <path d="M282.173 117.485C281.988 117.485 281.802 117.408 281.671 117.257C281.429 116.979 281.457 116.558 281.735 116.316L286.495 112.162C286.524 112.137 286.555 112.115 286.587 112.095C286.628 112.069 287.676 111.394 287.426 110.212C287.212 109.202 285.99 109.363 285.851 109.384C285.812 109.391 285.768 109.393 285.73 109.393L280.64 109.275C280.271 109.266 279.98 108.961 279.989 108.592C279.997 108.224 280.307 107.932 280.671 107.941L285.702 108.058C286.621 107.927 288.355 108.158 288.731 109.936C289.14 111.868 287.657 112.983 287.338 113.197L282.612 117.321C282.485 117.431 282.329 117.485 282.173 117.485Z" fill="#161616" />
    <path d="M250.111 121.507C249.856 121.507 249.613 121.359 249.502 121.112L240.39 100.702C240.255 100.401 240.362 100.046 240.64 99.8685L242.913 98.4168C243.166 98.2557 243.494 98.2826 243.717 98.4819L253.722 107.439C253.996 107.685 254.019 108.106 253.773 108.38C253.528 108.655 253.106 108.678 252.832 108.433L243.205 99.8133L241.842 100.683L250.72 120.568C250.87 120.904 250.719 121.299 250.383 121.449C250.294 121.488 250.202 121.507 250.111 121.507Z" fill="#161616" />
    <path d="M234.882 100.282C234.004 100.282 233.571 99.9243 233.363 99.6242C233.017 99.1243 232.862 98.1912 234.094 96.5861C234.905 95.5292 236.153 94.3915 237.609 93.3829C239.782 91.877 242.01 90.9418 243.425 90.9418C244.303 90.9418 244.736 91.2995 244.944 91.5996C246.005 93.1316 243.487 95.9091 240.698 97.8415C238.525 99.3471 236.296 100.282 234.882 100.282ZM243.424 92.2756C242.491 92.2756 240.565 92.9571 238.369 94.4792C237.024 95.4113 235.881 96.4477 235.152 97.3979C234.41 98.3648 234.425 98.8157 234.459 98.8645C234.471 98.8813 234.582 98.9485 234.882 98.9485C235.815 98.9485 237.741 98.2672 239.938 96.7448C243.018 94.6105 244.049 92.6504 243.847 92.3591C243.836 92.3428 243.724 92.2756 243.424 92.2756Z" fill="#161616" />
    <path d="M238.151 101.829C235.514 101.829 233.933 100.022 233.91 99.9946C233.671 99.714 233.705 99.2933 233.986 99.0546C234.266 98.8158 234.686 98.8494 234.926 99.1303C235.029 99.2496 237.557 102.074 241.66 99.2298C245.813 96.3518 243.886 92.4475 243.801 92.2826C243.634 91.9545 243.764 91.5531 244.092 91.3855C244.421 91.2183 244.822 91.3485 244.989 91.6766C245.885 93.4318 246.5 97.4983 242.42 100.326C240.806 101.444 239.366 101.828 238.151 101.829Z" fill="#161616" />
    <path d="M277.197 119.552C276.879 119.552 276.598 119.325 276.541 119.001L274.015 104.698C273.951 104.336 274.193 103.99 274.556 103.926C274.918 103.862 275.265 104.104 275.329 104.466L277.854 118.769C277.918 119.132 277.676 119.478 277.313 119.542C277.274 119.549 277.235 119.552 277.197 119.552Z" fill="#DEE5DC" />
    <path d="M278.406 124.976C278.097 124.976 277.82 124.76 277.754 124.445L277.345 122.489C277.27 122.129 277.501 121.775 277.861 121.7C278.223 121.626 278.575 121.856 278.651 122.216L279.06 124.173C279.135 124.533 278.904 124.886 278.543 124.962C278.497 124.971 278.451 124.976 278.406 124.976Z" fill="#DEE5DC" />
    <path d="M301.097 235.592C300.796 235.592 300.531 235.389 300.453 235.096L286.831 183.72C286.78 183.524 286.82 183.314 286.941 183.151C287.062 182.989 287.251 182.89 287.454 182.883L324.978 181.618C325.286 181.602 325.565 181.813 325.645 182.114L339.161 233.198C339.212 233.393 339.173 233.602 339.053 233.764C338.933 233.927 338.746 234.026 338.544 234.035L301.125 235.591C301.116 235.591 301.107 235.592 301.097 235.592ZM288.335 184.188L301.605 234.236L337.659 232.737L324.491 182.969L288.335 184.188Z" fill="#161616" />
    <path d="M295.834 246.706C295.532 246.706 295.266 246.502 295.189 246.207L283.811 202.549C283.788 202.459 283.784 202.365 283.798 202.274L286.817 183.611C286.876 183.248 287.218 182.999 287.582 183.06C287.946 183.118 288.193 183.461 288.134 183.824L285.137 202.348L296.345 245.353L332.492 244.035L337.918 233.073C338.081 232.743 338.481 232.607 338.812 232.771C339.142 232.934 339.277 233.334 339.114 233.665L333.512 244.983C333.403 245.202 333.183 245.344 332.938 245.353L295.859 246.706C295.851 246.706 295.842 246.706 295.834 246.706Z" fill="#161616" />
    <path d="M295.834 246.706C295.738 246.706 295.641 246.685 295.549 246.642C295.216 246.484 295.074 246.086 295.232 245.753L300.495 234.639C300.653 234.306 301.05 234.165 301.383 234.322C301.716 234.48 301.858 234.877 301.7 235.21L296.437 246.325C296.323 246.565 296.084 246.706 295.834 246.706Z" fill="#161616" />
    <path d="M300.992 199.02C305.166 199.02 308.55 196.194 308.55 192.707C308.55 189.221 305.166 186.394 300.992 186.394C296.817 186.394 293.434 189.221 293.434 192.707C293.434 196.194 296.817 199.02 300.992 199.02Z" fill="#161616" />
    <path d="M318.331 199.02C322.505 199.02 325.889 196.194 325.889 192.707C325.889 189.221 322.505 186.394 318.331 186.394C314.157 186.394 310.773 189.221 310.773 192.707C310.773 196.194 314.157 199.02 318.331 199.02Z" fill="#161616" />
    <path d="M305.26 213.692C309.434 213.692 312.818 210.866 312.818 207.379C312.818 203.892 309.434 201.066 305.26 201.066C301.086 201.066 297.702 203.892 297.702 207.379C297.702 210.866 301.086 213.692 305.26 213.692Z" fill="#161616" />
    <path d="M322.599 213.692C326.773 213.692 330.157 210.866 330.157 207.379C330.157 203.892 326.773 201.066 322.599 201.066C318.425 201.066 315.041 203.892 315.041 207.379C315.041 210.866 318.425 213.692 322.599 213.692Z" fill="#161616" />
    <path d="M308.461 229.431C312.635 229.431 316.019 226.604 316.019 223.118C316.019 219.631 312.635 216.804 308.461 216.804C304.287 216.804 300.903 219.631 300.903 223.118C300.903 226.604 304.287 229.431 308.461 229.431Z" fill="#161616" />
    <path d="M325.8 229.431C329.974 229.431 333.358 226.604 333.358 223.118C333.358 219.631 329.974 216.804 325.8 216.804C321.626 216.804 318.242 219.631 318.242 223.118C318.242 226.604 321.626 229.431 325.8 229.431Z" fill="#161616" />
    <path d="M298.321 183.718C298.321 183.718 290.767 185.219 286.854 178.016C286.854 178.016 297.695 173.947 298.321 183.718Z" fill="#8DC73F" />
    <path d="M302.592 180.951C302.592 180.951 295.478 177.572 302.504 167.257C302.504 167.257 309.794 176.772 302.592 180.951Z" fill="#8DC73F" />
    <path d="M300.991 193.374C300.664 193.374 300.378 193.133 300.331 192.8C299.835 189.274 297.641 180.187 293.488 180.532C293.12 180.559 292.799 180.288 292.769 179.921C292.739 179.554 293.013 179.232 293.38 179.202C299.632 178.702 301.572 192.046 301.652 192.615C301.704 192.979 301.449 193.316 301.085 193.368C301.053 193.372 301.022 193.374 300.991 193.374Z" fill="#161616" />
    <path d="M302.592 193.4C302.225 193.4 301.927 193.09 301.926 192.723L301.837 172.402C301.835 172.033 302.132 171.792 302.501 171.792H302.504C302.871 171.792 303.169 172.022 303.17 172.389L303.259 192.75C303.261 193.119 302.964 193.4 302.595 193.4C302.595 193.4 302.593 193.4 302.592 193.4Z" fill="#161616" />
    <path d="M300.992 193.4C300.627 193.4 300.33 193.094 300.325 192.729C300.324 192.698 300.282 190.989 299.268 188.033C299.148 187.684 299.334 187.302 299.682 187.182C300.032 187.063 300.41 187.247 300.53 187.595C301.626 190.793 301.658 192.637 301.659 192.713C301.663 193.082 301.367 193.4 300.999 193.4C300.997 193.4 300.994 193.4 300.992 193.4Z" fill="#EAEFE8" />
    <path d="M302.592 193.4C302.23 193.4 301.932 193.096 301.925 192.732L301.837 187.889C301.83 187.521 302.123 187.264 302.492 187.264C302.496 187.264 302.5 187.264 302.504 187.264C302.866 187.264 303.164 187.494 303.17 187.859L303.259 192.738C303.266 193.106 302.973 193.4 302.604 193.4C302.6 193.4 302.596 193.4 302.592 193.4Z" fill="#EAEFE8" />
    <path d="M316.194 183.718C316.194 183.718 308.639 185.219 304.727 178.016C304.727 178.016 315.568 173.947 316.194 183.718Z" fill="#8DC73F" />
    <path d="M320.465 180.951C320.465 180.951 313.351 177.572 320.376 167.257C320.376 167.257 327.667 176.772 320.465 180.951Z" fill="#8DC73F" />
    <path d="M318.864 193.374C318.536 193.374 318.251 193.133 318.204 192.8C317.707 189.274 315.505 180.187 311.36 180.532C310.992 180.559 310.671 180.288 310.642 179.921C310.612 179.554 310.885 179.232 311.252 179.202C311.369 179.193 311.484 179.188 311.597 179.188C317.571 179.188 319.446 192.056 319.525 192.614C319.576 192.979 319.322 193.316 318.957 193.367C318.926 193.372 318.894 193.374 318.864 193.374Z" fill="#161616" />
    <path d="M320.465 193.4C320.098 193.4 319.8 193.09 319.798 192.723L319.709 172.402C319.708 172.033 320.005 171.792 320.373 171.792H320.376C320.743 171.792 321.041 172.022 321.043 172.389L321.132 192.75C321.133 193.119 320.836 193.4 320.468 193.4C320.468 193.4 320.466 193.4 320.465 193.4Z" fill="#161616" />
    <path d="M318.864 193.4C318.5 193.4 318.203 193.094 318.198 192.729C318.197 192.698 318.154 190.989 317.14 188.033C317.021 187.684 317.206 187.302 317.555 187.182C317.904 187.063 318.283 187.247 318.402 187.595C319.499 190.793 319.531 192.637 319.531 192.713C319.535 193.082 319.24 193.4 318.872 193.4C318.869 193.4 318.867 193.4 318.864 193.4Z" fill="#EAEFE8" />
    <path d="M320.465 193.4C320.102 193.4 319.805 193.096 319.798 192.732L319.709 187.889C319.703 187.521 319.996 187.264 320.364 187.264C320.368 187.264 320.372 187.264 320.376 187.264C320.739 187.264 321.036 187.494 321.043 187.859L321.132 192.738C321.138 193.106 320.845 193.4 320.477 193.4C320.473 193.4 320.469 193.4 320.465 193.4Z" fill="#EAEFE8" />
    <path d="M301.522 199.99C301.522 199.99 293.967 201.491 290.055 194.289C290.055 194.289 300.896 190.219 301.522 199.99Z" fill="#8DC73F" />
    <path d="M305.793 197.223C305.793 197.223 298.679 193.844 305.704 183.53C305.704 183.53 312.995 193.044 305.793 197.223Z" fill="#8DC73F" />
    <path d="M304.192 209.646C303.864 209.646 303.579 209.405 303.532 209.072C303.036 205.546 300.832 196.462 296.688 196.804C296.322 196.83 296 196.561 295.97 196.193C295.94 195.826 296.214 195.505 296.581 195.475C302.837 194.967 304.773 208.318 304.853 208.887C304.904 209.252 304.65 209.589 304.285 209.64C304.254 209.644 304.222 209.646 304.192 209.646Z" fill="#161616" />
    <path d="M305.793 209.672C305.426 209.672 305.128 209.363 305.126 208.995L305.037 188.674C305.036 188.306 305.333 188.065 305.701 188.065H305.704C306.071 188.065 306.37 188.295 306.371 188.662L306.46 209.023C306.462 209.391 306.165 209.672 305.796 209.672C305.796 209.672 305.794 209.672 305.793 209.672Z" fill="#161616" />
    <path d="M304.192 209.672C303.828 209.672 303.531 209.366 303.526 209.001C303.525 208.97 303.482 207.262 302.468 204.305C302.349 203.957 302.534 203.574 302.883 203.455C303.232 203.336 303.611 203.519 303.73 203.868C304.827 207.066 304.859 208.909 304.859 208.986C304.863 209.354 304.568 209.672 304.2 209.672C304.197 209.672 304.195 209.672 304.192 209.672Z" fill="#EAEFE8" />
    <path d="M305.793 209.672C305.43 209.672 305.133 209.368 305.126 209.004L305.037 204.161C305.031 203.793 305.324 203.536 305.692 203.536C305.696 203.536 305.7 203.536 305.704 203.536C306.067 203.536 306.364 203.767 306.371 204.131L306.46 209.011C306.466 209.379 306.173 209.672 305.805 209.672C305.801 209.672 305.797 209.672 305.793 209.672Z" fill="#EAEFE8" />
    <path d="M319.395 199.99C319.395 199.99 311.84 201.491 307.928 194.289C307.928 194.289 318.769 190.219 319.395 199.99Z" fill="#8DC73F" />
    <path d="M323.666 197.223C323.666 197.223 316.552 193.844 323.577 183.53C323.577 183.53 330.868 193.044 323.666 197.223Z" fill="#8DC73F" />
    <path d="M322.065 209.646C321.737 209.646 321.452 209.405 321.405 209.072C320.908 205.546 318.711 196.462 314.561 196.804C314.194 196.83 313.872 196.561 313.843 196.193C313.813 195.826 314.086 195.505 314.453 195.475C320.706 194.967 322.646 208.318 322.726 208.887C322.777 209.252 322.523 209.589 322.158 209.64C322.127 209.644 322.095 209.646 322.065 209.646Z" fill="#161616" />
    <path d="M323.666 209.672C323.299 209.672 323.001 209.362 322.999 208.995L322.91 188.674C322.909 188.306 323.206 188.064 323.574 188.064H323.577C323.944 188.064 324.242 188.294 324.244 188.662L324.333 209.023C324.335 209.391 324.037 209.672 323.669 209.672C323.669 209.672 323.667 209.672 323.666 209.672Z" fill="#161616" />
    <path d="M322.065 209.672C321.701 209.672 321.404 209.366 321.399 209.001C321.398 208.97 321.355 207.261 320.341 204.305C320.222 203.957 320.407 203.574 320.756 203.455C321.105 203.336 321.484 203.519 321.603 203.868C322.699 207.065 322.731 208.909 322.732 208.986C322.736 209.354 322.441 209.672 322.073 209.672C322.07 209.672 322.068 209.672 322.065 209.672Z" fill="#EAEFE8" />
    <path d="M323.666 209.672C323.303 209.672 323.006 209.368 322.999 209.004L322.91 204.161C322.904 203.793 323.197 203.536 323.565 203.536C323.569 203.536 323.573 203.536 323.577 203.536C323.94 203.536 324.237 203.767 324.244 204.131L324.333 209.011C324.339 209.379 324.046 209.672 323.678 209.672C323.674 209.672 323.67 209.672 323.666 209.672Z" fill="#EAEFE8" />
    <path d="M305.523 215.195C305.523 215.195 297.969 216.696 294.056 209.494C294.056 209.494 304.897 205.424 305.523 215.195Z" fill="#8DC73F" />
    <path d="M309.795 212.428C309.795 212.428 302.681 209.049 309.706 198.735C309.706 198.735 316.996 208.249 309.795 212.428Z" fill="#8DC73F" />
    <path d="M308.193 224.851C307.866 224.851 307.58 224.61 307.534 224.277C307.037 220.751 304.84 211.664 300.69 212.009C300.326 212.036 300.001 211.766 299.971 211.398C299.942 211.031 300.215 210.71 300.582 210.68C300.698 210.67 300.813 210.666 300.926 210.666C306.901 210.666 308.776 223.534 308.855 224.092C308.906 224.457 308.652 224.794 308.287 224.845C308.255 224.849 308.224 224.851 308.193 224.851Z" fill="#161616" />
    <path d="M309.795 224.877C309.428 224.877 309.129 224.567 309.128 224.2L309.039 203.879C309.037 203.511 309.335 203.27 309.703 203.27H309.706C310.073 203.27 310.371 203.499 310.373 203.867L310.462 224.228C310.463 224.596 310.166 224.877 309.798 224.877C309.798 224.877 309.796 224.877 309.795 224.877Z" fill="#161616" />
    <path d="M308.194 224.877C307.829 224.877 307.532 224.571 307.527 224.206C307.527 224.175 307.484 222.467 306.47 219.51C306.35 219.162 306.536 218.779 306.885 218.66C307.233 218.541 307.612 218.724 307.732 219.073C308.828 222.27 308.86 224.114 308.861 224.191C308.865 224.559 308.569 224.877 308.201 224.877C308.199 224.877 308.196 224.877 308.194 224.877Z" fill="#EAEFE8" />
    <path d="M309.794 224.877C309.432 224.877 309.134 224.573 309.128 224.209L309.039 219.366C309.032 218.998 309.325 218.741 309.694 218.741C309.698 218.741 309.702 218.741 309.706 218.741C310.068 218.741 310.366 218.972 310.373 219.336L310.461 224.216C310.468 224.584 310.175 224.877 309.807 224.877C309.803 224.877 309.799 224.877 309.794 224.877Z" fill="#EAEFE8" />
    <path d="M323.396 215.195C323.396 215.195 315.841 216.696 311.929 209.494C311.929 209.494 322.77 205.424 323.396 215.195Z" fill="#8DC73F" />
    <path d="M327.667 212.428C327.667 212.428 320.553 209.049 327.579 198.735C327.579 198.735 334.869 208.249 327.667 212.428Z" fill="#8DC73F" />
    <path d="M326.066 224.851C325.739 224.851 325.453 224.61 325.406 224.277C324.91 220.751 322.704 211.664 318.563 212.009C318.198 212.036 317.874 211.766 317.844 211.398C317.814 211.031 318.088 210.71 318.455 210.68C324.712 210.178 326.648 223.523 326.727 224.092C326.779 224.457 326.524 224.794 326.16 224.845C326.128 224.849 326.097 224.851 326.066 224.851Z" fill="#161616" />
    <path d="M327.667 224.877C327.3 224.877 327.002 224.568 327.001 224.2L326.912 203.812C326.91 203.444 327.207 203.141 327.576 203.139C327.956 203.133 328.244 203.434 328.246 203.802L328.334 224.195C328.336 224.564 328.039 224.877 327.67 224.877C327.67 224.877 327.669 224.877 327.667 224.877Z" fill="#161616" />
    <path d="M326.067 224.877C325.702 224.877 325.405 224.571 325.4 224.206C325.399 224.175 325.356 222.467 324.343 219.51C324.223 219.162 324.409 218.779 324.757 218.66C325.107 218.541 325.485 218.724 325.605 219.073C326.701 222.27 326.733 224.114 326.734 224.191C326.738 224.559 326.442 224.877 326.074 224.877C326.072 224.877 326.069 224.877 326.067 224.877Z" fill="#EAEFE8" />
    <path d="M327.667 224.877C327.305 224.877 327.007 224.573 327 224.209L326.912 219.366C326.905 218.998 327.198 218.741 327.566 218.741C327.57 218.741 327.574 218.741 327.579 218.741C327.941 218.741 328.239 218.972 328.245 219.336L328.334 224.216C328.341 224.584 328.048 224.877 327.679 224.877C327.675 224.877 327.671 224.877 327.667 224.877Z" fill="#EAEFE8" />
    <path d="M123.331 169.836L117.55 173.215C117.55 173.215 116.217 175.171 115.862 177.127C115.506 179.084 114.261 184.359 114.261 184.359L118.796 189.398L141.826 187.797C141.826 187.797 148.095 180.252 147.273 175.31L129.555 176.772L123.331 169.836Z" fill="white" />
    <path d="M118.796 190.065C118.608 190.065 118.427 189.985 118.301 189.844L113.766 184.805C113.619 184.643 113.562 184.419 113.612 184.206C113.625 184.153 114.857 178.925 115.206 177.008C115.583 174.936 116.942 172.924 117 172.839C117.056 172.757 117.129 172.689 117.214 172.639L122.995 169.26C123.268 169.1 123.617 169.155 123.828 169.39L129.831 176.08L147.218 174.646C147.562 174.615 147.874 174.859 147.931 175.201C148.793 180.384 142.604 187.906 142.34 188.223C142.223 188.363 142.055 188.45 141.873 188.462L118.843 190.063C118.827 190.064 118.812 190.065 118.796 190.065ZM114.99 184.172L119.074 188.71L141.489 187.152C142.435 185.958 146.85 180.151 146.677 176.029L129.61 177.436C129.403 177.454 129.198 177.372 129.059 177.217L123.198 170.686L118.023 173.711C117.742 174.151 116.795 175.721 116.518 177.247C116.212 178.931 115.273 182.965 114.99 184.172Z" fill="#161616" />
    <path d="M136.135 121.422L142.716 115.617C142.716 115.617 143.604 112.163 139.425 112.634L133.112 118.861L121.043 170.547C121.043 170.547 119.596 174.875 122.62 175.289C125.643 175.704 125.11 169.836 125.11 169.836L136.135 121.422Z" fill="#DEE5DC" />
    <path d="M122.917 175.977C122.791 175.977 122.66 175.968 122.529 175.95C121.644 175.829 120.953 175.404 120.529 174.722C119.557 173.158 120.271 170.764 120.4 170.367L132.463 118.709C132.492 118.586 132.555 118.474 132.644 118.386L138.957 112.159C139.064 112.054 139.202 111.988 139.351 111.971C141.01 111.784 142.197 112.142 142.88 113.024C143.765 114.165 143.379 115.718 143.362 115.784C143.329 115.913 143.257 116.029 143.157 116.118L136.738 121.779L125.783 169.884C125.837 170.594 125.992 173.745 124.655 175.209C124.195 175.711 123.595 175.977 122.917 175.977ZM133.718 119.2L121.692 170.699C121.687 170.719 121.682 170.739 121.675 170.759C121.478 171.354 121.091 173.102 121.663 174.02C121.877 174.362 122.219 174.562 122.711 174.629C122.782 174.639 122.852 174.644 122.917 174.644H122.918C123.223 174.644 123.462 174.538 123.67 174.31C124.544 173.353 124.522 170.737 124.446 169.897C124.439 169.827 124.444 169.757 124.46 169.688L135.485 121.274C135.516 121.137 135.59 121.014 135.695 120.922L142.102 115.27C142.146 114.954 142.181 114.295 141.822 113.837C141.468 113.385 140.759 113.194 139.726 113.275L133.718 119.2Z" fill="#161616" />
    <path d="M141.827 188.464C141.804 188.464 141.781 188.463 141.758 188.461L122.907 186.524C122.723 186.505 122.555 186.41 122.443 186.262L120.165 183.249C120.072 183.126 120.025 182.975 120.03 182.821L120.369 174.239C120.383 173.871 120.689 173.589 121.061 173.599C121.43 173.614 121.716 173.924 121.701 174.292L121.373 182.635L123.333 185.227L141.895 187.134C142.261 187.172 142.527 187.499 142.49 187.866C142.454 188.209 142.165 188.464 141.827 188.464Z" fill="#161616" />
    <path d="M107.103 139.648C106.735 139.648 106.436 139.349 106.436 138.981V135.513C106.436 135.145 106.735 134.846 107.103 134.846C107.472 134.846 107.77 135.145 107.77 135.513V138.981C107.77 139.349 107.472 139.648 107.103 139.648Z" fill="#161616" />
    <path d="M104.745 140.556C104.467 140.556 104.207 140.381 104.113 140.103L103.206 137.426C103.088 137.077 103.274 136.698 103.623 136.58C103.972 136.461 104.351 136.649 104.469 136.997L105.376 139.674C105.494 140.023 105.308 140.402 104.959 140.52C104.888 140.544 104.816 140.556 104.745 140.556Z" fill="#161616" />
    <path d="M101.513 140.555C101.355 140.555 101.197 140.499 101.07 140.386L99.5657 139.048C99.2907 138.803 99.2662 138.381 99.511 138.106C99.7554 137.831 100.177 137.807 100.452 138.052L101.956 139.39C102.231 139.635 102.256 140.057 102.011 140.332C101.88 140.48 101.696 140.555 101.513 140.555Z" fill="#161616" />
    <path d="M319.964 125.449C319.911 125.449 319.858 125.443 319.804 125.43C319.446 125.342 319.228 124.98 319.316 124.623L320.119 121.369C320.207 121.011 320.568 120.792 320.926 120.881C321.284 120.969 321.502 121.33 321.414 121.688L320.611 124.942C320.536 125.246 320.264 125.449 319.964 125.449Z" fill="#161616" />
    <path d="M317.786 125.06C317.492 125.06 317.223 124.865 317.143 124.568L316.569 122.453C316.473 122.097 316.683 121.731 317.039 121.634C317.393 121.539 317.76 121.748 317.857 122.104L318.43 124.219C318.526 124.575 318.317 124.941 317.961 125.037C317.903 125.053 317.844 125.06 317.786 125.06Z" fill="#161616" />
    <path d="M38.1465 67.2753C38.1465 67.2753 132.572 54.8627 153.978 56.4726C153.978 56.4726 87.4967 36.7083 38.1465 37.5085V67.2753Z" fill="#8DC73F" />
    <path d="M26.1414 70.8859C25.8152 70.8859 25.5303 70.6466 25.482 70.3142C25.4295 69.9495 25.6823 69.6116 26.0467 69.5587C27.11 69.4051 132.661 54.2108 153.895 55.8076C154.262 55.8354 154.537 56.1555 154.51 56.5228C154.482 56.8901 154.159 57.1625 153.795 57.138C132.701 55.5481 27.2997 70.7255 26.2375 70.8789C26.2052 70.8835 26.1732 70.8859 26.1414 70.8859Z" fill="#161616" />
    <path d="M31.7433 57.4775C31.4133 57.4775 31.1266 57.2327 31.0825 56.8965C31.0351 56.5313 31.2927 56.2585 31.6579 56.2112C32.2942 56.1283 95.5769 47.7497 120.683 47.4829C120.688 47.4829 120.692 47.4829 120.697 47.4829C121.059 47.4829 121.356 47.7107 121.363 48.0743C121.371 48.4424 121.078 48.7164 120.71 48.7236C95.6759 49.2312 32.4654 57.4047 31.8297 57.4874C31.8009 57.4911 31.7718 57.4775 31.7433 57.4775Z" fill="#161616" />
    <path d="M38.4123 46.5783C38.0898 46.5783 37.8062 46.3438 37.7542 46.0149C37.6968 45.6511 37.9455 45.3096 38.3093 45.2525C38.6086 45.2053 68.3954 40.5341 81.5519 40.0905C81.9069 40.0798 82.2286 40.3663 82.2409 40.7345C82.2532 41.1026 81.9648 41.4112 81.5967 41.4235C68.5218 41.8642 38.8154 46.5231 38.5169 46.5701C38.4817 46.5757 38.4467 46.5783 38.4123 46.5783Z" fill="#161616" />
    <path d="M119.101 54.9479C119.443 54.9479 119.72 54.6707 119.72 54.3287C119.72 53.9868 119.443 53.7096 119.101 53.7096C118.759 53.7096 118.482 53.9868 118.482 54.3287C118.482 54.6707 118.759 54.9479 119.101 54.9479Z" fill="#161616" />
    <path d="M122.035 54.9479C122.377 54.9479 122.655 54.6707 122.655 54.3287C122.655 53.9868 122.377 53.7096 122.035 53.7096C121.693 53.7096 121.416 53.9868 121.416 54.3287C121.416 54.6707 121.693 54.9479 122.035 54.9479Z" fill="#161616" />
    <path d="M120.435 52.2803C120.777 52.2803 121.054 52.0031 121.054 51.6611C121.054 51.3192 120.777 51.042 120.435 51.042C120.093 51.042 119.816 51.3192 119.816 51.6611C119.816 52.0031 120.093 52.2803 120.435 52.2803Z" fill="#161616" />
    <path d="M98.294 56.2816C98.6359 56.2816 98.9131 56.0044 98.9131 55.6625C98.9131 55.3205 98.6359 55.0433 98.294 55.0433C97.952 55.0433 97.6748 55.3205 97.6748 55.6625C97.6748 56.0044 97.952 56.2816 98.294 56.2816Z" fill="#161616" />
    <path d="M101.228 56.2816C101.57 56.2816 101.847 56.0044 101.847 55.6625C101.847 55.3205 101.57 55.0433 101.228 55.0433C100.886 55.0433 100.609 55.3205 100.609 55.6625C100.609 56.0044 100.886 56.2816 101.228 56.2816Z" fill="#161616" />
    <path d="M99.6278 53.614C99.9698 53.614 100.247 53.3368 100.247 52.9949C100.247 52.6529 99.9698 52.3757 99.6278 52.3757C99.2859 52.3757 99.0087 52.6529 99.0087 52.9949C99.0087 53.3368 99.2859 53.614 99.6278 53.614Z" fill="#161616" />
    <path d="M73.7522 58.9492C74.0942 58.9492 74.3713 58.672 74.3713 58.3301C74.3713 57.9881 74.0942 57.7109 73.7522 57.7109C73.4103 57.7109 73.1331 57.9881 73.1331 58.3301C73.1331 58.672 73.4103 58.9492 73.7522 58.9492Z" fill="#161616" />
    <path d="M76.6865 58.9492C77.0285 58.9492 77.3057 58.672 77.3057 58.3301C77.3057 57.9881 77.0285 57.7109 76.6865 57.7109C76.3446 57.7109 76.0674 57.9881 76.0674 58.3301C76.0674 58.672 76.3446 58.9492 76.6865 58.9492Z" fill="#161616" />
    <path d="M75.0861 56.2815C75.428 56.2815 75.7052 56.0043 75.7052 55.6624C75.7052 55.3204 75.428 55.0432 75.0861 55.0432C74.7441 55.0432 74.4669 55.3204 74.4669 55.6624C74.4669 56.0043 74.7441 56.2815 75.0861 56.2815Z" fill="#161616" />
    <path d="M44.9424 62.1504C45.2843 62.1504 45.5615 61.8732 45.5615 61.5313C45.5615 61.1893 45.2843 60.9121 44.9424 60.9121C44.6004 60.9121 44.3232 61.1893 44.3232 61.5313C44.3232 61.8732 44.6004 62.1504 44.9424 62.1504Z" fill="#161616" />
    <path d="M47.8766 62.1504C48.2185 62.1504 48.4957 61.8732 48.4957 61.5313C48.4957 61.1893 48.2185 60.9121 47.8766 60.9121C47.5346 60.9121 47.2574 61.1893 47.2574 61.5313C47.2574 61.8732 47.5346 62.1504 47.8766 62.1504Z" fill="#161616" />
    <path d="M46.2761 59.4828C46.6181 59.4828 46.8953 59.2056 46.8953 58.8637C46.8953 58.5217 46.6181 58.2445 46.2761 58.2445C45.9342 58.2445 45.657 58.5217 45.657 58.8637C45.657 59.2056 45.9342 59.4828 46.2761 59.4828Z" fill="#161616" />
    <path d="M56.4128 49.8795C56.7548 49.8795 57.032 49.6023 57.032 49.2604C57.032 48.9184 56.7548 48.6412 56.4128 48.6412C56.0709 48.6412 55.7937 48.9184 55.7937 49.2604C55.7937 49.6023 56.0709 49.8795 56.4128 49.8795Z" fill="#161616" />
    <path d="M59.3472 49.8795C59.6891 49.8795 59.9663 49.6023 59.9663 49.2604C59.9663 48.9184 59.6891 48.6412 59.3472 48.6412C59.0052 48.6412 58.728 48.9184 58.728 49.2604C58.728 49.6023 59.0052 49.8795 59.3472 49.8795Z" fill="#161616" />
    <path d="M57.7467 47.2119C58.0887 47.2119 58.3659 46.9347 58.3659 46.5928C58.3659 46.2508 58.0887 45.9736 57.7467 45.9736C57.4048 45.9736 57.1276 46.2508 57.1276 46.5928C57.1276 46.9347 57.4048 47.2119 57.7467 47.2119Z" fill="#161616" />
    <path d="M80.1543 47.7454C80.4963 47.7454 80.7734 47.4682 80.7734 47.1262C80.7734 46.7843 80.4963 46.5071 80.1543 46.5071C79.8124 46.5071 79.5352 46.7843 79.5352 47.1262C79.5352 47.4682 79.8124 47.7454 80.1543 47.7454Z" fill="#161616" />
    <path d="M83.0886 47.7454C83.4306 47.7454 83.7078 47.4682 83.7078 47.1262C83.7078 46.7843 83.4306 46.5071 83.0886 46.5071C82.7467 46.5071 82.4695 46.7843 82.4695 47.1262C82.4695 47.4682 82.7467 47.7454 83.0886 47.7454Z" fill="#161616" />
    <path d="M81.4882 45.0778C81.8301 45.0778 82.1073 44.8006 82.1073 44.4586C82.1073 44.1167 81.8301 43.8395 81.4882 43.8395C81.1462 43.8395 80.869 44.1167 80.869 44.4586C80.869 44.8006 81.1462 45.0778 81.4882 45.0778Z" fill="#161616" />
    <path d="M42.8084 42.677C43.1503 42.677 43.4275 42.3998 43.4275 42.0579C43.4275 41.7159 43.1503 41.4387 42.8084 41.4387C42.4664 41.4387 42.1892 41.7159 42.1892 42.0579C42.1892 42.3998 42.4664 42.677 42.8084 42.677Z" fill="#161616" />
    <path d="M45.7427 42.677C46.0846 42.677 46.3618 42.3998 46.3618 42.0579C46.3618 41.7159 46.0846 41.4387 45.7427 41.4387C45.4007 41.4387 45.1235 41.7159 45.1235 42.0579C45.1235 42.3998 45.4007 42.677 45.7427 42.677Z" fill="#161616" />
    <path d="M44.1421 40.0094C44.484 40.0094 44.7612 39.7322 44.7612 39.3903C44.7612 39.0483 44.484 38.7711 44.1421 38.7711C43.8001 38.7711 43.5229 39.0483 43.5229 39.3903C43.5229 39.7322 43.8001 40.0094 44.1421 40.0094Z" fill="#161616" />
    <path d="M295.934 136.968C295.934 136.968 295.128 132.576 295.763 130.731C295.763 130.731 299.502 134.74 299.696 138.004L295.934 136.968Z" fill="#946D42" />
    <path d="M334.953 149.65C334.953 149.65 346.303 153.492 343.31 159.941C340.318 166.389 317.775 165.392 312.987 166.189C312.987 166.189 316.778 158.852 321.765 158.631C326.752 158.409 328.4 159.5 328.4 159.5L327.151 157.199C327.151 157.199 332.58 156.632 334.952 157.92C337.325 159.207 337.546 154.228 334.344 152.528L334.953 149.65Z" fill="#161616" />
    <path d="M307.833 152.528C307.833 152.528 312.412 153.623 310.819 156.664C309.225 159.706 298.851 160.548 297.854 159.528C296.857 158.509 300.456 152.931 307.833 152.528Z" fill="#161616" />
    <path d="M300.318 160.608C297.977 160.608 297.541 160.162 297.378 159.995C297.138 159.749 296.8 159.169 297.237 158.046C298.098 155.831 301.728 152.194 307.797 151.862C307.861 151.858 307.926 151.865 307.988 151.879C308.273 151.947 310.788 152.594 311.586 154.351C311.84 154.909 312.015 155.817 311.41 156.974C309.971 159.719 303.315 160.608 300.318 160.608ZM298.357 159.065C298.543 159.141 299.116 159.274 300.318 159.274C303.817 159.274 309.281 158.163 310.228 156.355C310.518 155.802 310.565 155.327 310.372 154.904C309.941 153.954 308.426 153.376 307.769 153.2C303.33 153.474 300.254 155.761 298.963 157.647C298.428 158.429 298.349 158.907 298.357 159.065Z" fill="#DEE5DC" />
    <path d="M304.553 140.832C304.553 140.832 319.631 130.857 326.644 132.885C338.961 136.448 334.002 153.386 333.786 155.787H306.295L304.553 140.832Z" fill="#161616" />
    <path d="M333.786 156.32H306.295C305.957 156.32 305.672 156.067 305.633 155.731L303.89 140.843C303.861 140.593 303.975 140.348 304.184 140.209C304.699 139.868 316.871 131.847 324.522 131.847C325.371 131.847 326.147 131.947 326.83 132.145C338.259 135.45 335.568 149.672 334.684 154.345C334.566 154.967 334.473 155.459 334.451 155.713C334.42 156.057 334.131 156.32 333.786 156.32ZM306.889 154.986H333.209C333.253 154.737 333.309 154.441 333.374 154.097C334.29 149.256 336.723 136.395 326.459 133.426C325.897 133.264 325.245 133.181 324.521 133.181C317.954 133.181 307.3 139.795 305.263 141.099L306.889 154.986Z" fill="#DEE5DC" />
    <path d="M290.294 152.955C290.294 152.955 303.31 156.689 306.702 156.702C310.094 156.715 314.582 158.631 314.582 153.722L313.969 151.491C313.969 151.491 307.002 148.706 306.752 144.93C306.503 141.154 302.271 138.24 295.934 136.968C282.559 134.284 281.976 150.74 290.294 152.955Z" fill="#161616" />
    <path d="M311.335 157.748C310.576 157.748 309.755 157.65 308.961 157.556C308.197 157.465 307.407 157.371 306.7 157.369C303.255 157.355 290.645 153.75 290.111 153.596C285.601 152.395 283.712 147.54 284.23 143.583C284.709 139.92 287.301 136.006 293.138 136.006C294.062 136.006 295.047 136.11 296.065 136.314C302.91 137.688 307.155 140.892 307.418 144.886C307.6 147.639 312.388 150.14 314.217 150.871C314.411 150.949 314.557 151.113 314.613 151.314L315.226 153.545C315.242 153.603 315.25 153.662 315.25 153.722C315.25 155.218 314.867 156.271 314.08 156.941C313.434 157.491 312.562 157.748 311.335 157.748ZM293.138 137.34C288.164 137.34 285.958 140.655 285.552 143.757C285.108 147.151 286.679 151.302 290.466 152.311C290.608 152.351 303.444 156.022 306.705 156.035C307.489 156.038 308.317 156.136 309.118 156.231C309.909 156.325 310.655 156.414 311.335 156.414C312.227 156.414 312.824 156.259 313.215 155.926C313.674 155.535 313.903 154.843 313.915 153.81L313.412 151.98C311.994 151.364 306.332 148.679 306.087 144.973C305.866 141.618 302.021 138.87 295.802 137.621C294.87 137.434 293.974 137.34 293.138 137.34Z" fill="#DEE5DC" />
    <path d="M329.151 143.756C329.151 143.756 320.957 143.08 323.544 150.641C323.544 150.641 315.891 152.705 316.969 155.56" fill="#161616" />
    <path d="M316.968 156.228C316.699 156.228 316.445 156.063 316.344 155.796C316.115 155.187 316.157 154.545 316.466 153.941C317.461 151.999 321.137 150.678 322.706 150.191C322.117 148.083 322.307 146.387 323.275 145.144C325.114 142.783 329.04 143.076 329.205 143.091C329.572 143.121 329.845 143.443 329.815 143.81C329.785 144.177 329.46 144.446 329.096 144.42C329.05 144.417 325.715 144.177 324.325 145.966C323.553 146.96 323.503 148.46 324.175 150.424C324.235 150.599 324.22 150.79 324.133 150.953C324.047 151.116 323.896 151.236 323.718 151.284C322.3 151.668 318.445 153.001 317.653 154.549C317.514 154.82 317.495 155.067 317.592 155.325C317.722 155.669 317.549 156.054 317.204 156.184C317.126 156.214 317.047 156.228 316.968 156.228Z" fill="#DEE5DC" />
    <path d="M287.235 151.672C287.235 151.672 282.4 152.829 284.082 156.041C285.765 159.253 296.721 160.142 297.775 159.065C298.827 157.989 295.026 152.098 287.235 151.672Z" fill="#161616" />
    <path d="M295.174 160.055H295.173C292.014 160.055 285.002 159.178 283.491 156.294C282.983 155.324 282.921 154.432 283.306 153.585C284.156 151.714 286.961 151.038 287.08 151.01C287.143 150.995 287.207 150.996 287.272 151C293.664 151.349 297.485 155.18 298.392 157.511C298.845 158.677 298.498 159.221 298.251 159.474C298.081 159.648 297.629 160.055 295.174 160.055ZM287.3 152.344C286.603 152.532 284.978 153.154 284.519 154.167C284.312 154.626 284.362 155.138 284.673 155.731C285.122 156.589 286.66 157.363 288.892 157.952C290.821 158.461 293.228 158.721 295.173 158.721H295.174C296.494 158.721 297.1 158.626 297.278 158.545C297.295 158.4 297.239 157.95 296.707 157.139C295.367 155.091 292.103 152.639 287.3 152.344Z" fill="#DEE5DC" />
    <path d="M300.231 148.081C300.231 148.081 301.562 150.238 303.956 148.081H300.231Z" fill="#161616" />
    <path d="M301.932 149.707C301.81 149.707 301.689 149.699 301.568 149.681C300.36 149.509 299.731 148.541 299.663 148.431C299.47 148.118 299.567 147.707 299.88 147.514C300.192 147.321 300.601 147.417 300.795 147.726C300.809 147.747 301.169 148.283 301.768 148.363C302.276 148.429 302.862 148.169 303.509 147.586C303.783 147.339 304.205 147.361 304.451 147.635C304.698 147.909 304.676 148.33 304.402 148.577C303.569 149.328 302.739 149.707 301.932 149.707Z" fill="#DEE5DC" />
    <path d="M310.445 150.792C310.445 150.792 310.16 154.761 313.438 153.65C316.717 152.539 313.221 149.84 310.445 150.792Z" fill="#946D42" />
    <path d="M292.006 149.323C292.006 149.323 291.44 153.279 294.614 154.01L292.006 149.323Z" fill="#161616" />
    <path d="M294.615 154.677C294.565 154.677 294.515 154.671 294.465 154.66C291.481 153.973 291.12 150.807 291.346 149.228C291.398 148.864 291.737 148.608 292.101 148.663C292.465 148.715 292.718 149.052 292.667 149.416C292.648 149.552 292.232 152.777 294.764 153.36C295.123 153.443 295.347 153.801 295.264 154.159C295.193 154.468 294.918 154.677 294.615 154.677Z" fill="#DEE5DC" />
    <path d="M292.906 138.26C292.906 138.26 287.451 132.735 283.511 132.319C279.572 131.903 284.108 140.851 287.237 141.536" fill="#161616" />
    <path d="M287.237 142.203C287.19 142.203 287.142 142.198 287.094 142.187C284.301 141.576 280.937 135.805 281.35 133.251C281.533 132.123 282.369 131.527 283.582 131.656C287.711 132.092 293.151 137.559 293.38 137.792C293.639 138.053 293.636 138.476 293.374 138.735C293.112 138.994 292.69 138.991 292.431 138.729C292.378 138.675 287.097 133.368 283.441 132.982C282.808 132.915 282.716 133.161 282.667 133.464C282.358 135.377 285.312 140.432 287.38 140.885C287.739 140.963 287.967 141.319 287.889 141.679C287.82 141.99 287.544 142.203 287.237 142.203Z" fill="#DEE5DC" />
    <path d="M289.731 141.536C289.731 141.536 284.911 134.283 282.559 133.331C282.559 133.331 283.223 141.645 289.731 141.536Z" fill="#946D42" />
    <path d="M197.801 174.86C197.433 174.86 197.134 174.561 197.134 174.193V170.725C197.134 170.357 197.433 170.058 197.801 170.058C198.17 170.058 198.468 170.357 198.468 170.725V174.193C198.468 174.561 198.17 174.86 197.801 174.86Z" fill="#161616" />
    <path d="M200.268 175.768C200.197 175.768 200.125 175.756 200.054 175.732C199.705 175.614 199.518 175.235 199.637 174.886L200.544 172.209C200.662 171.861 201.041 171.673 201.39 171.792C201.739 171.91 201.926 172.289 201.807 172.638L200.9 175.315C200.806 175.592 200.546 175.768 200.268 175.768Z" fill="#161616" />
    <path d="M203.5 175.767C203.316 175.767 203.133 175.692 203.002 175.544C202.757 175.269 202.781 174.847 203.056 174.603L204.56 173.264C204.835 173.019 205.256 173.044 205.502 173.319C205.746 173.594 205.722 174.015 205.447 174.26L203.943 175.599C203.816 175.712 203.657 175.767 203.5 175.767Z" fill="#161616" />
    <path d="M163.128 115.632C162.87 115.632 162.625 115.482 162.516 115.23L161.137 112.048C160.991 111.71 161.146 111.317 161.484 111.171C161.822 111.025 162.215 111.18 162.361 111.518L163.74 114.7C163.886 115.038 163.731 115.43 163.393 115.577C163.306 115.614 163.217 115.632 163.128 115.632Z" fill="#161616" />
    <path d="M165.752 115.484C165.408 115.484 165.116 115.22 165.088 114.872L164.856 112.054C164.826 111.687 165.099 111.365 165.466 111.335C165.836 111.304 166.155 111.578 166.185 111.945L166.417 114.763C166.447 115.13 166.174 115.452 165.807 115.482C165.788 115.483 165.77 115.484 165.752 115.484Z" fill="#161616" />
    <path d="M168.717 114.199C168.623 114.199 168.528 114.179 168.437 114.137C168.103 113.982 167.958 113.585 168.113 113.251L168.96 111.425C169.115 111.091 169.512 110.946 169.846 111.101C170.18 111.256 170.325 111.653 170.17 111.987L169.322 113.813C169.21 114.056 168.969 114.199 168.717 114.199Z" fill="#161616" />
    <path d="M287.662 160.574C287.62 160.574 287.578 160.571 287.536 160.563C287.174 160.493 286.937 160.144 287.006 159.782L287.656 156.376C287.726 156.014 288.076 155.778 288.437 155.846C288.798 155.915 289.036 156.265 288.967 156.626L288.316 160.033C288.255 160.352 287.976 160.574 287.662 160.574Z" fill="#161616" />
    <path d="M285.067 161.003C284.739 161.003 284.453 160.762 284.407 160.428L284.018 157.628C283.968 157.264 284.222 156.927 284.587 156.876C284.953 156.827 285.289 157.08 285.339 157.445L285.728 160.245C285.779 160.609 285.524 160.946 285.159 160.997C285.128 161.001 285.097 161.003 285.067 161.003Z" fill="#161616" />
    <path d="M281.894 160.396C281.694 160.396 281.496 160.307 281.365 160.136L280.139 158.538C279.914 158.246 279.969 157.828 280.261 157.603C280.554 157.379 280.972 157.434 281.197 157.726L282.423 159.323C282.647 159.616 282.592 160.034 282.3 160.258C282.179 160.351 282.036 160.396 281.894 160.396Z" fill="#161616" />
    <path d="M269.077 60.0204C268.713 60.0204 268.416 59.7915 268.41 59.4266L268.316 53.59C268.31 53.2218 268.604 52.934 268.972 52.9281C269.344 52.9175 269.644 53.2237 269.65 53.5921L269.744 59.4013C269.749 59.7697 269.456 60.0202 269.087 60.0202C269.084 60.0204 269.08 60.0204 269.077 60.0204Z" fill="#161616" />
    <path d="M276.011 58.6866C275.648 58.6866 275.351 58.4022 275.345 58.0373L275.251 52.1654C275.245 51.7973 275.539 51.4841 275.907 51.4841C275.911 51.4841 275.914 51.4841 275.918 51.4841C276.281 51.4841 276.579 51.7829 276.584 52.1476L276.679 58.0122C276.684 58.3804 276.391 58.6863 276.022 58.6863C276.019 58.6866 276.015 58.6866 276.011 58.6866Z" fill="#161616" />
    <path d="M282.146 58.6866C281.783 58.6866 281.485 58.3529 281.479 57.9882L281.386 52.1409C281.38 51.7725 281.673 51.4841 282.042 51.4841C282.046 51.4841 282.049 51.4841 282.053 51.4841C282.416 51.4841 282.713 51.7341 282.719 52.0985L282.813 57.988C282.819 58.3564 282.525 58.6866 282.157 58.6866C282.153 58.6866 282.15 58.6866 282.146 58.6866Z" fill="#161616" />
    <path d="M289.081 58.1531C288.718 58.1531 288.42 57.8973 288.414 57.5326L288.32 51.6823C288.315 51.3142 288.608 51.0197 288.976 51.0138C289.348 51.0101 289.648 51.3062 289.654 51.6743L289.748 57.5089C289.754 57.877 289.46 58.1531 289.092 58.1531C289.088 58.1531 289.084 58.1531 289.081 58.1531Z" fill="#161616" />
    <path d="M295.482 57.6196C295.119 57.6196 294.822 57.3126 294.816 56.9477L294.722 51.072C294.716 50.7039 295.009 50.3966 295.378 50.3907C295.745 50.3809 296.05 50.6764 296.055 51.0448L296.15 56.9274C296.155 57.2955 295.862 57.6196 295.493 57.6196C295.49 57.6196 295.486 57.6196 295.482 57.6196Z" fill="#161616" />
    <path d="M302.417 57.3529C302.054 57.3529 301.756 57.1235 301.75 56.7588L301.656 50.9219C301.651 50.5535 301.944 50.2659 302.313 50.26C302.693 50.2566 302.984 50.5559 302.99 50.924L303.084 56.7337C303.09 57.1021 302.796 57.3529 302.428 57.3529C302.424 57.3529 302.42 57.3529 302.417 57.3529Z" fill="#161616" />
    <path d="M308.552 57.3528C308.188 57.3528 307.891 57.0743 307.885 56.7096L307.791 50.8484C307.785 50.4803 308.079 50.1802 308.447 50.1743C308.828 50.1642 309.119 50.4635 309.125 50.8319L309.219 56.6878C309.224 57.0559 308.931 57.3531 308.563 57.3531C308.559 57.3528 308.555 57.3528 308.552 57.3528Z" fill="#161616" />
    <path d="M315.487 57.6195C315.123 57.6195 314.826 57.2856 314.82 56.9209L314.726 51.0317C314.72 50.6636 315.014 50.3496 315.382 50.3434C315.75 50.3349 316.054 50.6259 316.06 50.9943L316.154 56.902C316.159 57.2701 315.866 57.6193 315.498 57.6193C315.494 57.6195 315.49 57.6195 315.487 57.6195Z" fill="#161616" />
    <path d="M321.621 57.8863C321.258 57.8863 320.96 57.6366 320.955 57.272L320.86 51.4249C320.855 51.0568 321.148 50.7639 321.517 50.758C321.885 50.7468 322.188 51.0509 322.194 51.4193L322.288 57.2482C322.294 57.6163 322.001 57.8866 321.632 57.8866C321.628 57.8863 321.625 57.8863 321.621 57.8863Z" fill="#161616" />
    <path d="M328.556 57.8864C328.193 57.8864 327.895 57.581 327.889 57.2163L327.795 51.3417C327.79 50.9736 328.083 50.6666 328.451 50.6607C328.832 50.6556 329.123 50.9469 329.129 51.3151L329.223 57.196C329.229 57.5641 328.935 57.8864 328.567 57.8864C328.563 57.8864 328.56 57.8864 328.556 57.8864Z" fill="#161616" />
    <path d="M334.69 59.2201C334.327 59.2201 334.03 58.8656 334.024 58.5009L333.93 52.6016C333.924 52.2332 334.218 51.9141 334.586 51.9083C334.967 51.9 335.258 52.1881 335.264 52.5565L335.358 58.4836C335.363 58.852 335.07 59.2201 334.701 59.2201C334.698 59.2201 334.694 59.2201 334.69 59.2201Z" fill="#161616" />
    <path d="M266.919 56.7888C266.589 56.7888 266.302 56.5441 266.259 56.2083C266.211 55.8431 266.468 55.5083 266.833 55.4606C267.293 55.4008 313.032 49.506 337.398 54.241C337.76 54.3111 337.996 54.6614 337.926 55.0228C337.856 55.3845 337.507 55.6206 337.144 55.5502C312.989 50.8561 267.463 56.7231 267.006 56.7832C266.977 56.7866 266.948 56.7888 266.919 56.7888Z" fill="#161616" />
    <path d="M306.905 28.7311L330.496 30.0995L334.597 36.3953L334.054 47.1763L313.185 46.4502L306.905 28.7311Z" fill="#161616" />
    <path d="M298.769 45.3594V34.6843L306.883 28.7311L313.489 35.574L313.158 46.4502C313.157 46.4502 303.837 45.098 298.769 45.3594Z" fill="#161616" />
    <path d="M313.121 47.117C313.114 47.117 313.107 47.117 313.099 47.1168C312.731 47.105 312.442 46.7966 312.454 46.4285L312.798 35.8345L306.374 29.1946C306.118 28.93 306.125 28.5077 306.39 28.2516C306.655 27.9961 307.077 28.0027 307.333 28.2674L313.953 35.1102C314.079 35.2399 314.147 35.4151 314.141 35.5955L313.788 46.4717C313.776 46.8327 313.48 47.117 313.121 47.117Z" fill="#DEE5DC" />
    <path d="M308.463 46.3267C308.436 46.3267 308.408 46.3251 308.38 46.3216C308.015 46.2765 307.755 45.9439 307.8 45.5784C307.964 44.2419 308.115 40.4364 306.863 38.8956C306.546 38.5045 306.162 38.2951 305.69 38.2551C305.25 38.2169 304.912 38.3405 304.619 38.6403C303.341 39.9479 303.456 43.8933 303.608 45.3034C303.647 45.6696 303.382 45.9983 303.016 46.038C302.648 46.0775 302.321 45.8123 302.282 45.4464C302.276 45.3893 302.132 44.0304 302.21 42.424C302.321 40.1691 302.81 38.5827 303.665 37.7082C304.233 37.1264 304.972 36.8559 305.802 36.9258C306.643 36.9968 307.349 37.3769 307.899 38.0556C309.764 40.3526 309.15 45.5224 309.124 45.7414C309.082 46.0791 308.795 46.3267 308.463 46.3267Z" fill="#DEE5DC" />
    <path d="M322.244 30.2492V24.5416H326.245V30.6725L322.244 30.2492Z" fill="#161616" />
    <path d="M134.156 28.5876C134.072 28.5876 133.989 28.5721 133.908 28.5398L131.687 27.6507C131.345 27.5139 131.178 27.1257 131.315 26.7837C131.452 26.442 131.839 26.2756 132.182 26.4124L133.969 27.1279L134.927 26.0542C135.172 25.7794 135.593 25.7546 135.868 26.0003C136.143 26.2454 136.167 26.6669 135.922 26.9419L134.653 28.3645C134.525 28.5094 134.342 28.5876 134.156 28.5876Z" fill="#161616" />
    <path d="M131.488 36.3235C131.405 36.3235 131.321 36.3081 131.241 36.2758L129.019 35.3867C128.677 35.2498 128.511 34.8617 128.647 34.5197C128.785 34.178 129.172 34.0115 129.514 34.1484L131.302 34.8638L132.259 33.7901C132.504 33.5154 132.926 33.4908 133.201 33.7362C133.475 33.9814 133.5 34.4029 133.255 34.6779L131.986 36.1005C131.857 36.2454 131.675 36.3235 131.488 36.3235Z" fill="#161616" />
    <path d="M142.425 35.5232C142.342 35.5232 142.258 35.5078 142.178 35.4755L139.956 34.5864C139.614 34.4495 139.448 34.0614 139.584 33.7194C139.722 33.3777 140.109 33.211 140.451 33.3481L142.239 34.0635L143.196 32.9898C143.441 32.7151 143.862 32.6905 144.138 32.936C144.412 33.1811 144.437 33.6026 144.192 33.8776L142.923 35.3002C142.794 35.4451 142.612 35.5232 142.425 35.5232Z" fill="#161616" />
    <path d="M142.425 24.5862C142.342 24.5862 142.258 24.5707 142.178 24.5385L139.956 23.6494C139.614 23.5125 139.448 23.1244 139.584 22.7824C139.722 22.4407 140.109 22.2742 140.451 22.4111L142.239 23.1265L143.196 22.0528C143.441 21.7781 143.862 21.7532 144.138 21.9989C144.412 22.2441 144.437 22.6656 144.192 22.9406L142.923 24.3632C142.794 24.5081 142.612 24.5862 142.425 24.5862Z" fill="#161616" />
    <path d="M122.151 21.3851C122.068 21.3851 121.984 21.3697 121.904 21.3374L119.682 20.4483C119.34 20.3114 119.174 19.9233 119.311 19.5813C119.448 19.2399 119.836 19.0731 120.178 19.21L121.965 19.9254L122.922 18.8517C123.167 18.5767 123.589 18.5522 123.864 18.7978C124.139 19.043 124.163 19.4645 123.918 19.7395L122.649 21.1621C122.52 21.307 122.338 21.3851 122.151 21.3851Z" fill="#161616" />
    <path d="M110.571 207.404C110.203 207.404 109.904 207.106 109.904 206.738V203.27C109.904 202.901 110.203 202.603 110.571 202.603C110.94 202.603 111.238 202.901 111.238 203.27V206.738C111.238 207.106 110.94 207.404 110.571 207.404Z" fill="#161616" />
    <path d="M113.038 208.312C112.967 208.312 112.895 208.301 112.824 208.276C112.475 208.158 112.288 207.78 112.407 207.431L113.314 204.754C113.432 204.405 113.811 204.218 114.16 204.337C114.509 204.455 114.696 204.833 114.577 205.182L113.67 207.859C113.576 208.137 113.316 208.312 113.038 208.312Z" fill="#161616" />
    <path d="M116.27 208.312C116.086 208.312 115.903 208.236 115.772 208.088C115.527 207.813 115.551 207.392 115.826 207.147L117.33 205.808C117.605 205.564 118.027 205.588 118.272 205.863C118.517 206.138 118.492 206.56 118.217 206.804L116.713 208.143C116.586 208.256 116.428 208.312 116.27 208.312Z" fill="#161616" />
    <path d="M143.382 153.519C143.014 153.519 142.716 153.221 142.716 152.852V149.384C142.716 149.016 143.014 148.718 143.382 148.718C143.751 148.718 144.049 149.016 144.049 149.384V152.852C144.049 153.221 143.751 153.519 143.382 153.519Z" fill="#161616" />
    <path d="M145.849 154.427C145.778 154.427 145.706 154.416 145.635 154.391C145.286 154.273 145.1 153.895 145.218 153.546L146.125 150.869C146.243 150.52 146.622 150.332 146.971 150.452C147.32 150.57 147.507 150.948 147.388 151.297L146.481 153.974C146.387 154.252 146.127 154.427 145.849 154.427Z" fill="#161616" />
    <path d="M149.081 154.427C148.898 154.427 148.715 154.351 148.583 154.203C148.338 153.928 148.362 153.507 148.638 153.262L150.141 151.923C150.417 151.678 150.838 151.703 151.083 151.978C151.328 152.253 151.303 152.674 151.028 152.919L149.524 154.258C149.397 154.371 149.239 154.427 149.081 154.427Z" fill="#161616" />
    <path d="M259.956 198.068C259.587 198.068 259.289 197.769 259.289 197.401V193.933C259.289 193.565 259.587 193.266 259.956 193.266C260.324 193.266 260.623 193.565 260.623 193.933V197.401C260.623 197.769 260.324 198.068 259.956 198.068Z" fill="#161616" />
    <path d="M262.423 198.975C262.352 198.975 262.28 198.964 262.209 198.94C261.86 198.822 261.673 198.443 261.791 198.094L262.699 195.417C262.817 195.069 263.196 194.881 263.544 195C263.893 195.118 264.08 195.497 263.962 195.846L263.054 198.523C262.96 198.8 262.701 198.975 262.423 198.975Z" fill="#161616" />
    <path d="M265.654 198.975C265.471 198.975 265.288 198.9 265.156 198.752C264.911 198.477 264.936 198.055 265.211 197.81L266.715 196.472C266.99 196.226 267.411 196.251 267.656 196.526C267.901 196.801 267.876 197.223 267.601 197.468L266.097 198.806C265.97 198.919 265.812 198.975 265.654 198.975Z" fill="#161616" />
    <path d="M219.675 138.848C219.307 138.848 219.008 138.549 219.008 138.181V134.713C219.008 134.344 219.307 134.046 219.675 134.046C220.044 134.046 220.342 134.344 220.342 134.713V138.181C220.342 138.549 220.044 138.848 219.675 138.848Z" fill="#161616" />
    <path d="M222.142 139.755C222.071 139.755 221.999 139.744 221.928 139.72C221.579 139.601 221.392 139.223 221.511 138.874L222.418 136.197C222.536 135.848 222.915 135.66 223.264 135.78C223.613 135.898 223.8 136.276 223.681 136.625L222.774 139.302C222.68 139.58 222.42 139.755 222.142 139.755Z" fill="#161616" />
    <path d="M225.374 139.755C225.191 139.755 225.008 139.68 224.876 139.532C224.631 139.256 224.655 138.835 224.93 138.59L226.434 137.252C226.709 137.007 227.131 137.031 227.376 137.306C227.621 137.581 227.596 138.003 227.321 138.248L225.817 139.586C225.69 139.699 225.532 139.755 225.374 139.755Z" fill="#161616" />
    <path d="M86.2962 107.637C85.9278 107.637 85.6293 107.338 85.6293 106.97V103.502C85.6293 103.134 85.9278 102.835 86.2962 102.835C86.6646 102.835 86.9631 103.134 86.9631 103.502V106.97C86.9631 107.338 86.6646 107.637 86.2962 107.637Z" fill="#161616" />
    <path d="M88.7633 108.545C88.6924 108.545 88.6201 108.533 88.5491 108.509C88.2002 108.391 88.0135 108.012 88.1319 107.663L89.0394 104.987C89.1573 104.638 89.5364 104.45 89.885 104.569C90.234 104.687 90.4207 105.066 90.3023 105.415L89.3947 108.092C89.3008 108.37 89.0413 108.545 88.7633 108.545Z" fill="#161616" />
    <path d="M91.9951 108.544C91.8115 108.544 91.6285 108.469 91.4968 108.321C91.2519 108.046 91.2764 107.624 91.5514 107.379L93.0554 106.041C93.3305 105.796 93.7517 105.82 93.9968 106.095C94.2417 106.371 94.2172 106.792 93.9421 107.037L92.4381 108.376C92.3112 108.489 92.1527 108.544 91.9951 108.544Z" fill="#161616" />
    <path d="M130.578 85.2291C130.21 85.2291 129.911 84.9306 129.911 84.5622V81.0944C129.911 80.726 130.21 80.4275 130.578 80.4275C130.946 80.4275 131.245 80.726 131.245 81.0944V84.5622C131.245 84.9306 130.946 85.2291 130.578 85.2291Z" fill="#161616" />
    <path d="M133.045 86.137C132.974 86.137 132.902 86.1258 132.831 86.1015C132.482 85.9833 132.295 85.6046 132.414 85.2559L133.321 82.579C133.439 82.2303 133.818 82.0428 134.167 82.1615C134.516 82.2797 134.702 82.6585 134.584 83.0071L133.676 85.684C133.583 85.962 133.323 86.137 133.045 86.137Z" fill="#161616" />
    <path d="M136.277 86.1367C136.093 86.1367 135.91 86.0612 135.778 85.9132C135.534 85.6382 135.558 85.2164 135.833 84.9715L137.337 83.6329C137.612 83.388 138.033 83.4123 138.279 83.6879C138.523 83.9629 138.499 84.3847 138.224 84.6295L136.72 85.9681C136.593 86.0812 136.434 86.1367 136.277 86.1367Z" fill="#161616" />
    <path d="M243.417 81.4945C243.048 81.4945 242.75 81.196 242.75 80.8276V77.3598C242.75 76.9914 243.048 76.6929 243.417 76.6929C243.785 76.6929 244.084 76.9914 244.084 77.3598V80.8276C244.084 81.196 243.785 81.4945 243.417 81.4945Z" fill="#161616" />
    <path d="M245.884 82.4022C245.813 82.4022 245.74 82.3909 245.669 82.3667C245.321 82.2485 245.134 81.8697 245.252 81.5211L246.16 78.8441C246.278 78.4955 246.657 78.3082 247.005 78.4267C247.354 78.5448 247.541 78.9236 247.423 79.2723L246.515 81.9492C246.421 82.2272 246.162 82.4022 245.884 82.4022Z" fill="#161616" />
    <path d="M249.115 82.402C248.932 82.402 248.749 82.3265 248.617 82.1785C248.372 81.9034 248.397 81.4817 248.672 81.2368L250.176 79.8982C250.451 79.6533 250.872 79.6779 251.117 79.9532C251.362 80.2282 251.338 80.65 251.062 80.8948L249.559 82.2334C249.432 82.3465 249.273 82.402 249.115 82.402Z" fill="#161616" />
</svg>
    