<svg width="729" height="755" viewBox="0 0 729 755" fill="none" xmlns="http://www.w3.org/2000/svg">
    <circle cx="306.982" cy="324.548" r="2.52356" transform="rotate(-36 306.982 324.548)" fill="#F5F5F5" />
    <circle cx="285.751" cy="357.239" r="2.52356" transform="rotate(-72 285.751 357.239)" fill="#F5F5F5" />
    <circle cx="287.802" cy="396.166" r="2.52356" transform="rotate(-108 287.802 396.166)" fill="#F5F5F5" />
    <circle cx="312.304" cy="426.458" r="2.52356" transform="rotate(-144 312.304 426.458)" fill="#F5F5F5" />
    <circle cx="349.966" cy="436.566" r="2.52356" transform="rotate(180 349.966 436.566)" fill="#F5F5F5" />
    <circle cx="386.347" cy="422.591" r="2.52356" transform="rotate(144 386.347 422.591)" fill="#F5F5F5" />
    <circle cx="407.586" cy="389.909" r="2.52356" transform="rotate(108 407.586 389.909)" fill="#F5F5F5" />
    <circle cx="405.553" cy="350.983" r="2.52356" transform="rotate(72 405.553 350.983)" fill="#F5F5F5" />
    <circle cx="381.024" cy="320.681" r="2.52356" transform="rotate(36 381.024 320.681)" fill="#F5F5F5" />
    <circle cx="343.387" cy="310.598" r="2.52356" fill="#F5F5F5" />
    <circle cx="285.235" cy="320.082" r="4.28609" transform="rotate(-47.5036 285.235 320.082)" fill="#F5F5F5" />
    <circle cx="265.53" cy="366.395" r="4.28609" transform="rotate(-83.5036 265.53 366.395)" fill="#F5F5F5" />
    <circle cx="276.827" cy="415.441" r="4.28609" transform="rotate(-119.504 276.827 415.441)" fill="#F5F5F5" />
    <circle cx="314.747" cy="448.497" r="4.28609" transform="rotate(-155.504 314.747 448.497)" fill="#F5F5F5" />
    <circle cx="364.899" cy="452.946" r="4.28609" transform="rotate(168.496 364.899 452.946)" fill="#F5F5F5" />
    <circle cx="408.046" cy="427.056" r="4.28609" transform="rotate(132.496 408.046 427.056)" fill="#F5F5F5" />
    <circle cx="427.764" cy="380.752" r="4.28609" transform="rotate(96.4964 427.764 380.752)" fill="#F5F5F5" />
    <circle cx="416.491" cy="331.702" r="4.28609" transform="rotate(60.4964 416.491 331.702)" fill="#F5F5F5" />
    <circle cx="378.534" cy="298.641" r="4.28609" transform="rotate(24.4964 378.534 298.641)" fill="#F5F5F5" />
    <circle cx="328.42" cy="294.217" r="4.28609" transform="rotate(-11.5036 328.42 294.217)" fill="#F5F5F5" />
    <circle cx="259.893" cy="327.042" r="5.9292" transform="rotate(-61.2791 259.893 327.042)" fill="#F5F5F5" />
    <circle cx="249.111" cy="386.907" r="5.9292" transform="rotate(-97.2791 249.111 386.907)" fill="#F5F5F5" />
    <circle cx="275.594" cy="441.668" r="5.9292" transform="rotate(-133.279 275.594 441.668)" fill="#F5F5F5" />
    <circle cx="329.155" cy="470.438" r="5.9292" transform="rotate(-169.279 329.155 470.438)" fill="#F5F5F5" />
    <circle cx="389.448" cy="462.212" r="5.9292" transform="rotate(154.721 389.448 462.212)" fill="#F5F5F5" />
    <circle cx="433.338" cy="420.116" r="5.9292" transform="rotate(118.721 433.338 420.116)" fill="#F5F5F5" />
    <circle cx="444.138" cy="360.257" r="5.9292" transform="rotate(82.7209 444.138 360.257)" fill="#F5F5F5" />
    <circle cx="417.682" cy="305.485" r="5.9292" transform="rotate(46.7209 417.682 305.485)" fill="#F5F5F5" />
    <circle cx="364.076" cy="276.721" r="5.9292" transform="rotate(10.7209 364.076 276.721)" fill="#F5F5F5" />
    <circle cx="303.835" cy="284.965" r="5.9292" transform="rotate(-25.2791 303.835 284.965)" fill="#F5F5F5" />
    <circle cx="233.818" cy="343.626" r="7.94921" transform="rotate(-75.5851 233.818 343.626)" fill="#F5F5F5" />
    <circle cx="237.748" cy="415.637" r="7.94921" transform="rotate(-111.585 237.748 415.637)" fill="#F5F5F5" />
    <circle cx="283.274" cy="471.57" r="7.94921" transform="rotate(-147.585 283.274 471.57)" fill="#F5F5F5" />
    <circle cx="352.931" cy="490.116" r="7.94921" transform="rotate(176.415 352.931 490.116)" fill="#F5F5F5" />
    <circle cx="420.239" cy="464.14" r="7.94921" transform="rotate(140.415 420.239 464.14)" fill="#F5F5F5" />
    <circle cx="459.363" cy="403.575" r="7.94921" transform="rotate(104.415 459.363 403.575)" fill="#F5F5F5" />
    <circle cx="455.455" cy="331.565" r="7.94921" transform="rotate(68.4149 455.455 331.565)" fill="#F5F5F5" />
    <circle cx="409.959" cy="275.612" r="7.94921" transform="rotate(32.4149 409.959 275.612)" fill="#F5F5F5" />
    <circle cx="340.25" cy="257.085" r="7.94921" transform="rotate(-3.58511 340.25 257.085)" fill="#F5F5F5" />
    <circle cx="273.007" cy="283.068" r="7.94921" transform="rotate(-39.5851 273.007 283.068)" fill="#F5F5F5" />
    <circle cx="212.156" cy="369.766" r="10.1288" transform="rotate(-89.7132 212.156 369.766)" fill="#F5F5F5" />
    <circle cx="235.568" cy="449.51" r="10.1288" transform="rotate(-125.713 235.568 449.51)" fill="#F5F5F5" />
    <circle cx="301.398" cy="500.239" r="10.1288" transform="rotate(-161.713 301.398 500.239)" fill="#F5F5F5" />
    <circle cx="384.432" cy="502.664" r="10.1288" transform="rotate(162.287 384.432 502.664)" fill="#F5F5F5" />
    <circle cx="453.082" cy="455.762" r="10.1288" transform="rotate(126.287 453.082 455.762)" fill="#F5F5F5" />
    <circle cx="480.988" cy="377.498" r="10.1288" transform="rotate(90.2868 480.988 377.498)" fill="#F5F5F5" />
    <circle cx="457.602" cy="297.75" r="10.1288" transform="rotate(54.2868 457.602 297.75)" fill="#F5F5F5" />
    <circle cx="391.799" cy="246.988" r="10.1288" transform="rotate(18.2868 391.799 246.988)" fill="#F5F5F5" />
    <circle cx="308.712" cy="244.601" r="10.1288" transform="rotate(-17.7132 308.712 244.601)" fill="#F5F5F5" />
    <circle cx="240.138" cy="291.492" r="10.1288" transform="rotate(-53.7132 240.138 291.492)" fill="#F5F5F5" />
    <circle cx="196.009" cy="402.477" r="12.3878" transform="rotate(-102.898 196.009 402.477)" fill="#F5F5F5" />
    <circle cx="241.661" cy="485.381" r="12.3878" transform="rotate(-138.898 241.661 485.381)" fill="#F5F5F5" />
    <circle cx="327.347" cy="525.556" r="12.3878" transform="rotate(-174.898 327.347 525.556)" fill="#F5F5F5" />
    <circle cx="420.235" cy="507.889" r="12.3878" transform="rotate(149.102 420.235 507.889)" fill="#F5F5F5" />
    <circle cx="485.077" cy="438.844" r="12.3878" transform="rotate(113.102 485.077 438.844)" fill="#F5F5F5" />
    <circle cx="496.821" cy="344.98" r="12.3878" transform="rotate(77.1016 496.821 344.98)" fill="#F5F5F5" />
    <circle cx="451.226" cy="262.052" r="12.3878" transform="rotate(41.1016 451.226 262.052)" fill="#F5F5F5" />
    <circle cx="365.581" cy="221.789" r="12.3878" transform="rotate(5.10157 365.581 221.789)" fill="#F5F5F5" />
    <circle cx="272.596" cy="239.568" r="12.3878" transform="rotate(-30.8984 272.596 239.568)" fill="#F5F5F5" />
    <circle cx="207.919" cy="308.548" r="12.3878" transform="rotate(-66.8984 207.919 308.548)" fill="#F5F5F5" />
    <circle cx="188.637" cy="445.582" r="14.0156" transform="rotate(-116.554 188.637 445.582)" fill="#F5F5F5" />
    <circle cx="260.909" cy="524.524" r="14.0156" transform="rotate(-152.554 260.909 524.524)" fill="#F5F5F5" />
    <circle cx="365.791" cy="545.797" r="14.0156" transform="rotate(171.446 365.791 545.797)" fill="#F5F5F5" />
    <circle cx="463.148" cy="501.696" r="14.0156" transform="rotate(135.446 463.148 501.696)" fill="#F5F5F5" />
    <circle cx="516.056" cy="408.512" r="14.0156" transform="rotate(99.4455 516.056 408.512)" fill="#F5F5F5" />
    <circle cx="503.917" cy="302.254" r="14.0156" transform="rotate(63.4455 503.917 302.254)" fill="#F5F5F5" />
    <circle cx="431.728" cy="223.252" r="14.0156" transform="rotate(27.4455 431.728 223.252)" fill="#F5F5F5" />
    <circle cx="326.876" cy="201.819" r="14.0156" transform="rotate(-8.55449 326.876 201.819)" fill="#F5F5F5" />
    <circle cx="229.407" cy="246.14" r="14.0156" transform="rotate(-44.5545 229.407 246.14)" fill="#F5F5F5" />
    <circle cx="176.743" cy="339.152" r="14.0156" transform="rotate(-80.5545 176.743 339.152)" fill="#F5F5F5" />
    <circle cx="194.604" cy="492.797" r="15.2696" transform="rotate(-129.957 194.604 492.797)" fill="#F5F5F5" />
    <circle cx="293.431" cy="559.245" r="15.2696" transform="rotate(-165.957 293.431 559.245)" fill="#F5F5F5" />
    <circle cx="412.424" cy="554.785" r="15.2696" transform="rotate(158.043 412.424 554.785)" fill="#F5F5F5" />
    <circle cx="506.158" cy="481.597" r="15.2696" transform="rotate(122.043 506.158 481.597)" fill="#F5F5F5" />
    <circle cx="538.973" cy="366.975" r="15.2696" transform="rotate(86.0432 538.973 366.975)" fill="#F5F5F5" />
    <circle cx="498.021" cy="255.243" r="15.2696" transform="rotate(50.0432 498.021 255.243)" fill="#F5F5F5" />
    <circle cx="399.267" cy="188.712" r="15.2696" transform="rotate(14.0432 399.267 188.712)" fill="#F5F5F5" />
    <circle cx="280.266" cy="192.99" r="15.2696" transform="rotate(-21.9568 280.266 192.99)" fill="#F5F5F5" />
    <circle cx="186.466" cy="266.443" r="15.2696" transform="rotate(-57.9568 186.466 266.443)" fill="#F5F5F5" />
    <circle cx="153.871" cy="380.82" r="15.2696" transform="rotate(-93.9568 153.871 380.82)" fill="#F5F5F5" />
    <circle cx="212.537" cy="541.392" r="16.6" transform="rotate(-143.016 212.537 541.392)" fill="#F5F5F5" />
    <circle cx="336.449" cy="588.062" r="16.6" transform="rotate(-179.016 336.449 588.062)" fill="#F5F5F5" />
    <circle cx="464.077" cy="552.85" r="16.6" transform="rotate(144.984 464.077 552.85)" fill="#F5F5F5" />
    <circle cx="546.819" cy="449.715" r="16.6" transform="rotate(108.984 546.819 449.715)" fill="#F5F5F5" />
    <circle cx="553.059" cy="317.3" r="16.6" transform="rotate(72.9843 553.059 317.3)" fill="#F5F5F5" />
    <circle cx="480.212" cy="206.848" r="16.6" transform="rotate(36.9843 480.212 206.848)" fill="#F5F5F5" />
    <circle cx="356.359" cy="160.071" r="16.6" transform="rotate(0.984322 356.359 160.071)" fill="#F5F5F5" />
    <circle cx="228.676" cy="195.089" r="16.6" transform="rotate(-35.0157 228.676 195.089)" fill="#F5F5F5" />
    <circle cx="145.929" cy="298.526" r="16.6" transform="rotate(-71.0157 145.929 298.526)" fill="#F5F5F5" />
    <circle cx="139.864" cy="430.621" r="16.6" transform="rotate(-107.016 139.864 430.621)" fill="#F5F5F5" />
    <circle cx="245.532" cy="585.76" r="18.1633" transform="rotate(-156.173 245.532 585.76)" fill="#F5F5F5" />
    <circle cx="389.177" cy="604.622" r="18.1633" transform="rotate(167.827 389.177 604.622)" fill="#F5F5F5" />
    <circle cx="516.389" cy="535.32" r="18.1633" transform="rotate(131.827 516.389 535.32)" fill="#F5F5F5" />
    <circle cx="578.86" cy="404.828" r="18.1633" transform="rotate(95.8272 578.86 404.828)" fill="#F5F5F5" />
    <circle cx="552.617" cy="261.862" r="18.1633" transform="rotate(59.8272 552.617 261.862)" fill="#F5F5F5" />
    <circle cx="447.405" cy="162.264" r="18.1633" transform="rotate(23.8272 447.405 162.264)" fill="#F5F5F5" />
    <circle cx="303.797" cy="143.661" r="18.1633" transform="rotate(-12.1728 303.797 143.661)" fill="#F5F5F5" />
    <circle cx="176.521" cy="212.846" r="18.1633" transform="rotate(-48.1728 176.521 212.846)" fill="#F5F5F5" />
    <circle cx="114.033" cy="343.51" r="18.1633" transform="rotate(-84.1728 114.033 343.51)" fill="#F5F5F5" />
    <circle cx="140.514" cy="485.838" r="18.1633" transform="rotate(-120.173 140.514 485.838)" fill="#F5F5F5" />
</svg>
    