<svg width="782" height="811" viewBox="0 0 782 811" fill="none" xmlns="http://www.w3.org/2000/svg">
    <g style="mix-blend-mode:multiply">
        <path fill-rule="evenodd" clip-rule="evenodd" d="M323.228 285.832C322.779 288.242 322.752 290.586 321.772 294.35C320.461 299.383 322.986 304.403 322.517 309.484C321.929 315.863 318.123 321.857 318.192 328.28C318.244 333.022 320.435 337.254 320.947 341.919C321.921 350.788 320.088 359.368 322.589 368.219C323.856 372.706 326.716 376.226 328.866 380.282C333.324 388.697 337.482 397.556 343.393 405.077C354.451 419.147 381.555 440.395 399.978 441.765C410.136 442.522 417.274 438.609 426.752 436.288C434.653 434.355 442.194 443.129 449.408 437.374C457.84 430.648 450.434 422.309 454.087 413.951C459.091 402.504 463.601 393.495 464.22 380.516C466.219 338.498 430.183 294.833 390.447 284.791C382.556 282.796 374.392 280.179 366.151 280.877C360.681 281.341 354.959 284.762 349.693 283.185C331.425 277.714 325.229 275.123 323.228 285.832Z" fill="#FFD82F" fill-opacity="0.1" />
        <path fill-rule="evenodd" clip-rule="evenodd" d="M334.151 233.824C323.117 250.366 333.769 274.414 354.896 273.575C365.075 273.171 371.263 264.025 379.167 258.913C385.902 254.558 389.395 255.894 396.707 254.627C399.894 254.074 402.696 252.682 406.008 252.67C412.222 252.649 419.097 256.076 421.725 261.874C422.904 264.474 423.505 275.959 425.792 272.384C433.323 260.618 424.318 243.552 416.254 234.976C412.308 230.78 407.885 227.774 402.665 225.369C384.647 217.066 345.843 211.978 334.151 233.824Z" fill="#909E00" fill-opacity="0.1" />
        <path fill-rule="evenodd" clip-rule="evenodd" d="M296.153 283.718C310.863 278.815 330.325 289.828 329.956 306.024C329.774 313.991 324.071 319.972 322.187 327.443C320.525 334.031 326.543 339.346 324.984 346.057C323.044 354.413 314.951 359.502 311.843 367.273C308.795 374.895 311.629 382.965 312.137 390.816C312.157 391.12 311.565 390.59 311.286 390.462C310.083 389.9 308.971 389.189 307.821 388.535C304.819 386.834 301.828 385.113 298.822 383.417C289.638 378.241 281.177 371.86 275.705 362.637C264.968 344.536 266.424 319.947 276.432 301.783C280.685 294.065 287.096 285.519 296.153 283.718Z" fill="#909E00" fill-opacity="0.1" />
        <path fill-rule="evenodd" clip-rule="evenodd" d="M292.156 229.809C289.19 235.65 293.009 243.203 295.73 248.406C302.15 260.679 312.922 268.939 321.652 279.299C324.009 282.096 323.825 286.685 326.049 289.097C328.027 291.242 331.278 288.44 332.264 286.739C334.755 282.441 331.261 277.957 328.121 275.131C320.946 268.672 311.256 264.332 305.577 256.358C300.452 249.16 301.729 240.854 298.362 233.219C297.33 230.878 294.673 225.919 292.156 229.809Z" fill="#909E00" fill-opacity="0.1" />
        <path fill-rule="evenodd" clip-rule="evenodd" d="M308.02 262.498C307.418 266.783 308.432 270.879 307.092 275.125C306.288 277.673 305.261 280.16 304.217 282.618C303.27 284.849 300.567 288.765 301.004 291.308C301.155 292.191 302.686 291.781 303.164 291.591C305.146 290.8 306.375 289.039 307.384 287.252C309.965 282.678 311.288 276.833 311.93 271.641C312.225 269.26 313.064 264.587 309.947 263.479" fill="#909E00" fill-opacity="0.1" />
        <path fill-rule="evenodd" clip-rule="evenodd" d="M301.123 249.766C302.919 261.162 319.626 259.352 327.554 256.413C330.127 255.46 333.478 253.827 334.859 251.278C335.109 250.818 331.983 250.632 331.815 250.643C328.676 250.84 325.452 252.27 322.361 252.884C313.883 254.568 304.072 254.367 299.207 246.103" fill="#909E00" fill-opacity="0.1" />
        <path fill-rule="evenodd" clip-rule="evenodd" d="M304.295 282.922C304.128 282.898 304.026 282.832 303.835 282.848C303.648 282.865 303.466 282.973 303.263 283.043C301.028 283.819 297.368 285.027 294.764 286.613C293.166 287.586 291.974 288.734 291.629 289.998C290.98 292.381 291.796 294.889 291.685 297.297C291.643 298.22 291.451 299.127 290.933 300.001C289.24 302.872 286.074 305.111 283.766 307.753C282.683 308.995 281.783 310.319 281.267 311.814C280.958 312.706 280.915 313.607 281.043 314.514C281.267 316.092 282.029 317.692 282.726 319.297C283.372 320.778 283.969 322.267 283.892 323.757C283.689 327.698 281.194 330.882 279.978 334.523C279.438 336.139 279.134 337.839 279.329 339.71C279.504 341.397 280.103 342.719 280.919 343.862C281.881 345.207 283.155 346.292 284.372 347.442C285.475 348.489 286.532 349.593 287.199 351.054C287.813 352.399 287.701 353.821 287.508 355.264C287.297 356.844 286.983 358.453 287.16 360.044C287.252 360.863 287.47 361.681 287.886 362.488C288.342 363.371 288.902 364.117 289.518 364.79C290.899 366.306 292.578 367.434 293.887 369.104C294.373 369.726 294.554 370.44 294.702 371.171C294.879 372.045 295.006 372.94 295.352 373.777C295.535 374.215 295.777 374.644 296.109 375.044C296.539 375.563 297.032 376.01 297.555 376.419C298.669 377.294 299.935 378 300.961 378.98C301.32 379.328 301.597 379.7 301.837 380.09C302.509 381.174 302.931 382.35 303.788 383.352C305.194 384.992 306.803 385.945 308.219 387.329C308.549 387.649 308.857 388.005 309.171 388.39C309.367 388.624 309.574 388.861 309.764 389.131C309.928 389.401 310.283 389.489 310.555 389.326C310.826 389.158 310.913 388.805 310.749 388.535C310.531 388.117 310.303 387.732 310.043 387.387C309.766 387.018 309.454 386.697 309.144 386.393C307.763 385.025 306.178 384.096 304.805 382.483C303.997 381.532 303.618 380.408 302.985 379.383C302.688 378.899 302.341 378.435 301.896 378.008C300.839 376.992 299.542 376.259 298.394 375.353C297.946 375.002 297.523 374.619 297.155 374.175C296.645 373.561 296.437 372.859 296.282 372.144C296.093 371.274 295.982 370.387 295.673 369.562C295.502 369.108 295.274 368.674 294.954 368.266C293.618 366.573 291.914 365.421 290.505 363.889C289.964 363.3 289.469 362.649 289.068 361.878C288.728 361.221 288.551 360.559 288.475 359.896C288.305 358.409 288.613 356.908 288.806 355.437C289.027 353.745 289.1 352.087 288.377 350.515C287.633 348.899 286.477 347.668 285.252 346.511C284.091 345.42 282.867 344.398 281.948 343.121C281.247 342.148 280.729 341.022 280.575 339.579C280.395 337.896 280.671 336.368 281.153 334.913C282.389 331.168 284.892 327.868 285.086 323.815C285.156 322.341 284.672 320.866 284.052 319.397C283.496 318.079 282.833 316.77 282.444 315.47C282.115 314.365 281.983 313.27 282.352 312.185C282.815 310.822 283.638 309.624 284.617 308.491C286.956 305.793 290.152 303.477 291.863 300.546C292.469 299.506 292.699 298.434 292.739 297.341C292.827 295.001 291.975 292.573 292.584 290.253C292.865 289.182 293.919 288.255 295.26 287.415C297.794 285.829 301.384 284.652 303.545 283.808C303.749 283.729 303.963 283.69 304.115 283.574C304.271 283.455 304.305 283.337 304.409 283.199C304.486 283.168 304.522 283.081 304.491 283.004C304.46 282.928 304.372 282.891 304.295 282.922Z" fill="#373B00" fill-opacity="0.1" />
        <path fill-rule="evenodd" clip-rule="evenodd" d="M303.734 283.949C303.688 284.067 303.635 284.066 303.636 284.191C303.636 284.206 303.648 284.219 303.654 284.232C303.725 284.396 303.791 284.556 303.856 284.714C305.02 287.568 305.162 289.488 304.726 291.073C304.344 292.462 303.525 293.59 302.592 294.857C301.433 296.431 300.105 298.205 299.142 300.842C298.875 301.578 298.785 302.32 298.808 303.068C298.851 304.44 299.286 305.836 299.663 307.236C300.011 308.524 300.313 309.818 300.118 311.101C299.868 312.761 299.136 314.242 298.349 315.705C297.516 317.252 296.62 318.78 296.089 320.439C295.815 321.295 295.637 322.182 295.606 323.127C295.575 324.044 295.756 324.926 296.07 325.787C296.627 327.309 297.613 328.758 298.499 330.248C299.319 331.623 300.056 333.031 300.176 334.578C300.223 335.178 300.174 335.767 300.068 336.345C299.607 338.884 298.162 341.315 298.127 343.941C298.112 345.118 298.414 346.203 298.869 347.238C299.82 349.404 301.51 351.332 301.891 353.653C302.066 354.72 301.81 355.755 301.497 356.792C301.149 357.945 300.727 359.098 300.587 360.281C300.511 360.922 300.515 361.57 300.644 362.229C300.797 363.016 301.107 363.737 301.493 364.432C302.282 365.852 303.425 367.135 303.954 368.665C304.05 368.94 304.119 369.219 304.172 369.499C304.416 370.793 304.353 372.106 304.718 373.383C304.837 373.797 305.005 374.184 305.205 374.553C305.899 375.83 307.043 376.837 307.537 378.227C307.689 378.654 307.751 379.085 307.775 379.513C307.842 380.709 307.642 381.912 307.844 383.119C307.935 383.654 308.095 384.176 308.29 384.69C308.577 385.447 308.917 386.2 309.222 386.956C309.345 387.259 309.477 387.558 309.57 387.869C309.642 388.192 309.961 388.392 310.281 388.32C310.601 388.248 310.802 387.93 310.729 387.606C310.674 387.251 310.598 386.9 310.489 386.557C310.097 385.317 309.4 384.156 309.2 382.894C309.012 381.736 309.229 380.584 309.167 379.436C309.137 378.876 309.047 378.317 308.848 377.759C308.327 376.301 307.152 375.23 306.42 373.89C306.268 373.612 306.138 373.317 306.047 372.998C305.692 371.77 305.762 370.496 305.524 369.242C305.458 368.899 305.371 368.556 305.253 368.213C304.695 366.611 303.517 365.252 302.687 363.765C302.369 363.197 302.107 362.608 301.98 361.969C301.768 360.895 301.985 359.864 302.277 358.843C302.609 357.683 303.04 356.541 303.209 355.382C303.303 354.741 303.32 354.092 303.21 353.437C302.804 351.004 301.075 348.968 300.073 346.707C299.691 345.843 299.425 344.942 299.434 343.953C299.456 341.399 300.883 339.04 301.319 336.57C301.44 335.884 301.491 335.187 301.433 334.479C301.289 332.74 300.487 331.152 299.558 329.615C298.704 328.196 297.744 326.819 297.203 325.369C296.938 324.655 296.775 323.925 296.795 323.16C296.828 321.899 297.166 320.746 297.633 319.64C298.813 316.844 300.767 314.323 301.206 311.26C301.549 308.842 300.329 306.395 299.929 303.999C299.77 303.048 299.751 302.108 300.078 301.179C300.975 298.635 302.238 296.922 303.334 295.397C304.321 294.024 305.177 292.794 305.56 291.294C305.999 289.573 305.831 287.493 304.494 284.444C304.424 284.283 304.351 284.121 304.274 283.955C304.267 283.941 304.266 283.924 304.255 283.914C304.162 283.829 304.127 283.867 304.007 283.825C303.973 283.75 303.884 283.717 303.808 283.751C303.733 283.785 303.7 283.874 303.734 283.949Z" fill="#373B00" fill-opacity="0.1" />
        <path fill-rule="evenodd" clip-rule="evenodd" d="M305.23 284.85C305.216 285.019 305.159 284.997 305.207 285.162C305.215 285.19 305.238 285.208 305.258 285.23C305.399 285.386 305.572 285.515 305.735 285.659C307.608 287.319 309.91 289.105 311.636 291.19C312.892 292.707 313.841 294.384 314.031 296.306C314.275 298.725 313.283 301.071 313.177 303.474C313.148 304.126 313.181 304.778 313.304 305.437C313.724 307.677 315.391 309.534 316.308 311.605C316.655 312.389 316.883 313.207 316.833 314.108C316.762 315.401 316.254 316.552 315.675 317.684C315.04 318.92 314.318 320.13 313.871 321.42C313.631 322.115 313.468 322.834 313.43 323.587C313.279 326.586 314.803 329.422 315.278 332.394C315.386 333.069 315.435 333.753 315.383 334.45C315.308 335.459 314.814 336.286 314.261 337.081C313.607 338.021 312.866 338.915 312.416 339.917C312.16 340.484 311.993 341.083 311.965 341.74C311.884 343.67 312.661 345.585 312.905 347.516C312.997 348.247 313.006 348.975 312.823 349.714C312.693 350.24 312.503 350.73 312.276 351.201C311.258 353.299 309.569 355.005 308.819 357.275C308.594 357.954 308.577 358.623 308.663 359.286C308.827 360.545 309.45 361.782 309.301 363.073C309.056 365.189 308.32 367.087 307.754 369.015C307.493 369.903 307.27 370.798 307.129 371.716C306.989 372.627 306.903 373.568 307.009 374.544C307.052 374.939 307.135 375.339 307.237 375.746C307.294 376.053 307.591 376.258 307.9 376.202C308.209 376.146 308.414 375.847 308.358 375.54C308.315 375.168 308.308 374.808 308.296 374.452C308.267 373.576 308.31 372.743 308.449 371.929C308.596 371.07 308.827 370.239 309.078 369.407C309.683 367.411 310.419 365.429 310.673 363.228C310.834 361.829 310.21 360.476 310.032 359.11C309.971 358.646 309.973 358.182 310.129 357.708C310.86 355.497 312.525 353.848 313.516 351.799C313.784 351.247 314.007 350.668 314.161 350.046C314.385 349.139 314.385 348.238 314.272 347.343C314.037 345.489 313.263 343.653 313.34 341.799C313.38 340.802 313.874 339.987 314.432 339.188C315.076 338.264 315.811 337.37 316.271 336.348C316.523 335.793 316.696 335.198 316.743 334.549C316.803 333.748 316.748 332.956 316.622 332.177C316.157 329.297 314.632 326.558 314.773 323.654C314.835 322.369 315.339 321.218 315.915 320.086C316.544 318.85 317.261 317.637 317.704 316.342C317.94 315.647 318.101 314.933 318.139 314.18C318.194 313.063 317.922 312.045 317.485 311.078C316.59 309.096 314.934 307.351 314.513 305.202C314.403 304.639 314.373 304.079 314.392 303.523C314.473 301.068 315.426 298.655 315.144 296.186C314.897 294.054 313.843 292.192 312.415 290.532C310.617 288.441 308.234 286.668 306.287 285.022C306.124 284.885 305.977 284.733 305.809 284.612C305.786 284.596 305.765 284.576 305.738 284.571C305.569 284.542 305.598 284.598 305.431 284.628C305.37 284.572 305.275 284.577 305.22 284.638C305.164 284.699 305.169 284.794 305.23 284.85Z" fill="#373B00" fill-opacity="0.1" />
        <path fill-rule="evenodd" clip-rule="evenodd" d="M332.519 253.424C333.418 255.04 334.587 256.472 336.016 257.614C337.452 258.761 339.134 259.593 340.885 260.181C344.404 261.361 348.303 261.417 351.785 260.189C353.791 259.479 355.293 258.45 356.5 257.275C358.121 255.697 359.201 253.852 360.267 252.169C361.383 250.405 362.464 248.816 364.282 248.041C365.363 247.58 366.512 247.44 367.689 247.436C370.605 247.426 373.692 248.2 376.496 247.569C379.826 246.82 382.665 244.915 385.784 243.706C387.039 243.219 388.341 242.85 389.748 242.738C390.81 242.654 391.821 242.747 392.809 242.935C395.273 243.405 397.592 244.444 400.106 244.944C402.424 245.404 404.46 244.811 406.672 244.869C407.477 244.89 408.307 245.007 409.19 245.322C410.435 245.767 411.331 246.297 412.089 246.899C413.401 247.94 414.327 249.183 415.866 250.552C419.409 253.702 421.805 256.382 423.187 259.451C424.463 262.282 424.742 265.436 424.52 269.619C424.508 269.851 424.49 270.085 424.498 270.324C424.504 270.486 424.534 270.637 424.551 270.802C424.521 271.063 424.708 271.298 424.969 271.328C425.229 271.358 425.465 271.171 425.495 270.91C425.55 270.75 425.611 270.605 425.651 270.443C425.71 270.205 425.736 269.964 425.765 269.727C426.299 265.305 425.744 261.923 424.397 258.908C422.958 255.687 420.454 252.868 416.738 249.571C415.175 248.185 414.232 246.929 412.901 245.875C412.044 245.196 411.034 244.596 409.627 244.095C408.603 243.73 407.639 243.593 406.705 243.57C404.567 243.516 402.599 244.119 400.358 243.676C397.84 243.178 395.516 242.141 393.048 241.675C391.95 241.467 390.825 241.369 389.646 241.465C388.111 241.589 386.691 241.988 385.324 242.521C382.264 243.713 379.487 245.604 376.22 246.346C373.503 246.963 370.51 246.184 367.683 246.199C366.34 246.207 365.032 246.383 363.799 246.912C362.126 247.63 360.973 248.922 359.93 250.46C358.664 252.327 357.557 254.568 355.668 256.426C354.576 257.5 353.217 258.444 351.397 259.101C348.154 260.276 344.519 260.223 341.216 259.17C339.559 258.641 338.007 257.832 336.582 256.851C335.137 255.857 333.814 254.697 332.771 253.263C332.726 253.194 332.634 253.173 332.564 253.218C332.494 253.262 332.474 253.355 332.519 253.424Z" fill="#373B00" fill-opacity="0.1" />
        <path fill-rule="evenodd" clip-rule="evenodd" d="M332.375 253.76C332.468 253.855 332.429 253.891 332.552 253.937C332.756 254.013 332.982 253.905 333.19 253.88C336.086 253.537 338.176 252.486 339.822 251.13C342.286 249.099 343.73 246.292 345.331 243.708C346.886 241.199 348.588 238.899 351.681 237.864C354.366 236.964 357.253 237.102 359.989 236.515C360.706 236.362 361.412 236.16 362.104 235.884C364.298 235.008 366.226 233.449 368.387 232.483C369.254 232.095 370.16 231.808 371.144 231.718C372.102 231.629 373.031 231.725 373.946 231.902C376.241 232.343 378.459 233.263 380.821 233.339C383.688 233.431 386.255 232.815 389.003 232.69C390.085 232.641 391.196 232.67 392.369 232.86C393.361 233.022 394.249 233.369 395.09 233.803C397.237 234.911 399.093 236.547 401.425 237.366C403.859 238.22 406.426 238.277 408.887 238.855C409.867 239.085 410.83 239.403 411.756 239.907C412.204 240.15 412.604 240.457 412.981 240.796C413.946 241.662 414.769 242.72 415.749 243.554C416.618 244.293 417.731 244.817 418.687 245.489C419.049 245.745 419.388 246.024 419.67 246.358C422.472 249.67 424.177 253.692 424.987 257.911C425.23 259.179 425.388 260.465 425.482 261.755C425.705 264.798 425.539 267.869 424.985 270.798C424.927 271.084 425.112 271.363 425.398 271.421C425.683 271.48 425.962 271.295 426.021 271.009C426.68 267.996 426.979 264.822 426.801 261.669C426.725 260.323 426.553 258.982 426.301 257.66C425.453 253.216 423.63 248.99 420.675 245.507C420.32 245.089 419.898 244.735 419.441 244.415C418.515 243.767 417.434 243.272 416.592 242.56C415.618 241.737 414.801 240.689 413.843 239.834C413.389 239.429 412.906 239.065 412.369 238.775C411.337 238.218 410.267 237.864 409.177 237.611C406.757 237.05 404.232 237.014 401.838 236.183C399.559 235.392 397.75 233.785 395.651 232.711C394.697 232.223 393.687 231.838 392.562 231.659C391.302 231.459 390.108 231.429 388.946 231.487C386.227 231.622 383.692 232.251 380.856 232.173C378.555 232.11 376.394 231.205 374.158 230.788C373.138 230.597 372.104 230.502 371.038 230.606C369.93 230.714 368.91 231.04 367.936 231.483C365.793 232.458 363.887 234.023 361.71 234.908C361.075 235.167 360.426 235.355 359.768 235.501C357.001 236.114 354.08 236.009 351.368 236.941C348.055 238.079 346.21 240.527 344.564 243.237C343.032 245.759 341.672 248.507 339.302 250.505C337.767 251.798 335.802 252.74 333.092 253.163C332.893 253.194 332.66 253.143 332.484 253.254C332.373 253.324 332.421 253.352 332.348 253.462C332.266 253.469 332.205 253.542 332.212 253.624C332.22 253.707 332.293 253.767 332.375 253.76Z" fill="#373B00" fill-opacity="0.1" />
        <path fill-rule="evenodd" clip-rule="evenodd" d="M332.073 253.751C332.208 253.644 332.328 253.592 332.445 253.463C332.508 253.393 332.547 253.305 332.595 253.223C333.072 252.409 333.53 251.564 333.981 250.718C334.56 249.63 335.081 248.517 335.408 247.353C335.798 245.955 335.696 244.557 335.988 243.192C336.098 242.675 336.27 242.163 336.564 241.659C336.993 240.92 337.519 240.292 338.095 239.72C339.519 238.308 341.247 237.231 342.723 235.785C344.206 234.331 345.112 232.405 346.397 230.796C346.697 230.42 347.019 230.063 347.378 229.737C348.149 229.034 350.717 227.826 353.605 226.604C357.508 224.952 362.002 223.306 363.608 222.976C366.551 222.368 369.958 222.644 373.419 223.303C378.599 224.291 383.896 226.147 387.981 227.342C391.332 228.321 395.067 228.351 398.591 228.974C400.059 229.234 401.489 229.598 402.833 230.196C410.869 233.766 417.589 239.505 421.759 246.552C424.336 250.907 425.939 255.762 426.264 260.931C426.448 263.871 426.228 266.912 425.532 270.019C425.495 270.185 425.45 270.349 425.417 270.515C425.385 270.684 425.366 270.852 425.338 271.022C425.284 271.225 425.405 271.434 425.609 271.488C425.813 271.542 426.022 271.42 426.076 271.216C426.136 271.051 426.201 270.89 426.252 270.723C426.302 270.556 426.338 270.385 426.378 270.216C427.149 267.03 427.437 263.903 427.288 260.873C427.024 255.522 425.416 250.475 422.777 245.954C418.528 238.674 411.6 232.761 403.335 229.069C401.9 228.429 400.375 228.032 398.808 227.753C395.329 227.134 391.639 227.114 388.331 226.145C384.214 224.94 378.875 223.068 373.652 222.076C370.021 221.386 366.445 221.124 363.358 221.766C361.715 222.11 357.119 223.793 353.136 225.504C350.095 226.811 347.414 228.147 346.605 228.895C346.205 229.266 345.845 229.67 345.512 230.097C344.27 231.686 343.415 233.592 341.977 235.033C340.518 236.496 338.801 237.593 337.395 239.025C336.769 239.663 336.202 240.366 335.74 241.188C335.403 241.788 335.206 242.394 335.084 243.005C334.815 244.36 334.942 245.741 334.578 247.127C334.051 249.148 332.847 250.987 331.941 252.875C331.9 252.963 331.847 253.046 331.826 253.14C331.786 253.311 331.811 253.442 331.805 253.616C331.768 253.689 331.798 253.779 331.872 253.817C331.945 253.854 332.035 253.825 332.073 253.751Z" fill="#373B00" fill-opacity="0.1" />
        <path fill-rule="evenodd" clip-rule="evenodd" d="M332.187 254.857C332.407 255.3 332.565 255.745 332.794 256.178C332.85 256.283 332.922 256.379 332.985 256.48C334.278 258.552 335.332 260.723 336.681 262.72C337.413 263.804 338.233 264.836 339.218 265.778C340.037 266.56 340.927 267.289 341.869 267.946C342.811 268.604 343.804 269.19 344.826 269.686C348.761 271.583 352.844 271.584 356.58 270.302C360.268 269.036 363.615 266.513 366.137 263.34C367.43 261.712 368.48 259.776 369.799 258.11C370.34 257.427 370.928 256.79 371.604 256.247C372.318 255.672 374.455 254.612 376.852 253.521C380.071 252.057 383.759 250.555 385.209 250.145C388.442 249.231 393.191 248.627 397.926 248.52C402.671 248.412 407.404 248.8 410.569 249.912C413.511 250.94 415.854 253.165 418.57 254.702C419.213 255.064 419.845 255.49 420.567 255.656C420.655 255.676 420.735 255.671 420.825 255.677C421.095 255.779 421.397 255.644 421.501 255.374C421.603 255.104 421.468 254.801 421.198 254.699C421.119 254.642 421.057 254.577 420.973 254.529C420.259 254.118 419.499 253.81 418.8 253.381C416.911 252.221 415.161 250.805 413.243 249.732C412.523 249.329 411.779 248.975 410.996 248.698C407.715 247.546 402.813 247.12 397.896 247.236C393.042 247.351 388.177 247.99 384.865 248.933C383.385 249.354 379.619 250.888 376.336 252.39C373.817 253.542 371.583 254.684 370.833 255.291C370.087 255.893 369.437 256.597 368.84 257.353C367.526 259.022 366.482 260.96 365.192 262.592C362.822 265.595 359.675 267.991 356.2 269.202C352.741 270.408 348.956 270.438 345.297 268.701C344.32 268.241 343.369 267.695 342.466 267.081C341.56 266.464 340.7 265.781 339.909 265.044C338.963 264.166 338.175 263.197 337.464 262.181C336.088 260.217 334.999 258.078 333.669 256.043C333.603 255.941 333.543 255.834 333.467 255.738C333.156 255.347 332.792 255.029 332.428 254.68C332.379 254.613 332.285 254.599 332.218 254.648C332.152 254.697 332.138 254.791 332.187 254.857Z" fill="#373B00" fill-opacity="0.1" />
        <path fill-rule="evenodd" clip-rule="evenodd" d="M303.883 283.95C304.186 284.243 304.45 284.536 304.796 284.771C305.017 284.921 305.27 285.018 305.51 285.135C307.879 286.291 310.392 287.05 312.722 288.241C313.906 288.847 315.043 289.567 316.084 290.521C316.622 291.013 317.019 291.593 317.361 292.207C318.24 293.789 318.77 295.595 319.966 297.004C321.731 299.083 323.342 300.701 324.225 302.763C324.765 304.025 325.02 305.459 324.86 307.282C324.606 310.219 323.573 312.973 322.416 315.701C321.232 318.493 319.915 321.259 319.091 324.154C318.669 325.636 318.376 327.153 318.289 328.723C318.036 333.365 319.908 338.141 320.317 342.811C320.487 344.746 320.397 346.664 319.747 348.545C318.707 351.556 316.708 353.901 314.708 356.231C313.307 357.865 311.901 359.487 310.779 361.294C310.279 362.1 309.8 362.931 309.472 363.839C309.333 364.225 309.238 364.623 309.146 365.028C309.07 365.265 309.201 365.524 309.439 365.597C309.677 365.674 309.933 365.543 310.009 365.306C310.168 364.923 310.359 364.565 310.534 364.199C311.253 362.705 312.114 361.33 313.123 360.045C315.074 357.551 317.384 355.294 319.117 352.627C319.853 351.494 320.483 350.285 320.944 348.959C321.658 346.909 321.775 344.814 321.594 342.699C321.198 338.089 319.332 333.377 319.588 328.795C319.67 327.321 319.949 325.901 320.345 324.511C321.155 321.668 322.454 318.95 323.61 316.207C324.812 313.35 325.86 310.464 326.112 307.387C326.279 305.32 325.97 303.703 325.347 302.277C324.403 300.119 322.716 298.419 320.841 296.253C319.681 294.914 319.179 293.174 318.317 291.668C317.91 290.958 317.431 290.295 316.798 289.731C315.671 288.727 314.448 287.971 313.171 287.344C310.814 286.187 308.277 285.475 305.878 284.361C305.646 284.253 305.425 284.116 305.184 284.024C304.803 283.881 304.427 283.821 304.037 283.693C303.967 283.651 303.874 283.673 303.832 283.744C303.789 283.815 303.812 283.907 303.883 283.95Z" fill="#373B00" fill-opacity="0.1" />
        <path fill-rule="evenodd" clip-rule="evenodd" d="M303.527 283.88C303.261 283.802 303.013 283.716 302.733 283.682C302.557 283.66 302.377 283.672 302.197 283.677C298.578 283.772 294.644 285.536 291.215 288.007C287.357 290.787 284.147 294.527 282.721 298.035C281.553 300.908 281.65 304.028 280.871 306.972C280.687 307.666 280.453 308.35 280.134 309.018C278.64 312.142 276.818 315.042 275.428 318.165C274.826 319.521 274.304 320.916 273.921 322.393C273.474 324.112 273.332 325.711 273.327 327.288C273.32 329.637 273.625 331.931 273.645 334.5C273.666 336.997 273.308 339.511 273.233 342.018C273.2 343.123 273.221 344.227 273.349 345.33C273.693 348.296 275.337 353.223 277.389 357.961C279.459 362.743 281.944 367.331 283.87 369.541C286.285 372.31 289.117 375.289 292.203 377.821C294.301 379.541 296.518 381.055 298.791 382.168C300.468 382.976 302.342 383.258 304.074 383.909C304.481 384.06 304.879 384.239 305.264 384.447C305.513 384.584 305.828 384.496 305.966 384.246C306.104 383.996 306.014 383.681 305.765 383.544C305.341 383.305 304.901 383.106 304.453 382.928C302.766 382.26 300.935 381.946 299.309 381.121C297.121 380.031 294.998 378.548 292.979 376.879C289.955 374.378 287.17 371.454 284.799 368.73C282.927 366.583 280.532 362.117 278.51 357.475C276.501 352.865 274.859 348.082 274.514 345.196C274.389 344.149 274.365 343.101 274.393 342.048C274.459 339.529 274.808 337 274.777 334.486C274.745 331.925 274.431 329.636 274.426 327.29C274.424 325.801 274.547 324.287 274.961 322.661C275.322 321.24 275.818 319.897 276.391 318.593C277.761 315.471 279.564 312.571 281.037 309.447C281.379 308.719 281.632 307.975 281.828 307.22C282.579 304.313 282.445 301.225 283.578 298.38C284.925 294.99 288.007 291.382 291.697 288.669C294.979 286.256 298.747 284.598 302.229 284.36C302.399 284.349 302.569 284.351 302.736 284.329C303.004 284.293 303.244 284.219 303.508 284.178C303.59 284.184 303.662 284.121 303.667 284.039C303.672 283.956 303.61 283.885 303.527 283.88Z" fill="#373B00" fill-opacity="0.1" />
    </g>
    <g style="mix-blend-mode:multiply">
        <path d="M429.562 160.624C445.111 118.95 474.943 114.786 490.02 116.953C496.938 120.654 498.034 106.77 501.128 110.395C504.222 114.019 499.554 121.762 505.2 124.461C510.845 127.161 510.734 114.308 515.135 118.486C519.537 122.664 514.764 131.751 519.484 131.899C524.204 132.046 524.187 123.708 526.974 125.505C529.762 127.303 527.504 135.912 529.561 141.257C531.617 146.602 544.762 147.77 547.687 174.235C551.104 205.15 535.875 235.422 499.48 242.534C489.547 244.474 475.375 241.262 462.11 233.971C459.396 232.48 456.72 230.817 454.126 228.994C451.64 227.246 449.23 225.349 446.933 223.313C430.416 208.665 419.81 186.762 429.562 160.624Z" fill="#265792" fill-opacity="0.1" />
    </g>
    <g style="mix-blend-mode:multiply">
        <path d="M498.215 566.366C520.483 562.124 576.684 474.112 483.369 452.904C390.055 431.696 395.357 601.359 498.215 566.366Z" fill="#265792" fill-opacity="0.1" />
        <path d="M496.569 562.23C517.171 558.306 569.166 476.88 482.834 457.259C396.503 437.638 401.408 594.604 496.569 562.23Z" fill="#ECE7BE" fill-opacity="0.1" />
        <path d="M479.494 538.321C482.677 538.321 480.894 528.713 478.745 520.739C477.758 517.076 474.242 514.398 470.726 515.825C459.974 520.19 456.761 535.095 460.181 535.406C464.19 535.77 461.274 523.746 467.833 524.474C474.393 525.203 463.825 543.058 470.02 542.329C476.214 541.601 468.927 528.847 474.028 527.754C479.13 526.661 474.393 538.321 479.494 538.321Z" fill="#E48465" fill-opacity="0.1" />
        <path d="M448.298 514.242C447.884 517.398 457.642 516.879 465.828 515.785C469.588 515.282 472.701 512.144 471.743 508.473C468.812 497.244 454.451 492.121 453.699 495.472C452.816 499.399 465.118 498.071 463.543 504.48C461.968 510.889 445.638 498.09 445.555 504.327C445.472 510.564 459.065 504.996 459.486 510.196C459.907 515.396 448.961 509.184 448.298 514.242Z" fill="#E48465" fill-opacity="0.1" />
        <path d="M470.689 487.894C467.53 488.287 470.486 497.601 473.603 505.249C475.035 508.762 478.856 510.985 482.168 509.135C492.299 503.475 493.646 488.288 490.213 488.401C486.191 488.535 490.569 500.108 483.97 500.195C477.371 500.282 485.652 481.258 479.595 482.746C473.538 484.235 482.345 495.99 477.418 497.705C472.491 499.42 475.751 487.264 470.689 487.894Z" fill="#E48465" fill-opacity="0.1" />
        <path d="M503.708 510.562C504.065 507.399 494.318 508.092 486.153 509.333C482.402 509.903 479.346 513.096 480.37 516.75C483.501 527.924 497.951 532.79 498.644 529.426C499.456 525.484 487.179 527.031 488.64 520.595C490.1 514.159 506.656 526.664 506.627 520.426C506.599 514.189 493.108 519.999 492.594 514.808C492.08 509.616 503.135 515.632 503.708 510.562Z" fill="#E48465" fill-opacity="0.1" />
    </g>
    <g style="mix-blend-mode:multiply">
        <path d="M556.251 235.112C524.447 240.109 531.413 276.639 517.916 301.876C498.209 329.902 484.967 333.998 484.066 379.08C482.833 440.716 588.229 470.686 615.93 400.779C634.131 354.848 597.219 321.248 588.524 308.038C576.365 289.566 588.054 230.115 556.251 235.112Z" fill="#EE6B4E" fill-opacity="0.1" />
        <path d="M555.388 251.485C530.85 255.34 535.73 289.941 525.316 309.412C510.111 331.035 499.018 347.742 498.323 382.524C497.372 430.078 578.687 453.201 600.06 399.265C614.102 363.828 584.186 323.373 577.477 313.181C568.096 298.929 579.925 247.629 555.388 251.485Z" fill="#FFEBCC" fill-opacity="0.1" />
        <path d="M545.174 321.362C523.605 325.649 488.084 405.611 547.103 413.016C606.122 420.421 587.087 313.033 545.174 321.362Z" fill="white" fill-opacity="0.1" />
        <path d="M554.109 365.439C554.187 357.212 556.308 341.446 564.167 344.205C573.99 347.654 562.753 367.925 554.109 365.439Z" fill="#48300B" fill-opacity="0.1" />
        <path d="M555.878 387.092C558.434 379.271 565.21 364.878 571.871 369.879C580.197 376.129 563.371 392.069 555.878 387.092Z" fill="#48300B" fill-opacity="0.1" />
        <path d="M548.314 372.84C546.4 364.838 540.811 349.944 533.767 354.389C524.962 359.945 540.443 377.194 548.314 372.84Z" fill="#48300B" fill-opacity="0.1" />
        <path d="M551.426 394.341C547.188 387.288 537.368 374.773 531.992 381.135C525.272 389.087 545.234 400.865 551.426 394.341Z" fill="#48300B" fill-opacity="0.1" />
    </g>
    <g style="mix-blend-mode:multiply">
        <path d="M393.8 88.1819C402.518 98.7043 402.676 166.261 372.703 188.814C337.12 206.624 282.701 158.675 279.503 145.389C284.939 145.042 288.166 143.3 289.101 142.473C284.855 133.092 277.159 110.102 280.344 93.1897C284.314 95.0862 287.176 96.0629 288.111 96.3141C288.573 83.5877 291.286 54.5967 298.441 40.444C314.059 43.1985 338.892 58.4022 349.357 65.6597C349.716 64.7608 350.649 61.8844 351.51 57.5701C366.957 65.1563 380.749 85.0955 385.714 94.1169C386.936 93.8647 390.264 92.3247 393.8 88.1819Z" fill="#909E00" fill-opacity="0.1" />
        <path fill-rule="evenodd" clip-rule="evenodd" d="M303.722 50.034C303.732 50.0426 303.743 50.0511 303.754 50.0597C304.281 50.4744 304.844 50.8549 305.314 51.1724C305.411 51.238 305.504 51.3008 305.592 51.3608C307.401 52.5941 309.304 53.5597 311.209 54.4697C311.649 54.68 312.089 54.887 312.528 55.0935C313.996 55.7849 315.453 56.471 316.886 57.2581C318.231 57.9973 319.626 58.6477 321.005 59.2903C321.316 59.4354 321.626 59.58 321.935 59.7252C323.62 60.5176 325.266 61.3299 326.803 62.3287C327.456 62.7524 328.11 63.1705 328.764 63.5879C330.665 64.8023 332.556 66.0104 334.356 67.3309C341.617 72.6569 348.955 77.918 357.754 80.6052C361.349 81.7033 364.657 83.2056 367.228 85.935C370.923 89.8572 374.222 94.4513 377.111 99.0158C377.308 99.3269 377.506 99.6392 377.705 99.9528C382.836 108.046 388.491 116.968 389.29 126.51C389.688 131.256 388.41 136.046 387.158 140.739C387.089 140.999 387.019 141.259 386.951 141.518C386.845 141.913 386.741 142.309 386.637 142.703C385.681 146.32 384.738 149.885 383.418 153.359C382.849 154.857 382.232 156.364 381.612 157.878C380.661 160.201 379.704 162.541 378.899 164.892C376.792 171.053 374.067 176.938 370.29 182.216C370.286 182.188 370.282 182.161 370.278 182.133C370.216 181.739 370.114 181.321 370 180.918C369.894 180.542 369.775 180.168 369.668 179.829L369.643 179.751C369.527 179.386 369.429 179.072 369.368 178.825C368.809 176.573 368.111 174.377 367.419 172.2C367.232 171.611 367.046 171.024 366.862 170.438C365.998 167.673 365.203 164.91 364.75 162.02C363.942 156.865 363.55 151.361 364.105 146.185C364.276 144.596 364.687 143.112 365.116 141.569C365.288 140.95 365.462 140.321 365.625 139.671C366.982 134.254 367.308 128.361 366.551 122.82C366.343 121.299 366.166 119.741 365.987 118.168C365.543 114.258 365.089 110.254 364.125 106.504C363.09 102.479 361.542 98.5756 359.103 95.1429C357.677 93.1354 355.671 91.4338 353.799 89.9641C351.106 87.8508 348.196 85.7235 345.147 84.0863C341.885 82.3354 338.747 80.3578 335.607 78.3461C335.227 78.103 334.848 77.8593 334.468 77.6155C331.71 75.8449 328.939 74.0662 326.089 72.4235C324.03 71.2367 322.064 69.8473 320.075 68.4422C319.784 68.2367 319.493 68.0308 319.201 67.8252C316.92 66.2204 314.595 64.6352 312.098 63.3976C309.515 62.1168 307.909 59.9497 306.598 57.2804C305.849 55.7552 305.261 54.1526 304.666 52.5303C304.434 51.9001 304.202 51.267 303.959 50.6343C303.898 50.4769 303.815 50.2671 303.722 50.034ZM370.478 183.594C374.638 178.011 377.575 171.743 379.812 165.204C380.612 162.867 381.545 160.587 382.484 158.294C383.106 156.776 383.73 155.252 384.319 153.702C385.659 150.178 386.614 146.563 387.568 142.953C387.673 142.557 387.778 142.161 387.883 141.766C387.955 141.492 388.029 141.218 388.102 140.943C389.344 136.291 390.664 131.349 390.252 126.43C389.432 116.645 383.659 107.54 378.565 99.5072C378.351 99.1695 378.138 98.8337 377.926 98.4999C375.019 93.9063 371.682 89.2567 367.93 85.2736C365.192 82.3668 361.698 80.8014 358.035 79.6827C349.416 77.05 342.201 71.889 334.927 66.5531C333.099 65.2125 331.17 63.9802 329.262 62.7612C328.613 62.3471 327.968 61.9345 327.329 61.5196C325.732 60.4828 324.036 59.6472 322.346 58.8523C322.03 58.704 321.715 58.5572 321.401 58.4108C320.024 57.7689 318.665 57.1349 317.35 56.4127C315.889 55.6097 314.395 54.9063 312.921 54.2125C312.487 54.008 312.054 53.8044 311.625 53.5992C309.73 52.694 307.881 51.754 306.135 50.5637C306.041 50.4999 305.944 50.4342 305.844 50.3668C305.375 50.0494 304.847 49.6927 304.351 49.302C303.745 48.824 303.236 48.333 302.96 47.8572C302.927 47.8012 302.895 47.7488 302.865 47.7058C302.85 47.685 302.829 47.6565 302.803 47.6279L302.801 47.6265C302.789 47.6122 302.714 47.5288 302.59 47.4859C302.509 47.4575 302.357 47.4312 302.198 47.517C302.048 47.598 301.989 47.7276 301.967 47.791C301.931 47.8983 301.941 47.9939 301.944 48.0136L301.944 48.0155C301.95 48.0779 301.967 48.14 301.978 48.1788C302 48.2555 302.034 48.3588 302.077 48.4791C302.025 48.5161 301.985 48.5595 301.957 48.5997C301.905 48.6735 301.884 48.7449 301.875 48.7821C301.857 48.8575 301.856 48.9275 301.857 48.9631C301.857 49.0065 301.861 49.0501 301.864 49.0875C301.869 49.1407 301.876 49.2029 301.883 49.2549C301.885 49.2728 301.887 49.2895 301.889 49.3042C301.893 49.3365 301.895 49.3631 301.897 49.3849C301.899 49.4084 301.899 49.417 301.899 49.4157C301.894 49.7397 301.896 50.0412 301.899 50.3357C301.902 50.7359 301.906 51.1232 301.888 51.537C301.835 52.8316 301.596 54.0834 301.347 55.3861C301.301 55.6263 301.255 55.8681 301.209 56.1124C300.906 57.7387 300.39 59.1769 299.851 60.677C299.589 61.4089 299.321 62.1555 299.069 62.9458C297.883 66.6793 296.779 70.5241 296.087 74.4106C295.013 80.4381 295.116 86.9879 295.291 93.0176C295.485 99.7508 294.881 106.684 293.624 113.304C291.606 123.926 290.258 135.325 294.576 145.747C296.564 150.547 298.855 155.589 301.96 159.829C304.521 163.327 307.614 167.289 311.545 169.533C315.328 171.693 319.373 173.946 323.474 175.55C323.905 175.719 324.343 175.894 324.787 176.071C327.774 177.263 331.025 178.561 334.287 178.837C335.259 178.919 336.232 178.942 337.19 178.962L337.375 178.966C338.274 178.984 339.159 179.001 340.041 179.063C340.554 179.099 341.062 179.152 341.578 179.207C341.767 179.227 341.957 179.247 342.149 179.266C342.858 179.337 343.583 179.398 344.317 179.398C346.022 179.397 348.008 179.844 349.647 180.389C351.21 180.91 352.818 181.271 354.405 181.628C355.296 181.829 356.181 182.028 357.048 182.253L357.191 182.29C359.995 183.018 362.97 183.79 365.864 184.078C365.92 184.083 366.024 184.105 366.19 184.15C366.322 184.186 366.473 184.231 366.643 184.281C366.678 184.291 366.714 184.301 366.75 184.312C367.169 184.435 367.68 184.581 368.171 184.669C368.645 184.753 369.184 184.799 369.625 184.656C369.859 184.58 370.086 184.445 370.251 184.218C370.384 184.036 370.455 183.823 370.478 183.594ZM303.34 51.7241C303.474 52.0855 303.608 52.4503 303.743 52.8169C304.345 54.4563 304.96 56.1317 305.733 57.7056C307.088 60.4644 308.815 62.8468 311.67 64.2619C314.094 65.4634 316.366 67.0099 318.646 68.6141C318.935 68.818 319.225 69.0229 319.516 69.2281C321.501 70.631 323.507 72.0485 325.607 73.2593C328.436 74.8896 331.186 76.655 333.946 78.4268C334.326 78.6707 334.706 78.9146 335.086 79.1583C338.227 81.1704 341.393 83.166 344.69 84.9361C347.665 86.5334 350.523 88.6196 353.203 90.7229C355.068 92.1869 356.977 93.8163 358.317 95.7016C360.667 99.0102 362.175 102.795 363.19 106.745C364.137 110.426 364.579 114.323 365.02 118.205C365.2 119.795 365.381 121.382 365.595 122.95C366.335 128.37 366.016 134.139 364.689 139.437C364.539 140.034 364.373 140.633 364.206 141.237C363.77 142.809 363.326 144.409 363.146 146.082C362.579 151.37 362.981 156.964 363.797 162.169C364.262 165.133 365.075 167.952 365.942 170.726C366.128 171.322 366.317 171.916 366.505 172.508C367.196 174.681 367.881 176.839 368.432 179.057C368.502 179.34 368.61 179.685 368.724 180.043L368.748 180.118C368.856 180.46 368.97 180.82 369.071 181.179C369.18 181.566 369.272 181.942 369.324 182.281C369.363 182.532 369.378 182.745 369.369 182.919C369.289 182.922 369.177 182.918 369.029 182.901C368.589 182.849 367.99 182.702 367.359 182.516C366.102 182.147 364.824 181.655 364.676 181.592C358.109 178.765 353.249 173.847 348.289 168.828C347.647 168.178 347.003 167.527 346.354 166.878C344.885 165.41 343.309 164.112 341.738 162.818C341.201 162.375 340.664 161.933 340.132 161.484C339.408 160.874 338.707 160.242 337.999 159.605C337.8 159.426 337.6 159.246 337.399 159.066C336.488 158.251 335.559 157.437 334.571 156.679C329.77 152.998 326.047 148.431 323.144 143.08C320.056 137.39 317.218 131.383 314.666 125.425C314.297 124.564 313.928 123.705 313.559 122.847C309.687 113.832 305.853 104.907 303.073 95.5123C301.805 91.2282 301.112 86.6303 300.433 82.1305C300.33 81.441 300.226 80.7539 300.121 80.0706C299.636 76.9245 299.225 73.7855 299.319 70.6441C299.373 68.855 299.803 67.0702 300.236 65.2704C300.277 65.101 300.318 64.9314 300.358 64.7617C300.504 64.1518 300.629 63.525 300.751 62.9078C300.815 62.5889 300.878 62.2725 300.943 61.9623C301.136 61.0387 301.354 60.1414 301.675 59.2813C301.728 59.1389 301.781 58.997 301.835 58.8552C302.301 57.6112 302.762 56.3839 303.064 55.0421C303.204 54.421 303.222 53.7744 303.238 53.178C303.24 53.136 303.241 53.0942 303.242 53.0527C303.256 52.5841 303.273 52.1439 303.34 51.7241ZM298.846 66.9927C298.593 68.1794 298.392 69.3947 298.355 70.6152C298.258 73.8518 298.682 77.0659 299.167 80.2174C299.272 80.8954 299.375 81.5792 299.478 82.2672C300.156 86.7616 300.86 91.4327 302.148 95.786C304.945 105.238 308.801 114.215 312.67 123.221C313.04 124.082 313.41 124.943 313.779 125.804C316.34 131.784 319.192 137.819 322.296 143.54C325.256 148.996 329.064 153.672 333.984 157.445C334.941 158.179 335.848 158.972 336.755 159.785C336.952 159.961 337.149 160.138 337.347 160.316C338.056 160.955 338.773 161.6 339.511 162.222C340.061 162.686 340.61 163.138 341.154 163.586C342.714 164.872 344.238 166.128 345.672 167.56C346.316 168.204 346.958 168.854 347.6 169.504C352.544 174.51 357.543 179.571 364.295 182.478C364.435 182.538 365.219 182.84 366.15 183.148C366.083 183.135 366.019 183.124 365.96 183.118C363.141 182.837 360.228 182.081 357.399 181.347L357.291 181.319C356.357 181.077 355.443 180.872 354.54 180.669C352.992 180.322 351.477 179.982 349.951 179.474C348.26 178.911 346.165 178.432 344.316 178.433C343.633 178.433 342.947 178.377 342.245 178.306C342.063 178.288 341.88 178.268 341.694 178.249C341.172 178.194 340.639 178.138 340.108 178.101C339.201 178.037 338.293 178.019 337.399 178.001L337.209 177.997C336.25 177.978 335.306 177.955 334.369 177.876C331.261 177.613 328.158 176.376 325.158 175.18C324.711 175.002 324.267 174.825 323.825 174.652C319.798 173.076 315.809 170.857 312.023 168.696C308.294 166.567 305.309 162.77 302.738 159.259C299.706 155.118 297.452 150.169 295.467 145.378C291.268 135.242 292.556 124.095 294.571 113.484C295.841 106.801 296.451 99.7975 296.255 92.9897C296.08 86.953 295.983 80.4967 297.037 74.5798C297.49 72.0339 298.124 69.4998 298.846 66.9927Z" fill="#656F08" fill-opacity="0.1" />
    </g>
    <g style="mix-blend-mode:multiply">
        <path d="M332.759 456.471C342.7 497.744 296.841 502.841 272.668 500.231C274.825 504.683 278.205 519.191 274.471 541.608C269.803 569.629 251.891 576.138 218.887 569.219C185.883 562.301 157.829 546.893 151.425 531.099C145.021 515.305 159.09 524.474 159.466 510.654C159.842 496.834 149.401 497.852 143.927 471.832C138.452 445.813 131.097 441.057 141.77 419.545C152.444 398.033 194.622 408.618 213.297 409.94C231.973 411.261 221.46 396.983 237.984 387.671C254.508 378.358 259.12 388.245 279.106 407.175C299.092 426.105 320.333 404.881 332.759 456.471Z" fill="#4C7E24" fill-opacity="0.1" />
        <path fill-rule="evenodd" clip-rule="evenodd" d="M146.358 431.507C145.783 431.891 145.596 432.66 145.945 433.268C147.841 436.575 148.941 440.021 150.112 443.689C150.46 444.782 150.815 445.894 151.199 447.028C153.501 453.823 155.572 460.742 157.554 467.66C157.812 468.564 158.061 469.483 158.311 470.411C158.994 472.94 159.694 475.533 160.677 478.057C161 478.885 161.347 479.724 161.695 480.566C162.785 483.203 163.89 485.876 164.317 488.372C164.753 490.93 165.376 493.445 165.986 495.908C166.087 496.317 166.188 496.726 166.288 497.132C166.993 500.006 167.64 502.826 167.967 505.71C168.714 512.294 169.519 519.347 170.905 525.914C172.394 532.97 178.666 537.882 183.986 541.128C185.699 542.174 187.374 543.303 189.085 544.457C189.86 544.98 190.642 545.507 191.439 546.034C193.964 547.705 196.585 549.335 199.367 550.612C205.444 553.4 211.349 555.228 217.74 556.96C218.86 557.264 219.972 557.608 221.108 557.96C221.23 557.997 221.352 558.035 221.474 558.073C222.728 558.461 224.012 558.852 225.313 559.18C227.919 559.838 230.661 560.264 233.58 559.924C245.096 558.583 250.809 549.55 255.591 540.786C258.66 535.161 259.567 529.005 260.442 523.072C260.493 522.72 260.545 522.369 260.597 522.019C261.267 517.519 261.305 512.557 260.261 507.988C259.276 503.68 260.553 499.036 263.683 496.129C263.805 496.016 263.927 495.902 264.049 495.789C267.105 492.948 270.104 490.159 273.778 488.788C276.819 487.653 279.951 486.798 283.148 485.925C283.384 485.861 283.622 485.796 283.859 485.731C287.279 484.795 290.762 483.817 294.129 482.443C294.288 482.378 294.451 482.312 294.616 482.245C296.128 481.631 297.863 480.926 299.506 480.07C301.326 479.122 303.135 477.939 304.483 476.38C306.132 474.473 306.56 471.907 306.515 469.55C306.469 467.166 305.935 464.77 305.425 462.973C305.092 461.797 304.768 460.621 304.444 459.447C302.222 451.374 300.025 443.394 294.769 436.125C289.767 429.205 283.966 422.454 278.247 416.201C276.772 414.588 275.452 412.934 274.092 411.23C273.482 410.464 272.863 409.689 272.219 408.902C272.013 408.651 271.794 408.381 271.564 408.097C270.582 406.885 269.392 405.417 268.116 404.063C266.558 402.411 264.734 400.776 262.819 399.958C259.541 398.557 256.759 398.576 254.148 399.534C251.634 400.458 249.349 402.234 247.009 404.121C245.883 405.03 244.708 405.947 243.523 406.871C241.901 408.138 240.26 409.419 238.699 410.712C236.382 412.634 233.654 414.034 230.824 415.485C229.76 416.031 228.682 416.584 227.606 417.175C222.463 420 216.604 422.669 211.027 424.281C205.557 425.862 200.348 424.437 194.609 422.748C187.973 420.794 181.572 419.317 174.865 417.891C170.746 417.015 166.13 416.287 161.653 417.751C160.201 418.226 158.893 418.953 157.708 419.641C157.542 419.738 157.379 419.833 157.219 419.927C156.196 420.524 155.269 421.066 154.302 421.476C153.951 421.624 153.583 421.922 153.319 422.147C153.004 422.414 152.635 422.756 152.242 423.138C151.453 423.903 150.52 424.875 149.637 425.841C148.756 426.805 147.907 427.783 147.291 428.56C146.987 428.944 146.716 429.308 146.526 429.61C146.435 429.755 146.33 429.935 146.254 430.125C146.218 430.217 146.164 430.369 146.141 430.556C146.121 430.717 146.098 431.112 146.358 431.507ZM149.155 433.66C150.676 436.725 151.692 439.915 152.69 443.045C153.026 444.098 153.359 445.145 153.709 446.178C156.03 453.03 158.114 459.995 160.101 466.93C160.384 467.92 160.646 468.89 160.905 469.847C161.574 472.328 162.219 474.715 163.146 477.095C163.421 477.8 163.733 478.555 164.06 479.343C165.173 482.03 166.447 485.107 166.929 487.926C167.348 490.38 167.944 492.79 168.554 495.257C168.657 495.67 168.759 496.084 168.861 496.501C169.569 499.384 170.252 502.346 170.6 505.412C171.35 512.017 172.142 518.945 173.497 525.366C174.738 531.243 180.091 535.647 185.366 538.866C187.132 539.944 188.891 541.129 190.626 542.3C191.389 542.814 192.148 543.326 192.901 543.825C195.396 545.475 197.88 547.014 200.472 548.204C206.353 550.902 212.096 552.685 218.433 554.403C219.602 554.72 220.759 555.078 221.889 555.428C222.012 555.466 222.134 555.504 222.257 555.541C223.512 555.929 224.735 556.302 225.962 556.611C228.41 557.23 230.802 557.58 233.273 557.292C243.302 556.124 248.444 548.353 253.265 539.517C256.1 534.321 256.945 528.602 257.838 522.561C257.884 522.251 257.93 521.941 257.976 521.629C258.61 517.369 258.631 512.751 257.678 508.578C256.58 503.779 257.805 498.55 261.132 494.939C260.942 494.981 260.742 495.029 260.53 495.08C260.39 495.114 260.245 495.149 260.093 495.184C259.475 495.33 258.736 495.489 258.039 495.501C257.655 495.508 257.19 495.679 256.632 496.115C256.075 496.549 255.51 497.181 254.955 497.942C254.014 499.231 253.223 500.715 252.593 501.898C252.474 502.122 252.36 502.334 252.253 502.533C251.346 504.207 250.483 506.019 249.599 507.904C249.476 508.167 249.352 508.432 249.228 508.698C248.466 510.326 247.684 511.999 246.855 513.637C244.932 517.44 242.693 521.192 239.669 524.05C231.366 531.898 220.313 536.283 208.815 532.858C195.513 528.895 184.26 518.346 179.484 505.287C176.735 497.772 175.218 489.973 173.798 482.255C173.697 481.709 173.597 481.163 173.497 480.617C172.179 473.427 170.878 466.33 168.688 459.454C166.691 453.185 163.866 447.872 159.36 443.238C158.919 442.784 158.484 442.334 158.053 441.888C155.463 439.208 153.01 436.67 150.165 434.311C149.94 434.124 149.604 433.924 149.155 433.66ZM264.386 491.88C266.84 489.684 269.595 487.521 272.851 486.306C276.01 485.127 279.254 484.241 282.427 483.375C282.672 483.308 282.916 483.242 283.16 483.175C286.587 482.238 289.927 481.296 293.128 479.99C293.288 479.925 293.45 479.859 293.612 479.793C295.139 479.172 296.756 478.514 298.281 477.72C299.971 476.84 301.445 475.842 302.479 474.647C303.503 473.462 303.906 471.687 303.866 469.601C303.826 467.542 303.358 465.394 302.876 463.697C302.534 462.491 302.205 461.299 301.88 460.12C299.643 452.017 297.577 444.531 292.622 437.677C287.703 430.874 281.978 424.207 276.291 417.989C274.754 416.308 273.344 414.54 271.957 412.802C271.359 412.053 270.766 411.31 270.169 410.582C269.947 410.311 269.717 410.027 269.479 409.733C268.499 408.524 267.389 407.154 266.188 405.881C264.68 404.281 263.166 402.988 261.778 402.394C259.088 401.245 257.005 401.308 255.061 402.022C253.02 402.771 251.06 404.258 248.673 406.184C247.462 407.161 246.269 408.091 245.085 409.014C243.51 410.243 241.951 411.458 240.391 412.752C237.831 414.875 234.712 416.474 231.802 417.966C230.793 418.484 229.809 418.988 228.882 419.497C223.632 422.381 217.587 425.143 211.763 426.826C205.446 428.652 199.509 426.952 193.861 425.289C187.32 423.364 180.994 421.904 174.314 420.483C170.217 419.611 166.223 419.045 162.476 420.27C161.313 420.65 160.215 421.25 159.038 421.933C158.885 422.022 158.73 422.113 158.573 422.205C157.568 422.793 156.485 423.426 155.356 423.907C155.361 423.905 155.364 423.904 155.364 423.904C155.366 423.907 155.267 423.969 155.034 424.167C154.781 424.381 154.46 424.677 154.088 425.039C153.346 425.759 152.451 426.691 151.593 427.629C150.734 428.569 149.93 429.496 149.367 430.206C149.276 430.321 149.194 430.428 149.12 430.525C149.3 430.652 149.507 430.784 149.735 430.923C149.896 430.738 150.073 430.628 150.165 430.575C150.376 430.454 150.626 430.361 150.859 430.285C151.64 430.029 152.39 429.601 153.282 429.084L153.333 429.055C154.169 428.57 155.142 428.007 156.211 427.658C158.805 426.809 161.653 426.217 164.345 425.852C170.51 425.015 178.236 426.196 183.936 428.502C186.636 429.595 189.144 431.028 191.557 432.497C192.23 432.907 192.893 433.317 193.55 433.724C195.278 434.794 196.97 435.842 198.724 436.798C199.722 437.342 200.695 437.892 201.652 438.432C206.183 440.992 210.376 443.361 215.407 444.109C222.946 445.23 232.329 442.653 238.798 438.539C240.034 437.753 241.251 436.915 242.495 436.059C242.785 435.859 243.076 435.659 243.369 435.458C244.909 434.402 246.492 433.34 248.137 432.386C251.43 430.477 255.038 428.964 259.226 428.773C263.291 428.588 266.723 429.338 269.684 431.057C272.634 432.768 275.014 435.381 277.083 438.754C281.044 445.21 282.032 453.256 279.099 460.401C277.729 463.737 275.51 466.549 273.428 469.186C273.113 469.585 272.801 469.98 272.496 470.373C269.042 474.811 266.928 479.554 265.42 485.022C265.321 485.383 265.24 486.036 265.144 486.966C265.131 487.088 265.118 487.214 265.105 487.342C265.025 488.134 264.933 489.034 264.802 489.894C264.702 490.555 264.571 491.242 264.386 491.88ZM153.143 433.37C155.579 435.513 157.769 437.78 159.973 440.061C160.401 440.504 160.829 440.947 161.26 441.391C166.114 446.383 169.121 452.085 171.212 458.65C173.457 465.694 174.786 472.951 176.097 480.107C176.199 480.664 176.301 481.22 176.404 481.776C177.826 489.503 179.31 497.098 181.972 504.377C186.46 516.647 197.069 526.594 209.571 530.318C219.903 533.396 230.011 529.532 237.849 522.124C240.532 519.588 242.604 516.171 244.491 512.441C245.3 510.843 246.062 509.211 246.825 507.581C246.95 507.314 247.075 507.047 247.2 506.78C248.084 504.894 248.975 503.02 249.923 501.271C250.017 501.097 250.121 500.902 250.233 500.692C250.858 499.517 251.752 497.837 252.814 496.381C253.076 496.021 253.356 495.664 253.654 495.323C250.793 496.328 247.448 497.294 244.442 497.508C243.942 497.544 243.375 497.598 242.779 497.656C241.83 497.747 240.808 497.846 239.868 497.886C238.26 497.954 236.542 497.882 234.917 497.344C229.443 495.531 225.097 492.545 220.811 488.913C213.721 482.903 208.019 475.673 203.091 467.908C202.064 466.292 201.068 464.624 200.076 462.963L199.947 462.748C198.909 461.01 197.873 459.28 196.79 457.589C194.624 454.205 192.305 451.029 189.519 448.373C187.395 446.348 184.439 444.663 181.558 443.021C180.832 442.607 180.11 442.196 179.408 441.782C174.365 438.814 168.69 436.657 163.038 434.813C159.93 433.799 156.571 433.532 153.143 433.37ZM261.767 491.382C261.567 491.345 261.368 491.319 261.176 491.299C260.394 491.221 259.537 491.245 258.711 491.323C257.07 491.479 255.368 491.867 254.327 492.258C251.201 493.433 247.434 494.639 244.254 494.865C243.597 494.912 242.98 494.972 242.372 495.032C241.51 495.117 240.667 495.2 239.755 495.238C238.278 495.301 236.931 495.22 235.75 494.829C230.728 493.165 226.681 490.415 222.525 486.892C215.699 481.106 210.163 474.106 205.328 466.488C204.321 464.903 203.341 463.263 202.344 461.593L202.222 461.389C201.186 459.655 200.129 457.891 199.022 456.161C196.808 452.702 194.356 449.323 191.347 446.455C188.962 444.182 185.626 442.284 182.725 440.634C182.037 440.242 181.373 439.864 180.752 439.499C175.462 436.385 169.573 434.158 163.859 432.294C161.14 431.407 158.295 431.045 155.535 430.852C156.052 430.571 156.537 430.339 157.034 430.176C159.443 429.389 162.129 428.827 164.701 428.478C170.358 427.71 177.62 428.805 182.942 430.958C185.437 431.968 187.796 433.31 190.18 434.761C190.814 435.146 191.453 435.542 192.097 435.941C193.846 437.024 195.632 438.13 197.456 439.125C198.374 439.625 199.292 440.145 200.217 440.669C204.758 443.242 209.455 445.902 215.017 446.73C223.309 447.963 233.327 445.159 240.22 440.775C241.501 439.96 242.768 439.088 244.014 438.23C244.3 438.034 244.584 437.838 244.868 437.643C246.4 436.593 247.914 435.578 249.466 434.679C252.565 432.882 255.748 431.584 259.347 431.42C263 431.254 265.909 431.929 268.354 433.348C270.812 434.774 272.906 437.012 274.825 440.139C278.386 445.945 279.23 453.105 276.647 459.395C275.43 462.361 273.465 464.855 271.369 467.516C271.05 467.921 270.728 468.33 270.405 468.746C266.691 473.519 264.443 478.597 262.866 484.318C262.695 484.938 262.596 485.837 262.508 486.694C262.495 486.823 262.481 486.953 262.468 487.084C262.387 487.88 262.303 488.706 262.183 489.495C262.069 490.241 261.933 490.884 261.767 491.382Z" fill="#699D40" fill-opacity="0.1" />
    </g>
    <g style="mix-blend-mode:multiply">
        <path d="M94.1139 205.858C81.0817 236.984 95.9992 243.981 78.0198 281.429C13.6747 415.45 212.961 376.34 224.44 305.238C235.919 234.137 112.033 163.06 94.1139 205.858Z" fill="#E95C5C" fill-opacity="0.1" />
        <path d="M112.187 353.858C111.121 358.801 100.825 355.39 94.2023 352.355C93.4747 352.021 93.6143 350.995 94.4039 350.864C101.949 349.612 113.26 348.888 112.187 353.858Z" fill="#B53737" fill-opacity="0.1" />
        <path d="M123.15 338.641C121.033 343.234 111.727 337.663 105.924 333.259C105.286 332.775 105.646 331.804 106.445 331.848C114.082 332.268 125.278 334.024 123.15 338.641Z" fill="#B53737" fill-opacity="0.1" />
        <path d="M126.33 312.228C127.259 317.199 116.444 318.036 109.163 317.799C108.363 317.773 108.095 316.773 108.772 316.346C115.246 312.273 125.396 307.23 126.33 312.228Z" fill="#B53737" fill-opacity="0.1" />
        <path d="M143.336 303.435C139.122 306.23 134.132 296.599 131.51 289.802C131.222 289.056 132.038 288.418 132.695 288.876C138.971 293.248 147.574 300.626 143.336 303.435Z" fill="#B53737" fill-opacity="0.1" />
        <path d="M142.839 264.659C144.039 269.571 133.287 270.999 126.003 271.162C125.203 271.18 124.881 270.196 125.534 269.733C131.774 265.311 141.632 259.719 142.839 264.659Z" fill="#B53737" fill-opacity="0.1" />
        <path d="M168.635 264.423C165.432 268.336 157.824 260.606 153.313 254.885C152.818 254.257 153.41 253.407 154.173 253.65C161.459 255.976 171.855 260.489 168.635 264.423Z" fill="#B53737" fill-opacity="0.1" />
        <path d="M177.276 242.781C173.459 246.097 167.265 237.193 163.785 230.793C163.402 230.09 164.129 229.352 164.84 229.721C171.629 233.244 181.115 239.446 177.276 242.781Z" fill="#B53737" fill-opacity="0.1" />
        <path d="M119.559 249.132C120.543 254.092 109.739 255.049 102.455 254.892C101.655 254.875 101.376 253.878 102.049 253.444C108.477 249.3 118.57 244.145 119.559 249.132Z" fill="#B53737" fill-opacity="0.1" />
        <path d="M116.706 217.423C119.178 221.835 109.2 226.09 102.227 228.197C101.461 228.428 100.886 227.566 101.391 226.945C106.221 221.014 114.222 212.987 116.706 217.423Z" fill="#B53737" fill-opacity="0.1" />
        <path d="M172.403 314.964C168.867 318.579 161.971 310.207 157.984 304.11C157.545 303.44 158.21 302.646 158.948 302.956C166.001 305.916 175.958 311.329 172.403 314.964Z" fill="#B53737" fill-opacity="0.1" />
        <path d="M204.19 315.134C201.873 319.628 192.82 313.654 187.216 308.999C186.601 308.488 187.003 307.533 187.799 307.612C195.41 308.368 206.519 310.614 204.19 315.134Z" fill="#B53737" fill-opacity="0.1" />
        <path d="M169.231 287.113C167.725 291.94 157.777 287.618 151.453 284.001C150.758 283.604 150.99 282.594 151.788 282.534C159.415 281.965 170.745 282.259 169.231 287.113Z" fill="#B53737" fill-opacity="0.1" />
        <path d="M146.584 230.375C146.904 235.421 136.068 234.943 128.869 233.826C128.078 233.704 127.933 232.678 128.657 232.337C135.576 229.078 146.262 225.3 146.584 230.375Z" fill="#B53737" fill-opacity="0.1" />
        <path d="M199.472 265.693C197.839 270.479 188.009 265.893 181.784 262.109C181.1 261.693 181.358 260.69 182.158 260.652C189.797 260.286 201.115 260.881 199.472 265.693Z" fill="#B53737" fill-opacity="0.1" />
        <path d="M210.849 296.781C205.893 297.787 204.887 286.988 205.01 279.704C205.024 278.903 206.02 278.619 206.457 279.29C210.63 285.7 215.831 295.769 210.849 296.781Z" fill="#B53737" fill-opacity="0.1" />
        <path d="M150.753 329.189C148.82 333.862 139.3 328.665 133.326 324.495C132.67 324.037 132.99 323.052 133.791 323.065C141.438 323.181 152.696 324.49 150.753 329.189Z" fill="#B53737" fill-opacity="0.1" />
        <path d="M191.269 292.005C187.365 295.219 181.409 286.154 178.099 279.665C177.735 278.952 178.482 278.234 179.182 278.621C185.876 282.322 195.194 288.773 191.269 292.005Z" fill="#B53737" fill-opacity="0.1" />
        <path d="M98.0598 308.59C94.2593 311.926 88.0203 303.053 84.5078 296.671C84.1218 295.97 84.8452 295.229 85.5576 295.594C92.3644 299.082 101.881 305.236 98.0598 308.59Z" fill="#B53737" fill-opacity="0.1" />
        <path d="M117.878 285.731C117.247 290.748 106.693 288.246 99.8307 285.8C99.0767 285.531 99.1264 284.497 99.9016 284.297C107.309 282.393 118.513 280.686 117.878 285.731Z" fill="#B53737" fill-opacity="0.1" />
        <path d="M148.506 346.803C150.628 351.393 140.352 354.862 133.236 356.422C132.454 356.594 131.948 355.69 132.5 355.11C137.774 349.571 146.372 342.188 148.506 346.803Z" fill="#B53737" fill-opacity="0.1" />
        <path d="M182.056 334.142C182.735 339.152 171.893 339.448 164.632 338.848C163.835 338.782 163.617 337.77 164.315 337.378C170.984 333.633 181.373 329.103 182.056 334.142Z" fill="#B53737" fill-opacity="0.1" />
        <path d="M90.9334 334.362C86.662 337.068 81.8734 327.336 79.3924 320.486C79.1198 319.734 79.9493 319.114 80.5965 319.585C86.7804 324.086 95.2285 331.641 90.9334 334.362Z" fill="#B53737" fill-opacity="0.1" />
        <path fill-rule="evenodd" clip-rule="evenodd" d="M58.7032 202.949C55.8367 205.385 53.7201 208.711 53.7507 212.361C53.77 214.674 54.5658 216.86 55.9067 219.17C57.0385 221.119 58.474 223.022 60.0526 225.116C60.3784 225.548 60.7103 225.988 61.047 226.439C64.8912 231.582 69.1011 237.727 69.0716 246.237C69.0567 250.532 68.7697 254.396 68.2531 257.851C69.6506 259.054 70.7553 260.307 71.7502 261.435C71.7911 261.482 71.8318 261.528 71.8723 261.574C73.1912 263.069 74.3234 264.324 75.8474 265.368C77.3373 266.389 79.2913 267.264 82.2486 267.77L81.5371 271.928C78.0462 271.33 75.5078 270.249 73.463 268.848C71.4524 267.47 70.0075 265.836 68.709 264.364L68.6708 264.321C68.2052 263.793 67.7557 263.283 67.2967 262.791C65.3511 270.821 61.9608 276.092 57.9043 279.014C51.3623 283.726 43.6676 281.896 39.4544 276.488C35.7169 271.691 35.8736 264.6 39.2104 259.408C42.6759 254.015 49.4617 250.717 58.7273 253.094C60.9432 253.663 62.7822 254.379 64.3521 255.202C64.6648 252.507 64.8422 249.522 64.8537 246.222C64.8779 239.216 61.4745 234.056 57.6684 228.964C57.3598 228.551 57.0466 228.136 56.7319 227.719C55.1512 225.625 53.5305 223.477 52.2591 221.288C50.7101 218.62 49.5605 215.704 49.5328 212.396C49.4881 207.051 52.5546 202.639 55.9713 199.735C57.6988 198.267 59.5913 197.114 61.3868 196.361C63.1265 195.632 64.9999 195.184 66.6188 195.405L66.0473 199.584C65.5036 199.51 64.45 199.65 63.0178 200.251C61.6415 200.828 60.1173 201.747 58.7032 202.949ZM63.6636 259.675C62.1718 258.717 60.2756 257.846 57.6788 257.18C50.015 255.213 45.1551 257.959 42.7588 261.688C40.2338 265.618 40.3126 270.727 42.7816 273.896C45.7069 277.65 50.8737 278.88 55.439 275.592C58.7351 273.218 61.9787 268.292 63.6636 259.675Z" fill="#82AA62" fill-opacity="0.1" />
        <path d="M84.1764 268.012C83.0276 274.837 86.7735 290.998 110.948 301.041C107.032 284.075 105.195 273.413 84.1764 268.012Z" fill="#82AA62" fill-opacity="0.1" />
        <path d="M82.1028 273.289C88.9526 274.278 105.021 270.155 114.497 245.752C97.6271 250.064 87.0103 252.15 82.1028 273.289Z" fill="#82AA62" fill-opacity="0.1" />
        <path d="M82.5758 276.538C88.0227 272.269 96.1416 257.802 85.0424 234.093C76.5068 249.27 70.6807 258.387 82.5758 276.538Z" fill="#82AA62" fill-opacity="0.1" />
        <path d="M84.4822 268.254C78.7696 272.162 69.7286 286.07 79.265 310.45C88.768 295.859 95.1738 287.14 84.4822 268.254Z" fill="#82AA62" fill-opacity="0.1" />
        <path d="M84.9801 268.228C78.0737 267.78 62.3783 273.151 54.8476 298.223C71.3269 292.6 81.7473 289.687 84.9801 268.228Z" fill="#82AA62" fill-opacity="0.1" />
    </g>
    <g style="mix-blend-mode:multiply">
        <path fill-rule="evenodd" clip-rule="evenodd" d="M677.324 347.594C661.043 376.072 623.965 414.276 635.803 450.427C643.667 474.437 671.468 488.787 695.528 490.36C706.875 491.102 721.191 489.774 726.529 478.095C732.833 464.302 718.886 454.034 715.268 441.818C712.275 431.713 714.615 420.996 710.426 411.137C705.525 399.603 693.452 396.855 687.089 386.932C680.439 376.56 681.004 362.301 676.043 351.026" fill="#909E00" fill-opacity="0.1" />
        <path fill-rule="evenodd" clip-rule="evenodd" d="M675.113 355.537C675.42 355.024 675.728 354.516 676.037 354.015C676.183 353.783 676.113 353.476 675.88 353.329C675.762 353.255 675.624 353.237 675.498 353.268C675.582 352.746 675.661 352.226 675.732 351.706C675.745 351.628 675.693 351.554 675.616 351.541C675.538 351.527 675.464 351.579 675.45 351.657C675.286 352.423 675.096 353.188 674.898 353.954C672.767 357.314 670.66 360.939 668.808 364.681C666.857 368.623 665.191 372.693 663.993 376.67C662.995 379.997 662.735 383.411 661.993 386.748C661.686 388.124 661.296 389.488 660.728 390.826C658.893 395.147 655.423 398.658 653.069 402.687C652.012 404.496 651.174 406.406 650.777 408.524C650.284 411.153 650.114 413.8 650.105 416.453C650.085 422.56 650.926 428.702 650.543 434.739C650.284 438.821 649.193 441.625 648.133 444.063C647.178 446.262 646.252 448.178 645.912 450.416C645.493 453.181 645.946 456.442 648.383 461.321C652.162 468.886 658.641 474.322 666.293 478.151C677.433 483.725 691.055 485.892 702.288 486.417C704.084 486.5 711.755 486.422 717.282 485.477C719.073 485.171 720.644 484.77 721.736 484.263C722.638 483.845 723.234 483.328 723.475 482.771C725.111 479.008 724.105 474.056 721.932 469.104C718.929 462.263 713.746 455.408 710.762 451.814C709.426 450.205 707.772 448.959 706.502 447.371C705.997 446.74 705.555 446.053 705.228 445.257C703.689 441.505 703.747 437.587 704.052 433.66C704.37 429.572 704.956 425.473 704.437 421.527C704.171 419.509 703.62 417.531 702.608 415.612C701.018 412.597 698.702 410.495 696.045 408.815C693.041 406.916 689.597 405.558 686.305 403.987C683.082 402.45 680.005 400.707 677.673 397.988C675.088 394.975 673.986 391.962 673.638 388.882C673.085 383.972 674.412 378.898 674.796 373.41C674.867 372.359 674.832 371.314 674.747 370.272C674.554 367.906 674.1 365.555 674.11 363.174C674.115 362.027 674.224 360.885 674.39 359.747C674.468 359.214 674.568 358.684 674.657 358.152C674.804 357.28 674.96 356.408 675.113 355.537ZM674.023 357.396C672.578 359.91 671.18 362.537 669.887 365.209C668 369.108 666.337 373.103 665.164 377.022C664.173 380.319 663.919 383.704 663.182 387.012C662.859 388.461 662.445 389.895 661.847 391.301C659.991 395.669 656.495 399.226 654.114 403.297C653.125 404.987 652.335 406.768 651.963 408.747C651.483 411.303 651.319 413.877 651.31 416.457C651.287 422.588 652.126 428.755 651.739 434.815C651.468 439.072 650.335 441.998 649.229 444.54C648.317 446.637 647.417 448.459 647.094 450.595C646.704 453.181 647.182 456.219 649.469 460.777C653.141 468.097 659.444 473.322 666.855 477.029C677.841 482.523 691.268 484.678 702.345 485.209C704.11 485.295 711.651 485.233 717.084 484.315C718.757 484.033 720.226 483.673 721.245 483.203C721.823 482.936 722.252 482.663 722.407 482.307C723.933 478.797 722.893 474.19 720.866 469.572C717.91 462.839 712.8 456.097 709.862 452.561C708.521 450.947 706.863 449.695 705.588 448.103C705.015 447.387 704.516 446.605 704.145 445.702C702.533 441.775 702.56 437.678 702.883 433.568C703.197 429.561 703.794 425.545 703.294 421.676C703.05 419.789 702.543 417.937 701.602 416.141C700.116 413.307 697.939 411.338 695.449 409.755C692.486 407.871 689.084 406.527 685.836 404.966C682.484 403.355 679.295 401.512 676.874 398.671C674.142 395.465 672.983 392.263 672.628 388.994C672.086 384.023 673.438 378.893 673.854 373.341C673.931 372.337 673.906 371.339 673.835 370.342C673.664 367.95 673.232 365.571 673.266 363.165C673.289 361.589 673.474 360.018 673.789 358.465C673.861 358.108 673.94 357.752 674.023 357.396Z" fill="#373B00" fill-opacity="0.1" />
        <path fill-rule="evenodd" clip-rule="evenodd" d="M675.514 353.581C674.763 354.802 673.845 356.645 672.944 358.923C671.502 362.573 670.069 367.308 668.815 372.079C666.773 379.845 665.357 387.762 665.853 391.607C666.03 392.968 666.374 394.172 666.813 395.294C667.858 397.969 669.462 400.173 670.606 403.04C671.774 405.966 672.082 409.025 673.24 411.808C673.749 413.03 674.416 414.199 675.372 415.287C677.456 417.66 680.612 419.26 683.876 420.713C687.006 422.105 690.233 423.363 692.622 425.114C693.949 426.086 695.012 427.209 695.622 428.613C696.513 430.665 696.828 432.871 696.892 435.146C697.043 440.503 695.843 446.234 697.054 451.357C697.394 452.794 699.456 455.743 702.182 459.115C706.948 465.01 713.703 472.3 716.081 475.113C717.609 476.92 718.303 479.276 719.643 481.116C719.833 481.378 720.03 481.634 720.253 481.869C720.763 482.408 721.367 482.864 722.086 483.227C722.331 483.364 722.641 483.276 722.778 483.031C722.915 482.786 722.827 482.477 722.582 482.34C722.002 481.984 721.546 481.542 721.135 481.069C720.951 480.857 720.772 480.642 720.607 480.416C719.254 478.55 718.546 476.168 717.002 474.336C714.629 471.524 707.894 464.232 703.13 458.348C700.557 455.17 698.544 452.435 698.221 451.08C697.017 446.037 698.214 440.388 698.053 435.112C697.978 432.688 697.626 430.341 696.671 428.156C695.978 426.573 694.791 425.293 693.291 424.199C690.838 422.412 687.535 421.118 684.325 419.7C681.208 418.323 678.176 416.831 676.182 414.574C675.305 413.581 674.694 412.512 674.226 411.397C673.061 408.622 672.746 405.57 671.572 402.653C670.419 399.791 668.808 397.594 667.753 394.924C667.339 393.875 667.013 392.75 666.842 391.476C666.418 388.335 667.323 382.415 668.75 376.108C669.997 370.597 671.663 364.8 673.227 360.28C673.385 359.823 673.544 359.381 673.693 358.95C674.451 356.76 675.133 354.938 675.763 353.721C675.801 353.653 675.777 353.565 675.708 353.526C675.64 353.488 675.552 353.512 675.514 353.581Z" fill="#373B00" fill-opacity="0.1" />
        <path fill-rule="evenodd" clip-rule="evenodd" d="M674.844 355.164C674.656 355.154 674.777 355.062 674.612 355.153C674.594 355.163 674.591 355.19 674.581 355.209C674.353 355.633 674.144 356.066 673.936 356.497C671.81 360.89 670.342 365.439 669.225 370.076C667.371 377.778 666.496 385.725 665.204 393.62C664.746 396.422 663.383 398.805 662.031 401.201C661.091 402.866 660.157 404.537 659.486 406.333C659.066 407.457 658.749 408.631 658.6 409.884C658.107 414.008 658.588 417.045 659.521 419.701C661.049 424.047 663.839 427.341 665.498 432.87C667.021 437.941 667.174 442.931 668.911 447.663C669.642 449.655 670.648 451.603 672.137 453.493C673.817 455.628 676.592 458.047 679.545 460.218C682.505 462.394 685.643 464.321 688.018 465.467C690.459 466.645 693.271 467.154 695.807 468.147C696.42 468.387 697.017 468.656 697.586 468.974C701.74 471.294 707.525 478.646 713.45 482.348C714.551 483.036 715.655 483.607 716.759 483.994C718.664 484.661 720.557 484.803 722.379 484.214C722.665 484.126 722.826 483.821 722.738 483.535C722.649 483.249 722.346 483.088 722.059 483.177C720.46 483.644 718.826 483.436 717.177 482.829C716.159 482.453 715.133 481.929 714.113 481.289C708.176 477.567 702.362 470.21 698.195 467.883C697.577 467.537 696.929 467.244 696.262 466.983C693.755 466.003 690.972 465.508 688.559 464.345C686.238 463.227 683.173 461.343 680.28 459.218C677.424 457.121 674.734 454.791 673.108 452.728C671.207 450.316 670.142 447.803 669.42 445.223C668.272 441.121 667.97 436.85 666.667 432.518C664.996 426.969 662.198 423.662 660.66 419.3C659.775 416.791 659.325 413.922 659.786 410.025C659.923 408.869 660.215 407.786 660.601 406.748C661.248 405.009 662.162 403.396 663.063 401.779C664.467 399.261 665.843 396.735 666.296 393.793C667.509 385.908 668.307 377.976 670.08 370.278C671.138 365.685 672.545 361.177 674.596 356.812C674.797 356.384 675.01 355.961 675.216 355.533C675.225 355.514 675.246 355.496 675.243 355.475C675.221 355.289 675.215 355.441 675.098 355.294C675.135 355.224 675.107 355.138 675.037 355.102C674.967 355.066 674.88 355.093 674.844 355.164Z" fill="#373B00" fill-opacity="0.1" />
    </g>
    <g style="mix-blend-mode:multiply">
        <path d="M509.128 690.834C495.776 529.346 575.164 553.303 598.244 547.069C637.993 536.333 691.641 500.654 747.623 626.413C817.6 783.612 522.481 852.321 509.128 690.834Z" fill="#4C7E24" fill-opacity="0.1" />
        <path d="M516.397 688.948C503.857 537.291 578.413 559.79 600.088 553.935C637.418 543.852 687.801 510.346 740.375 628.449C806.092 776.079 528.937 840.606 516.397 688.948Z" fill="#82AA62" fill-opacity="0.1" />
        <path d="M523.423 687.126C511.669 544.971 581.553 566.06 601.87 560.572C636.861 551.121 684.087 519.714 733.367 630.418C794.967 768.798 535.177 829.282 523.423 687.126Z" fill="#E05757" fill-opacity="0.1" />
        <path d="M557.563 697.593C562.662 703.633 570.994 716.175 563.531 718.016C554.203 720.317 547.177 693.987 557.563 697.593Z" fill="black" fill-opacity="0.1" />
        <path d="M568.618 623.003C565.109 630.087 556.927 642.727 552.265 636.616C546.437 628.977 567.786 612.041 568.618 623.003Z" fill="black" fill-opacity="0.1" />
        <path d="M573 665.995C580.044 662.408 594.156 657.156 594.246 664.842C594.359 674.449 567.121 675.285 573 665.995Z" fill="black" fill-opacity="0.1" />
        <path d="M609.137 737.348C608.076 729.515 607.774 714.46 615.059 716.911C624.165 719.975 615.967 745.963 609.137 737.348Z" fill="black" fill-opacity="0.1" />
        <path d="M586.574 585.061C591.86 590.939 600.58 603.214 593.179 605.287C583.927 607.879 576.081 581.782 586.574 585.061Z" fill="black" fill-opacity="0.1" />
        <path d="M642.154 684.088C648.123 689.271 658.287 700.38 651.197 703.348C642.335 707.058 631.337 682.126 642.154 684.088Z" fill="black" fill-opacity="0.1" />
        <path d="M641.586 608.686C639.21 616.226 633.072 629.975 627.524 624.655C620.59 618.005 639.074 597.983 641.586 608.686Z" fill="black" fill-opacity="0.1" />
        <path d="M652.538 650.49C658.946 645.86 672.08 638.497 673.353 646.077C674.945 655.552 648.161 660.575 652.538 650.49Z" fill="black" fill-opacity="0.1" />
        <path d="M699.237 715.423C696.981 707.847 694.364 693.019 701.94 694.318C711.41 695.942 707.313 722.883 699.237 715.423Z" fill="black" fill-opacity="0.1" />
        <path d="M653.482 568.43C659.61 573.424 670.117 584.209 663.124 587.398C654.382 591.384 642.609 566.808 653.482 568.43Z" fill="black" fill-opacity="0.1" />
        <path fill-rule="evenodd" clip-rule="evenodd" d="M574.984 519.807C575.907 522.51 577.897 525.199 581.813 527.324C583.737 528.368 585.622 529.07 587.443 529.484C587.154 527.62 586.984 525.785 586.95 524.013C586.859 519.24 587.735 514.033 590.874 510.071C594.312 505.733 599.557 503.983 605.644 504.682C609.034 505.071 612.113 506.142 614.542 508.108C617.043 510.132 618.51 512.832 619.001 515.75C619.932 521.287 617.34 526.894 613.784 531.039C610.882 534.422 606.86 537.402 602.109 539.259C603.259 541.801 604.613 544.192 606.098 546.238L596.961 552.869C594.531 549.521 592.379 545.505 590.698 541.252C586.164 541.12 581.339 539.912 576.429 537.247C570.189 533.861 566.198 529.016 564.3 523.452C562.437 517.992 562.731 512.272 564.234 507.177C565.734 502.087 568.513 497.353 572.018 493.682C575.485 490.051 587.05 481.188 599.353 484.664L586.89 493.898C585.702 495.697 582.491 499.061 580.183 501.479C577.913 503.856 576.052 507.014 575.062 510.37C574.074 513.721 574.027 517 574.984 519.807ZM598.716 528.464C601.358 527.312 603.578 525.596 605.215 523.688C607.594 520.915 608.031 518.591 607.868 517.623C607.812 517.29 607.7 517.094 607.441 516.884C607.11 516.616 606.244 516.115 604.357 515.898C601.275 515.544 600.236 516.434 599.723 517.082C598.912 518.106 598.169 520.233 598.238 523.796C598.266 525.274 598.431 526.846 598.716 528.464Z" fill="#4C7E24" fill-opacity="0.1" />
    </g>
    <g style="mix-blend-mode:multiply">
        <path fill-rule="evenodd" clip-rule="evenodd" d="M657.846 317.289C655.25 317.757 652.461 316.863 651.094 314.024C650.068 311.894 649.703 309.593 650.679 307.503C651.644 305.433 653.661 304.141 656.112 303.417C657.775 302.926 659.795 302.647 662.17 302.592C661.549 299.886 659.921 296.701 656.675 293.128C653.401 289.525 651.773 285.071 651.291 280.931C648.363 280.744 645.271 279.967 642.608 278.421C639.422 276.572 636.824 273.594 636.024 269.304C634.823 262.864 635.787 258.488 638.79 255.666C641.574 253.048 645.697 252.257 649.297 251.652C649.703 251.584 650.105 251.518 650.504 251.452C653.906 250.892 657.023 250.379 659.612 249.06C662.28 247.7 664.406 245.456 665.18 240.91L669.365 241.623C668.362 247.511 665.385 250.883 661.539 252.842C658.318 254.484 654.503 255.104 651.205 255.64C650.795 255.707 650.393 255.772 650.001 255.838C646.185 256.48 643.398 257.159 641.697 258.758C640.215 260.152 639.118 262.737 640.197 268.526C640.732 271.397 642.431 273.41 644.739 274.75C646.637 275.851 648.925 276.476 651.19 276.667C651.255 275.775 651.374 274.923 651.541 274.128C651.826 272.767 652.265 271.498 652.864 270.428C653.454 269.377 654.274 268.387 655.386 267.794C656.576 267.158 657.935 267.072 659.257 267.606C660.495 268.105 661.563 269.088 662.488 270.338C663.504 271.712 664.058 273.243 663.847 274.822C663.637 276.399 662.718 277.621 661.609 278.492C660.057 279.709 657.883 280.454 655.549 280.78C655.988 284.034 657.299 287.502 659.817 290.273C663.84 294.702 665.889 298.939 666.517 302.715C670.252 302.987 674.627 303.679 679.636 304.821C687.552 306.626 693.359 304.38 697.359 301.017C701.458 297.569 703.668 292.933 704.169 290.136L708.347 290.885C707.669 294.671 704.94 300.188 700.091 304.265C695.143 308.427 687.992 311.08 678.693 308.96C673.95 307.878 669.943 307.25 666.627 306.982C666.362 309.145 665.602 311.075 664.493 312.699C662.814 315.157 660.35 316.838 657.846 317.289ZM662.349 306.833C660.273 306.875 658.602 307.108 657.314 307.488C655.481 308.03 654.776 308.76 654.525 309.298C654.284 309.815 654.207 310.706 654.918 312.182C655.288 312.95 655.959 313.315 657.093 313.111C658.318 312.891 659.852 311.968 660.987 310.306C661.606 309.398 662.119 308.232 662.349 306.833ZM655.465 276.497C657.034 276.22 658.262 275.722 658.988 275.152C659.498 274.752 659.616 274.439 659.64 274.26C659.663 274.084 659.649 273.639 659.075 272.863C658.41 271.964 657.914 271.641 657.667 271.542C657.506 271.476 657.462 271.497 657.385 271.538C657.229 271.621 656.918 271.877 656.567 272.504C656.226 273.113 655.915 273.954 655.695 274.999C655.596 275.474 655.518 275.975 655.465 276.497Z" fill="#82AA62" fill-opacity="0.1" />
        <path d="M754.67 260.227C744.01 248.347 680.97 248.607 704.508 291.275C728.046 333.942 774.835 283.17 754.67 260.227Z" fill="#E95C5C" fill-opacity="0.1" />
        <path d="M700.98 258.383C697.292 262.476 692.903 274.932 704.85 292.008C709.469 278.938 712.791 270.991 700.98 258.383Z" fill="#82AA62" fill-opacity="0.1" />
        <path d="M704.563 291.492C704.911 296.991 710.747 308.838 731.308 312.236C725.194 299.796 721.836 291.864 704.563 291.492Z" fill="#82AA62" fill-opacity="0.1" />
        <path d="M729.261 287.804C729.698 292.419 722.991 290.953 718.497 289.253C718.003 289.066 717.865 288.121 718.295 287.88C722.409 285.578 728.822 283.164 729.261 287.804Z" fill="#B53737" fill-opacity="0.1" />
        <path d="M751.056 269.852C755.233 271.862 750.513 276.848 746.737 279.818C746.322 280.144 745.441 279.775 745.457 279.281C745.611 274.57 746.856 267.832 751.056 269.852Z" fill="#B53737" fill-opacity="0.1" />
        <path d="M739.907 279.597C739.823 284.231 733.323 282.021 729.048 279.827C728.578 279.586 728.547 278.631 729.002 278.44C733.349 276.615 739.992 274.937 739.907 279.597Z" fill="#B53737" fill-opacity="0.1" />
        <path d="M746.138 290.935C748.349 295.009 741.603 296.289 736.803 296.486C736.275 296.508 735.777 295.692 736.079 295.302C738.962 291.572 743.916 286.838 746.138 290.935Z" fill="#B53737" fill-opacity="0.1" />
        <path d="M673.512 183.012C657.573 183.88 618.289 233.184 666.293 241.562C714.297 249.94 704.027 181.665 673.512 183.012Z" fill="#E95C5C" fill-opacity="0.1" />
        <path d="M638.444 223.71C639.325 229.149 646.285 240.372 667.079 241.755C659.784 229.968 655.67 222.4 638.444 223.71Z" fill="#82AA62" fill-opacity="0.1" />
        <path d="M666.497 241.656C671.001 244.829 683.892 247.7 699.42 233.802C685.893 230.775 677.606 228.425 666.497 241.656Z" fill="#82AA62" fill-opacity="0.1" />
        <path d="M690.026 218.148C693.897 220.698 688.553 225.008 684.413 227.447C683.958 227.715 683.135 227.23 683.216 226.744C683.999 222.095 686.134 215.584 690.026 218.148Z" fill="#B53737" fill-opacity="0.1" />
        <path d="M683.054 202.994C687.687 203.15 685.377 209.615 683.118 213.856C682.87 214.322 681.915 214.338 681.73 213.88C679.972 209.506 678.396 202.838 683.054 202.994Z" fill="#B53737" fill-opacity="0.1" />
        <path d="M674.849 220.272C679.41 221.101 676.182 227.16 673.329 231.026C673.015 231.451 672.068 231.328 671.952 230.848C670.851 226.265 670.264 219.438 674.849 220.272Z" fill="#B53737" fill-opacity="0.1" />
    </g>
    <g style="mix-blend-mode:multiply">
        <path d="M635.315 164.6C626.492 174.623 617.207 181.69 602.591 190.379C572.824 175.567 568.558 148.371 575.904 131.189L581.04 140.405C580.24 135.306 577.212 112.901 573.92 88.945C570.628 64.9888 615.694 31.5442 631.776 19.3296C642.849 31.4347 636.756 70.6672 636.641 86.8759C636.527 103.085 644.147 127.418 640.728 141.531L646.795 135.141C646.716 137.814 644.137 154.577 635.315 164.6Z" fill="#4C7E24" fill-opacity="0.1" />
        <path fill-rule="evenodd" clip-rule="evenodd" d="M625.279 38.2589C625.285 38.3867 625.29 38.5164 625.295 38.6475C625.362 40.2962 625.438 42.159 625.359 43.1337C625.264 44.3262 625.174 45.5167 625.087 46.7057C624.666 47.6603 624.271 48.662 623.879 49.6524C623.63 50.2831 623.383 50.9092 623.132 51.5157C622.46 53.1399 621.734 54.6998 620.791 56.1169C619.254 58.4277 617.646 60.7024 616.029 62.99C615.721 63.4252 615.413 63.8609 615.105 64.2973C613.182 67.0234 611.266 69.7765 609.481 72.6127C608.88 73.5685 608.274 74.5103 607.671 75.4457C603.502 81.9211 599.529 88.0924 598.772 96.4827C598.356 101.084 598.681 105.231 599.284 109.71C599.615 112.172 600.147 114.58 600.67 116.947C600.786 117.47 600.901 117.991 601.013 118.51C601.638 121.396 602.185 124.245 602.312 127.185C602.431 129.939 601.467 132.326 600.22 134.927C598.384 138.76 598.05 142.619 597.964 146.662C597.898 149.794 598.345 152.843 598.778 155.798C598.885 156.527 598.991 157.25 599.088 157.967C599.584 161.627 599.866 165.19 599.015 168.866C598.624 170.554 598.743 172.203 599.027 173.781C599.194 174.708 599.435 175.677 599.667 176.614C599.817 177.218 599.964 177.809 600.086 178.367C600.091 178.391 600.103 178.454 600.122 178.548C600.166 178.765 600.243 179.151 600.344 179.63C596.439 174.886 592.568 170.091 588.981 165.171C586.871 162.276 584.887 159.157 583.855 155.828C583.182 153.658 582.83 150.648 583.513 148.568C583.68 148.059 583.882 147.727 584.09 147.486C584.301 147.241 584.543 147.059 584.84 146.867C584.922 146.814 585.01 146.759 585.102 146.703C585.66 146.359 586.378 145.915 586.954 145.028C589.171 141.611 589.946 137.12 590.617 133.236C590.701 132.746 590.785 132.265 590.869 131.797C591.201 129.945 590.92 127.908 590.529 125.982C590.381 125.253 590.22 124.549 590.064 123.868C589.795 122.689 589.541 121.578 589.398 120.528C589.217 119.204 589.022 117.863 588.825 116.509C587.718 108.912 586.556 100.939 587.699 93.6346C588.269 89.9951 589.021 86.2802 590.355 82.9084C591.061 81.1241 592.041 79.5721 593.139 78.0451C593.572 77.4428 594.038 76.8254 594.513 76.1964C595.209 75.2751 595.924 74.3287 596.581 73.3679C598.229 70.9566 600.121 68.7009 602.061 66.4378C602.297 66.1624 602.534 65.8868 602.771 65.6108C604.476 63.6277 606.199 61.6232 607.773 59.5196C609.27 57.5192 610.936 55.6639 612.633 53.7979C612.76 53.6587 612.887 53.5193 613.014 53.3799C614.581 51.6584 616.166 49.9171 617.622 48.0664C618.388 47.0932 619.181 46.1727 619.985 45.2408C620.199 44.993 620.413 44.7444 620.628 44.4938C621.643 43.3085 622.657 42.0887 623.585 40.75C623.705 40.5776 623.826 40.4042 623.948 40.2295C624.393 39.5921 624.85 38.9382 625.279 38.2589ZM601.152 182.97C601.283 183.423 601.42 183.851 601.56 184.216C601.681 184.533 601.818 184.839 601.972 185.078C602.049 185.196 602.151 185.331 602.285 185.444C602.416 185.554 602.641 185.695 602.944 185.689C603.452 185.677 603.923 185.5 604.331 185.283C604.741 185.066 605.135 184.782 605.495 184.507C605.661 184.38 605.811 184.261 605.955 184.148C606.147 183.996 606.329 183.853 606.525 183.707C606.852 183.464 607.127 183.288 607.361 183.188C608.098 182.871 608.853 182.204 609.484 181.57C609.992 181.06 610.479 180.508 610.867 180.069C610.973 179.95 611.07 179.839 611.159 179.74C611.986 178.816 612.694 177.781 613.369 176.797C613.435 176.7 613.501 176.603 613.567 176.507C614.314 175.42 615.034 174.405 615.888 173.555C617.124 172.325 618.421 171.11 619.729 169.884C622.456 167.329 625.234 164.726 627.617 161.841C628.262 161.06 628.94 160.292 629.629 159.512C629.796 159.323 629.964 159.134 630.132 158.943C630.987 157.971 631.846 156.976 632.631 155.943C633.334 155.018 633.927 153.92 634.463 152.837C634.68 152.4 634.883 151.974 635.082 151.558C635.39 150.913 635.685 150.294 635.996 149.704C636.547 148.659 636.781 147.723 636.723 146.856C636.665 145.982 636.316 145.261 635.852 144.639C635.397 144.032 634.809 143.49 634.246 142.983C634.192 142.934 634.138 142.886 634.085 142.838C633.562 142.367 633.055 141.912 632.598 141.399C632.048 140.78 631.804 139.942 631.751 138.965C631.698 137.986 631.842 136.953 631.989 136.011C632.195 134.695 632.352 133.374 632.507 132.068L632.514 132.008C632.667 130.717 632.818 129.442 633.013 128.176C634.219 120.346 632.977 112.405 631.015 104.913C628.416 94.9895 628.16 84.2403 628.833 74.0037C629.061 70.5454 628.999 67.0853 628.938 63.6514C628.906 61.8447 628.873 60.0452 628.884 58.2571C628.893 56.5684 628.972 54.8788 629.051 53.1702C629.079 52.5705 629.107 51.9685 629.132 51.3633C629.228 49.0468 629.281 46.703 629.116 44.3634C629.084 43.9142 628.669 41.3101 628.27 38.8918C628.067 37.6666 627.865 36.4662 627.71 35.5723C627.632 35.1258 627.566 34.7534 627.517 34.4918C627.493 34.362 627.472 34.2545 627.456 34.1776C627.448 34.141 627.44 34.1011 627.431 34.0663C627.427 34.0526 627.418 34.0185 627.404 33.9802L627.404 33.9796C627.399 33.9658 627.38 33.9127 627.344 33.8518C627.33 33.8265 627.282 33.7464 627.194 33.6683C627.116 33.5988 626.845 33.3962 626.472 33.5118C626.237 33.5845 626.068 33.7309 625.963 33.8381C625.851 33.9537 625.753 34.0863 625.672 34.2122C625.508 34.4643 625.356 34.7681 625.225 35.0516C625.098 35.3274 624.98 35.6096 624.883 35.842L624.871 35.8716C624.762 36.1311 624.697 36.2851 624.661 36.3508C624.099 37.3879 623.427 38.3514 622.725 39.356C622.601 39.5338 622.476 39.7129 622.35 39.8939C621.468 41.1667 620.496 42.3386 619.487 43.5162C619.279 43.7587 619.069 44.0019 618.858 44.2464C618.052 45.1814 617.23 46.135 616.441 47.1376C615.021 48.9436 613.471 50.6462 611.896 52.3757C611.771 52.5126 611.647 52.6496 611.522 52.7869C609.826 54.651 608.116 56.5546 606.57 58.6193C605.029 60.6792 603.341 62.6426 601.633 64.6296C601.396 64.9058 601.158 65.1824 600.92 65.4599C598.979 67.7241 597.04 70.0344 595.34 72.5199C594.689 73.4731 594.027 74.3473 593.359 75.2307C592.883 75.8611 592.402 76.4961 591.919 77.168C590.79 78.7391 589.729 80.406 588.958 82.3555C587.561 85.8849 586.789 89.7319 586.215 93.4023C585.034 100.953 586.236 109.189 587.344 116.775C587.54 118.117 587.733 119.438 587.909 120.731C588.06 121.84 588.341 123.074 588.622 124.305C588.774 124.971 588.926 125.637 589.056 126.281C589.442 128.18 589.669 129.978 589.39 131.531C589.304 132.01 589.22 132.494 589.135 132.982C588.452 136.912 587.73 141.072 585.693 144.211C585.313 144.796 584.893 145.059 584.348 145.4C584.245 145.465 584.137 145.532 584.025 145.605C583.679 145.828 583.299 146.102 582.951 146.506C582.601 146.913 582.308 147.423 582.086 148.099C581.262 150.609 581.708 153.975 582.42 156.273C583.528 159.847 585.633 163.129 587.767 166.056C591.984 171.841 596.588 177.449 601.152 182.97ZM603.824 183.844C604.063 183.699 604.313 183.519 604.582 183.314C604.708 183.217 604.847 183.108 604.99 182.995C605.205 182.826 605.428 182.65 605.629 182.501C605.981 182.24 606.368 181.979 606.769 181.807C607.216 181.615 607.795 181.137 608.419 180.51C608.892 180.035 609.338 179.53 609.724 179.094C609.834 178.969 609.94 178.849 610.04 178.738C610.798 177.891 611.451 176.937 612.136 175.938C612.2 175.844 612.264 175.751 612.329 175.656C613.072 174.574 613.863 173.451 614.828 172.49C616.134 171.191 617.468 169.941 618.795 168.699C621.481 166.183 624.135 163.697 626.458 160.885C627.121 160.082 627.82 159.29 628.511 158.508C628.676 158.322 628.84 158.136 629.004 157.95C629.856 156.982 630.684 156.021 631.435 155.034C632.048 154.227 632.59 153.234 633.117 152.17C633.311 151.778 633.507 151.369 633.703 150.958C634.024 150.287 634.346 149.612 634.666 149.004C635.129 148.126 635.258 147.469 635.224 146.956C635.19 146.448 634.992 145.999 634.648 145.539C634.294 145.066 633.813 144.616 633.241 144.099C633.186 144.051 633.132 144.001 633.076 143.951C632.561 143.489 631.991 142.977 631.476 142.398C630.611 141.426 630.313 140.203 630.251 139.046C630.189 137.891 630.358 136.717 630.504 135.779C630.705 134.495 630.86 133.201 631.015 131.891L631.023 131.82C631.175 130.537 631.329 129.24 631.528 127.948C632.688 120.412 631.502 112.702 629.562 105.293C626.905 95.15 626.656 84.22 627.334 73.9051C627.558 70.5036 627.498 67.1606 627.436 63.7711C627.404 61.9491 627.371 60.1137 627.381 58.2485C627.391 56.5266 627.471 54.7925 627.551 53.075C627.579 52.4814 627.606 51.8896 627.63 51.3011C627.726 48.9971 627.776 46.7219 627.617 44.4695C627.595 44.1646 627.305 42.3067 626.967 40.2313C626.975 40.7445 627.012 41.2613 627.05 41.7996C627.078 42.1918 627.106 42.5955 627.126 43.0174C627.184 44.3116 627.141 45.6945 626.568 47.0699C626.416 49.1705 626.274 51.2774 626.131 53.3869C625.824 57.9495 625.515 62.5239 625.105 67.0719C624.658 72.0145 623.594 76.7825 622.542 81.4897C622.372 82.2512 622.202 83.0111 622.036 83.7699C620.834 89.2404 619.784 94.6757 619.813 100.386C619.835 104.763 620.299 108.471 621.588 112.628C622.766 116.428 623.646 119.881 623.297 124.038C622.908 128.691 620.591 132.447 618.241 136.009C618.06 136.285 617.878 136.558 617.697 136.831C615.503 140.139 613.392 143.323 612.552 147.105C612.035 149.429 611.932 151.811 611.824 154.271C611.809 154.619 611.794 154.97 611.777 155.322C611.646 158.126 611.433 161.011 610.474 163.815C609.834 165.684 608.756 167.436 607.729 169.107C607.564 169.375 607.401 169.641 607.241 169.905C606.057 171.856 605.032 173.727 604.698 175.761C604.581 176.47 604.491 177.18 604.399 177.904C604.372 178.112 604.345 178.321 604.318 178.532C604.196 179.465 604.06 180.415 603.853 181.349C603.784 181.658 603.716 181.921 603.659 182.142C603.644 182.201 603.63 182.256 603.617 182.309C603.551 182.569 603.509 182.753 603.489 182.929C603.471 183.079 603.467 183.237 603.491 183.441C603.602 183.575 603.713 183.709 603.824 183.844ZM602.293 181.419C602.323 181.296 602.354 181.166 602.386 181.023C602.578 180.158 602.708 179.264 602.828 178.338C602.854 178.137 602.88 177.934 602.906 177.73C602.999 177.002 603.094 176.256 603.215 175.517C603.602 173.168 604.772 171.077 605.956 169.126C606.125 168.848 606.293 168.573 606.461 168.301C607.493 166.619 608.471 165.026 609.052 163.328C609.937 160.745 610.145 158.049 610.276 155.251C610.293 154.907 610.308 154.561 610.323 154.213C610.429 151.766 610.538 149.241 611.085 146.779C611.989 142.711 614.254 139.299 616.421 136.036C616.611 135.75 616.8 135.466 616.987 135.182C619.343 131.611 621.446 128.143 621.8 123.912C622.123 120.057 621.319 116.834 620.153 113.073C618.813 108.75 618.334 104.89 618.311 100.394C618.28 94.504 619.364 88.9288 620.568 83.4476C620.737 82.6796 620.908 81.914 621.079 81.1496C622.131 76.4372 623.171 71.7743 623.608 66.9368C624.019 62.388 624.324 57.8599 624.63 53.3236C624.67 52.7245 624.71 52.1253 624.751 51.5259C624.675 51.713 624.598 51.9011 624.52 52.0901C623.835 53.7455 623.065 55.4108 622.042 56.9491C620.492 59.2792 618.87 61.5741 617.252 63.8615C616.946 64.2957 616.639 64.7296 616.333 65.1634C614.411 67.8874 612.515 70.6128 610.753 73.4129C610.14 74.3877 609.527 75.3405 608.923 76.2796C604.748 82.7749 600.99 88.6199 600.268 96.6178C599.867 101.061 600.177 105.083 600.773 109.51C601.095 111.903 601.611 114.237 602.133 116.6C602.249 117.129 602.367 117.659 602.482 118.192C603.109 121.09 603.68 124.045 603.813 127.12C603.95 130.274 602.832 132.953 601.575 135.577C599.883 139.108 599.551 142.699 599.466 146.693C599.403 149.688 599.826 152.58 600.257 155.524C600.366 156.267 600.475 157.013 600.577 157.765C601.078 161.463 601.394 165.251 600.478 169.205C600.152 170.615 600.24 172.038 600.506 173.514C600.669 174.418 600.883 175.276 601.103 176.157C601.255 176.767 601.41 177.389 601.554 178.047C601.562 178.086 601.579 178.171 601.603 178.292C601.713 178.837 601.97 180.124 602.293 181.419ZM627.047 34.8798C627.047 34.8799 627.045 34.8815 627.042 34.8842C627.045 34.881 627.047 34.8797 627.047 34.8798Z" fill="#679841" fill-opacity="0.1" />
    </g>
    <g style="mix-blend-mode:multiply">
        <path d="M453.076 648.849L458.938 643.308C463.832 642.472 468.319 656.096 472.691 659.002C477.062 661.908 481.371 667.039 480.165 670.345C478.959 673.651 471.905 677.071 470.878 673.981C469.852 670.89 472.204 671.374 468.259 663.192C464.314 655.01 451.075 650.741 453.076 648.849Z" fill="#909E00" fill-opacity="0.1" />
        <path d="M285.44 551.948C249.502 619.039 331.893 661.798 389.713 644.498C408.375 638.914 438.521 665.363 454.77 658.347C457.658 657.1 457.969 652.534 460.001 648.979C461.88 645.692 465.056 645.149 465.291 642.531C466.74 626.38 438.108 617.788 425.568 586.781C409.823 523.16 323.883 480.18 285.44 551.948Z" fill="#EE6B4E" fill-opacity="0.1" />
    </g>
    <g style="mix-blend-mode:multiply">
        <path d="M154.387 170.645C115.276 118.675 136.736 74.568 152.354 59.0108C177.302 91.0427 252.701 160.709 287.281 191.539C259.279 206.228 193.497 222.615 154.387 170.645Z" fill="#E05757" fill-opacity="0.1" />
        <path fill-rule="evenodd" clip-rule="evenodd" d="M158.663 66.6847C148.496 88.0575 144.491 121.075 171.415 157.526C200.889 197.43 247.567 194.779 279.426 184.497C282.224 187.018 284.854 189.374 287.281 191.539C259.279 206.228 193.497 222.615 154.387 170.645C115.276 118.675 136.736 74.568 152.354 59.0108C154.195 61.3741 156.31 63.9423 158.663 66.6847Z" fill="#4C7E24" fill-opacity="0.1" />
        <path fill-rule="evenodd" clip-rule="evenodd" d="M153.651 60.653C155.168 62.5501 156.845 64.5654 158.663 66.6847C148.496 88.0576 144.491 121.075 171.415 157.526C200.889 197.43 247.567 194.779 279.426 184.497C281.043 185.954 282.604 187.356 284.103 188.698C252.174 200.889 197.777 207.559 163.667 162.233C131.071 118.919 140.548 81.0671 153.651 60.653Z" fill="#82AA62" fill-opacity="0.1" />
        <path d="M162.144 105.545C161.719 99.8777 162.149 89.0613 167.272 91.1332C173.675 93.723 166.675 112.021 162.144 105.545Z" fill="black" fill-opacity="0.1" />
        <path d="M178.521 118.701C183.572 116.096 193.697 112.267 193.791 117.792C193.908 124.698 174.33 125.402 178.521 118.701Z" fill="black" fill-opacity="0.1" />
        <path d="M233.516 175.313C238.566 172.707 248.691 168.878 248.785 174.403C248.903 181.31 229.324 182.014 233.516 175.313Z" fill="black" fill-opacity="0.1" />
        <path d="M194.635 153.587C189.011 152.771 178.547 150.001 181.682 145.451C185.601 139.763 201.941 150.571 194.635 153.587Z" fill="black" fill-opacity="0.1" />
        <path d="M216.337 142.27C220.133 146.499 226.395 155.329 221.072 156.815C214.42 158.672 208.795 139.906 216.337 142.27Z" fill="black" fill-opacity="0.1" />
    </g>
    <g style="mix-blend-mode:multiply">
        <path d="M452.465 695.818C450.567 692.552 443.277 691.937 440.199 689.343C433.92 682.737 435.312 688.999 429.324 689.13C423.336 689.261 404.96 663.69 381.232 695.812C357.503 727.933 379.711 740.415 378.414 741.954C377.117 743.494 375.585 745.624 378.901 748.769C382.218 751.914 381.265 748.567 385.211 751.278C389.156 753.988 389.475 755.484 393.183 757.643C396.891 759.802 397.988 757.042 401.969 757.94C405.951 758.838 429.428 775.02 448.717 748.897C464.149 727.998 455.19 710.981 448.782 705.085C450.642 703.084 453.984 698.431 452.465 695.818Z" fill="#265792" fill-opacity="0.1" />
    </g>
    <g style="mix-blend-mode:multiply">
        <path fill-rule="evenodd" clip-rule="evenodd" d="M166.338 717.282C185.028 733.306 204.216 744.035 229.632 739.259C260.56 733.448 284.955 702.11 283.851 670.867C283.266 654.306 274.963 638.032 263.209 626.568C255.387 618.938 243.753 611.132 233.136 608.234C208.718 601.569 171.739 614.757 157.912 636.227C147.935 651.721 146.688 672.655 151.209 690C153.658 699.393 160.185 710.072 166.338 717.282Z" fill="#FFD82F" fill-opacity="0.1" />
        <path fill-rule="evenodd" clip-rule="evenodd" d="M211.604 673.094C209.171 675.349 206.612 677.356 204.239 679.721C196.823 687.109 181.496 695.971 170.317 694.847C152.132 693.019 149.843 665.911 163.161 652.72C166.676 649.238 170.947 650.102 175.314 650.862C184.691 652.497 192.879 657.602 200.785 662.918C203.825 664.963 207.082 666.767 209.775 669.327C210.54 670.055 212.269 671.872 211.604 673.094Z" fill="#FFFFC1" fill-opacity="0.1" />
        <path fill-rule="evenodd" clip-rule="evenodd" d="M215.654 676.733C216.915 679.802 217.898 682.901 219.282 685.953C223.606 695.486 226.539 712.946 221.572 723.023C213.491 739.417 187.298 732.068 179.606 714.974C177.575 710.462 179.88 706.764 182.122 702.94C186.937 694.729 194.585 688.847 202.334 683.303C205.314 681.172 208.144 678.753 211.485 677.127C212.435 676.665 214.743 675.682 215.654 676.733Z" fill="#FFFFC1" fill-opacity="0.1" />
        <path fill-rule="evenodd" clip-rule="evenodd" d="M220.003 673.519C223.304 673.177 226.555 673.111 229.873 672.646C240.24 671.194 257.817 673.318 266.078 680.932C279.517 693.319 265.062 716.365 246.491 718.909C241.588 719.581 238.693 716.324 235.659 713.093C229.145 706.153 225.666 697.153 222.539 688.153C221.338 684.692 219.817 681.293 219.203 677.629C219.028 676.587 218.738 674.096 220.003 673.519Z" fill="#FFFFC1" fill-opacity="0.1" />
        <path fill-rule="evenodd" clip-rule="evenodd" d="M214.378 669.557C211.512 667.793 208.85 665.834 205.897 664.159C196.671 658.925 183.752 646.303 181.61 634.96C178.125 616.508 203.476 606.613 219.97 616.034C224.324 618.521 224.726 622.977 225.254 627.498C226.387 637.208 223.848 646.722 221.024 656.019C219.938 659.593 219.146 663.315 217.465 666.692C216.987 667.652 215.741 669.869 214.378 669.557Z" fill="#FFFFC1" fill-opacity="0.1" />
        <path fill-rule="evenodd" clip-rule="evenodd" d="M219.28 669.875C220.014 666.915 220.974 664.06 221.605 661.058C223.577 651.678 230.953 636.793 240.24 631.265C255.347 622.272 271.091 640.016 267.509 656.806C266.564 661.239 262.792 663.045 258.999 664.979C250.853 669.13 241.846 670.172 232.949 670.907C229.528 671.189 226.061 671.763 222.645 671.486C221.674 671.407 219.392 671.108 219.28 669.875Z" fill="#FFFFC1" fill-opacity="0.1" />
    </g>
</svg>
    